<svg width="217" height="12" fill="none" xmlns="http://www.w3.org/2000/svg"><path d="M214.579 9.144c-.576 0-1.06-.108-1.452-.324a3.392 3.392 0 0 1-.996-.888l.684-.552c.24.304.508.54.804.708.296.16.64.24 1.032.24.408 0 .724-.088.948-.264.232-.176.348-.424.348-.744 0-.24-.08-.444-.24-.612-.152-.176-.432-.296-.84-.36l-.492-.072c-.288-.04-.552-.1-.792-.18-.24-.088-.452-.2-.636-.336a1.595 1.595 0 0 1-.42-.528 1.763 1.763 0 0 1-.144-.744c0-.304.056-.568.168-.792.112-.232.264-.424.456-.576.2-.152.436-.264.708-.336.272-.08.564-.12.876-.12.504 0 .924.088 1.26.264.344.176.644.42.9.732l-.636.576a1.848 1.848 0 0 0-.6-.516c-.264-.16-.596-.24-.996-.24s-.704.088-.912.264c-.2.168-.3.4-.3.696 0 .304.1.524.3.66.208.136.504.236.888.3l.48.072c.688.104 1.176.304 1.464.6.288.288.432.668.432 1.14 0 .6-.204 1.072-.612 1.416-.408.344-.968.516-1.68.516ZM210.199 1.356c-.208 0-.36-.048-.456-.144a.592.592 0 0 1-.132-.396V.66c0-.16.044-.288.132-.384.096-.104.248-.156.456-.156.208 0 .356.052.444.156a.519.519 0 0 1 .144.384v.156c0 .16-.048.292-.144.396-.088.096-.236.144-.444.144Zm-.48 1.452h.96V9h-.96V2.808ZM202.899.12h.96v3.696h.048c.152-.352.364-.632.636-.84.28-.208.652-.312 1.116-.312.64 0 1.144.208 1.512.624.376.408.564.988.564 1.74V9h-.96V5.196c0-1.112-.468-1.668-1.404-1.668-.192 0-.38.024-.564.072-.176.048-.336.12-.48.216-.144.096-.26.22-.348.372-.08.144-.12.316-.12.516V9h-.96V.12ZM200.06 9c-.336 0-.592-.092-.768-.276-.168-.192-.252-.44-.252-.744V3.648h-1.02v-.84h.576c.208 0 .348-.04.42-.12.08-.088.12-.236.12-.444V1.092H200v1.716h1.356v.84H200V8.16h1.26V9h-1.2ZM185.997 2.808h.936l.66 2.676.66 2.712h.024l.756-2.712.78-2.676h.852l.804 2.676.768 2.712h.024l.636-2.712.672-2.676h.9L192.825 9h-1.188l-.864-2.976-.54-1.884h-.024l-.528 1.884L188.817 9h-1.164l-1.656-6.192ZM182.329 9.144a2.79 2.79 0 0 1-1.14-.228 2.548 2.548 0 0 1-.888-.648 3.228 3.228 0 0 1-.564-1.02 4.159 4.159 0 0 1-.204-1.344c0-.488.068-.932.204-1.332.136-.4.324-.74.564-1.02.248-.288.544-.508.888-.66a2.79 2.79 0 0 1 1.14-.228c.416 0 .792.076 1.128.228.344.152.64.372.888.66.248.28.44.62.576 1.02.136.4.204.844.204 1.332 0 .496-.068.944-.204 1.344a3.103 3.103 0 0 1-.576 1.02c-.248.28-.544.496-.888.648a2.706 2.706 0 0 1-1.128.228Zm0-.852c.52 0 .944-.16 1.272-.48.328-.32.492-.808.492-1.464V5.46c0-.656-.164-1.144-.492-1.464-.328-.32-.752-.48-1.272-.48s-.944.16-1.272.48c-.328.32-.492.808-.492 1.464v.888c0 .656.164 1.144.492 1.464.328.32.752.48 1.272.48ZM177.739 9c-.336 0-.592-.092-.768-.276a1.054 1.054 0 0 1-.252-.72V.12h.96v8.04h.912V9h-.852ZM174.528 9c-.336 0-.592-.092-.768-.276a1.054 1.054 0 0 1-.252-.72V.12h.96v8.04h.912V9h-.852ZM169.133 9.144a2.79 2.79 0 0 1-1.14-.228 2.548 2.548 0 0 1-.888-.648 3.228 3.228 0 0 1-.564-1.02 4.159 4.159 0 0 1-.204-1.344c0-.488.068-.932.204-1.332.136-.4.324-.74.564-1.02.248-.288.544-.508.888-.66a2.79 2.79 0 0 1 1.14-.228c.416 0 .792.076 1.128.228.344.152.64.372.888.66.248.28.44.62.576 1.02.136.4.204.844.204 1.332 0 .496-.068.944-.204 1.344a3.103 3.103 0 0 1-.576 1.02c-.248.28-.544.496-.888.648a2.706 2.706 0 0 1-1.128.228Zm0-.852c.52 0 .944-.16 1.272-.48.328-.32.492-.808.492-1.464V5.46c0-.656-.164-1.144-.492-1.464-.328-.32-.752-.48-1.272-.48s-.944.16-1.272.48c-.328.32-.492.808-.492 1.464v.888c0 .656.164 1.144.492 1.464.328.32.752.48 1.272.48ZM163.286 3.648h-1.008v-.84h1.008V1.56c0-.432.112-.78.336-1.044.224-.264.564-.396 1.02-.396h.936v.84h-1.332v1.848h1.332v.84h-1.332V9h-.96V3.648ZM156.126 9.144c-.576 0-1.06-.108-1.452-.324a3.392 3.392 0 0 1-.996-.888l.684-.552c.24.304.508.54.804.708.296.16.64.24 1.032.24.408 0 .724-.088.948-.264.232-.176.348-.424.348-.744 0-.24-.08-.444-.24-.612-.152-.176-.432-.296-.84-.36l-.492-.072c-.288-.04-.552-.1-.792-.18-.24-.088-.452-.2-.636-.336a1.595 1.595 0 0 1-.42-.528 1.763 1.763 0 0 1-.144-.744c0-.304.056-.568.168-.792.112-.232.264-.424.456-.576.2-.152.436-.264.708-.336.272-.08.564-.12.876-.12.504 0 .924.088 1.26.264.344.176.644.42.9.732l-.636.576a1.848 1.848 0 0 0-.6-.516c-.264-.16-.596-.24-.996-.24s-.704.088-.912.264c-.2.168-.3.4-.3.696 0 .304.1.524.3.66.208.136.504.236.888.3l.48.072c.688.104 1.176.304 1.464.6.288.288.432.668.432 1.14 0 .6-.204 1.072-.612 1.416-.408.344-.968.516-1.68.516ZM149.86 9V2.808h.96v1.14h.06a1.87 1.87 0 0 1 .6-.792c.288-.232.684-.348 1.188-.348h.372v.96h-.564c-.52 0-.928.1-1.224.3-.288.192-.432.436-.432.732V9h-.96ZM145.602 9.144a2.82 2.82 0 0 1-1.152-.228 2.578 2.578 0 0 1-.876-.648 3.228 3.228 0 0 1-.564-1.02 4.398 4.398 0 0 1-.192-1.344c0-.488.064-.932.192-1.332.136-.4.324-.74.564-1.02.248-.288.54-.508.876-.66a2.82 2.82 0 0 1 1.152-.228c.416 0 .788.076 1.116.228.328.152.608.364.84.636.232.264.408.58.528.948.128.368.192.772.192 1.212v.456h-4.452v.288c0 .264.04.512.12.744.088.224.208.42.36.588.16.168.352.3.576.396.232.096.492.144.78.144.392 0 .732-.092 1.02-.276.296-.184.524-.448.684-.792l.684.492c-.2.424-.512.768-.936 1.032-.424.256-.928.384-1.512.384Zm0-5.676c-.264 0-.504.048-.72.144a1.608 1.608 0 0 0-.564.384 2.019 2.019 0 0 0-.492 1.344v.084h3.42v-.132c0-.552-.152-.992-.456-1.32-.296-.336-.692-.504-1.188-.504ZM139.016 9.144a2.82 2.82 0 0 1-1.152-.228 2.578 2.578 0 0 1-.876-.648 3.228 3.228 0 0 1-.564-1.02 4.398 4.398 0 0 1-.192-1.344c0-.488.064-.932.192-1.332.136-.4.324-.74.564-1.02.248-.288.54-.508.876-.66a2.82 2.82 0 0 1 1.152-.228c.416 0 .788.076 1.116.228.328.152.608.364.84.636.232.264.408.58.528.948.128.368.192.772.192 1.212v.456h-4.452v.288c0 .264.04.512.12.744.088.224.208.42.36.588.16.168.352.3.576.396.232.096.492.144.78.144.392 0 .732-.092 1.02-.276.296-.184.524-.448.684-.792l.684.492c-.2.424-.512.768-.936 1.032-.424.256-.928.384-1.512.384Zm0-5.676c-.264 0-.504.048-.72.144a1.608 1.608 0 0 0-.564.384 2.019 2.019 0 0 0-.492 1.344v.084h3.42v-.132c0-.552-.152-.992-.456-1.32-.296-.336-.692-.504-1.188-.504ZM129.868 9V2.808h.96v1.008h.048c.152-.352.364-.632.636-.84.28-.208.652-.312 1.116-.312.64 0 1.144.208 1.512.624.376.408.564.988.564 1.74V9h-.96V5.196c0-1.112-.468-1.668-1.404-1.668-.192 0-.38.024-.564.072-.176.048-.336.12-.48.216-.144.096-.26.22-.348.372-.08.144-.12.316-.12.516V9h-.96ZM127.348 1.356c-.208 0-.36-.048-.456-.144a.592.592 0 0 1-.132-.396V.66c0-.16.044-.288.132-.384.096-.104.248-.156.456-.156.208 0 .356.052.444.156a.519.519 0 0 1 .144.384v.156c0 .16-.048.292-.144.396-.088.096-.236.144-.444.144Zm-.48 1.452h.96V9h-.96V2.808ZM125.748 9.684c0 .64-.252 1.108-.756 1.404-.496.304-1.244.456-2.244.456-.968 0-1.664-.132-2.088-.396-.424-.264-.636-.64-.636-1.128 0-.336.088-.6.264-.792.176-.184.416-.32.72-.408v-.132c-.368-.176-.552-.464-.552-.864 0-.312.1-.548.3-.708.2-.168.456-.292.768-.372v-.048a2.04 2.04 0 0 1-.864-.756c-.2-.328-.3-.708-.3-1.14 0-.312.056-.6.168-.864.112-.264.268-.488.468-.672a2.19 2.19 0 0 1 .732-.444 2.81 2.81 0 0 1 .96-.156c.44 0 .832.08 1.176.24v-.108c0-.24.056-.436.168-.588.112-.16.296-.24.552-.24h.924v.84h-1.176v.396c.224.192.396.424.516.696.128.264.192.564.192.9 0 .312-.056.6-.168.864a1.963 1.963 0 0 1-.48.684c-.2.184-.444.328-.732.432a3.053 3.053 0 0 1-1.56.096c-.208.056-.396.14-.564.252a.494.494 0 0 0-.252.444c0 .184.088.308.264.372.176.064.404.096.684.096h1.32c.768 0 1.324.148 1.668.444.352.288.528.688.528 1.2Zm-.9.072a.728.728 0 0 0-.288-.6c-.184-.144-.516-.216-.996-.216H121.5c-.384.176-.576.456-.576.84 0 .272.1.504.3.696.208.192.556.288 1.044.288h.888c.536 0 .952-.084 1.248-.252a.817.817 0 0 0 .444-.756ZM122.7 6.168c.408 0 .732-.096.972-.288.24-.2.36-.504.36-.912v-.336c0-.408-.12-.708-.36-.9-.24-.2-.564-.3-.972-.3-.408 0-.732.1-.972.3-.24.192-.36.492-.36.9v.336c0 .408.12.712.36.912.24.192.564.288.972.288ZM113.708 9V2.808h.96v1.008h.048c.152-.352.364-.632.636-.84.28-.208.652-.312 1.116-.312.64 0 1.144.208 1.512.624.376.408.564.988.564 1.74V9h-.96V5.196c0-1.112-.468-1.668-1.404-1.668-.192 0-.38.024-.564.072-.176.048-.336.12-.48.216-.144.096-.26.22-.348.372-.08.144-.12.316-.12.516V9h-.96ZM106.807 9V.624h5.112v.888h-4.104V4.32h3.864v.888h-3.864v2.904h4.104V9h-5.112ZM99.47 9V2.808h.959v1.14h.06a1.87 1.87 0 0 1 .6-.792c.288-.232.684-.348 1.188-.348h.372v.96h-.564c-.52 0-.928.1-1.224.3-.288.192-.432.436-.432.732V9h-.96ZM95.211 9.144a2.82 2.82 0 0 1-1.152-.228 2.578 2.578 0 0 1-.876-.648 3.228 3.228 0 0 1-.564-1.02 4.398 4.398 0 0 1-.192-1.344c0-.488.064-.932.192-1.332.136-.4.324-.74.564-1.02.248-.288.54-.508.876-.66a2.82 2.82 0 0 1 1.152-.228c.416 0 .788.076 1.116.228.328.152.608.364.84.636.232.264.408.58.528.948.128.368.192.772.192 1.212v.456h-4.452v.288c0 .264.04.512.12.744.088.224.208.42.36.588.16.168.352.3.576.396.232.096.492.144.78.144.392 0 .732-.092 1.02-.276.296-.184.524-.448.684-.792l.684.492c-.2.424-.512.768-.936 1.032-.424.256-.928.384-1.512.384Zm0-5.676c-.264 0-.504.048-.72.144a1.608 1.608 0 0 0-.564.384 2.019 2.019 0 0 0-.492 1.344v.084h3.42v-.132c0-.552-.152-.992-.456-1.32-.296-.336-.692-.504-1.188-.504ZM90.091 9c-.336 0-.592-.092-.768-.276-.168-.192-.252-.44-.252-.744V3.648h-1.02v-.84h.576c.208 0 .348-.04.42-.12.08-.088.12-.236.12-.444V1.092h.864v1.716h1.356v.84h-1.356V8.16h1.26V9h-1.2ZM85.719 7.992h-.048a2.914 2.914 0 0 1-.24.432c-.088.136-.2.26-.336.372-.136.104-.3.188-.492.252a2.127 2.127 0 0 1-.672.096c-.64 0-1.148-.204-1.524-.612-.376-.416-.564-1-.564-1.752V2.808h.96v3.804c0 1.112.472 1.668 1.416 1.668.192 0 .376-.024.552-.072.184-.048.344-.12.48-.216a1.031 1.031 0 0 0 .468-.9V2.808h.96V9h-.96V7.992ZM74.942 2.808h.96v1.008h.048c.16-.392.392-.68.696-.864.312-.192.684-.288 1.116-.288.384 0 .732.076 1.044.228.312.152.576.368.792.648.224.28.392.62.504 1.02.12.4.18.848.18 1.344 0 .496-.06.944-.18 1.344-.112.4-.28.74-.504 1.02-.216.28-.48.496-.792.648-.312.152-.66.228-1.044.228-.84 0-1.444-.384-1.812-1.152h-.048V11.4h-.96V2.808Zm2.556 5.472c.544 0 .972-.168 1.284-.504.312-.344.468-.792.468-1.344V5.376c0-.552-.156-.996-.468-1.332-.312-.344-.74-.516-1.284-.516-.216 0-.424.032-.624.096-.192.056-.36.136-.504.24-.144.104-.26.232-.348.384-.08.144-.12.3-.12.468V7.02c0 .2.04.38.12.54.088.152.204.284.348.396.144.104.312.184.504.24.2.056.408.084.624.084ZM64.465 9V2.808h.96v1.008h.048c.072-.16.152-.308.24-.444.096-.144.208-.268.336-.372.136-.104.292-.184.468-.24.176-.064.384-.096.624-.096.408 0 .784.1 1.128.3.344.192.6.512.768.96h.024c.112-.336.32-.628.624-.876.312-.256.732-.384 1.26-.384.632 0 1.124.208 1.476.624.36.408.54.988.54 1.74V9h-.96V5.196c0-.552-.108-.968-.324-1.248-.216-.28-.56-.42-1.032-.42-.192 0-.376.024-.552.072-.168.048-.32.12-.456.216s-.244.22-.324.372c-.08.144-.12.316-.12.516V9h-.96V5.196c0-.552-.108-.968-.324-1.248-.216-.28-.552-.42-1.008-.42-.192 0-.376.024-.552.072-.176.048-.332.12-.468.216s-.248.22-.336.372c-.08.144-.12.316-.12.516V9h-.96ZM60.09 9.144a2.79 2.79 0 0 1-1.14-.228 2.548 2.548 0 0 1-.888-.648 3.228 3.228 0 0 1-.564-1.02 4.159 4.159 0 0 1-.204-1.344c0-.488.068-.932.204-1.332.136-.4.324-.74.564-1.02.248-.288.544-.508.888-.66a2.79 2.79 0 0 1 1.14-.228c.416 0 .792.076 1.128.228.344.152.64.372.888.66.248.28.44.62.576 1.02.136.4.204.844.204 1.332 0 .496-.068.944-.204 1.344a3.103 3.103 0 0 1-.576 1.02c-.248.28-.544.496-.888.648a2.706 2.706 0 0 1-1.128.228Zm0-.852c.52 0 .944-.16 1.272-.48.328-.32.492-.808.492-1.464V5.46c0-.656-.164-1.144-.492-1.464-.328-.32-.752-.48-1.272-.48s-.944.16-1.272.48c-.328.32-.492.808-.492 1.464v.888c0 .656.164 1.144.492 1.464.328.32.752.48 1.272.48ZM53.345 9.144c-1.064 0-1.892-.36-2.484-1.08-.592-.728-.888-1.796-.888-3.204 0-1.408.296-2.488.888-3.24.592-.76 1.42-1.14 2.484-1.14.704 0 1.292.16 1.764.48.48.32.852.772 1.116 1.356l-.816.492a2.285 2.285 0 0 0-.768-1.032c-.344-.264-.776-.396-1.296-.396-.36 0-.684.068-.972.204-.28.136-.52.332-.72.588-.192.248-.34.548-.444.9a4.019 4.019 0 0 0-.156 1.164v1.248c0 .864.2 1.54.6 2.028.4.488.964.732 1.692.732.536 0 .984-.136 1.344-.408.36-.28.624-.648.792-1.104l.804.504a3.303 3.303 0 0 1-1.14 1.404c-.496.336-1.096.504-1.8.504ZM45.222 1.512H41.55l-.24 3.192h.084c.2-.28.424-.504.672-.672.256-.168.604-.252 1.044-.252.36 0 .692.06.996.18.304.12.568.292.792.516.224.216.396.484.516.804.128.32.192.684.192 1.092 0 .408-.064.784-.192 1.128a2.464 2.464 0 0 1-.564.876c-.24.24-.536.428-.888.564a3.18 3.18 0 0 1-1.176.204c-.352 0-.664-.04-.936-.12-.264-.08-.5-.188-.708-.324a3.103 3.103 0 0 1-.552-.456 5.284 5.284 0 0 1-.42-.528l.756-.576c.104.168.212.32.324.456.12.136.248.252.384.348.144.096.308.172.492.228.184.048.404.072.66.072.576 0 1.012-.152 1.308-.456.296-.304.444-.732.444-1.284v-.12c0-.552-.148-.98-.444-1.284-.296-.304-.732-.456-1.308-.456-.384 0-.688.072-.912.216-.216.136-.412.3-.588.492l-.852-.12.3-4.608h4.488v.888ZM35.663 9.144a3.08 3.08 0 0 1-1.176-.216 2.62 2.62 0 0 1-.888-.636c-.24-.28-.424-.62-.552-1.02a4.398 4.398 0 0 1-.192-1.344c0-.624.092-1.208.276-1.752.184-.552.42-1.052.708-1.5a6.99 6.99 0 0 1 .972-1.2 6.303 6.303 0 0 1 1.032-.852h1.296c-.448.328-.848.648-1.2.96a7.07 7.07 0 0 0-.924.984 5.64 5.64 0 0 0-.672 1.092c-.184.384-.332.82-.444 1.308l.06.024c.2-.344.456-.628.768-.852.32-.232.736-.348 1.248-.348.36 0 .692.06.996.18.304.12.564.292.78.516.216.224.384.496.504.816.128.32.192.676.192 1.068 0 .408-.068.784-.204 1.128a2.464 2.464 0 0 1-.564.876c-.24.24-.532.428-.876.564a3.075 3.075 0 0 1-1.14.204Zm-.012-.876c.552 0 .98-.152 1.284-.456.312-.304.468-.74.468-1.308v-.096c0-.568-.156-1.004-.468-1.308-.304-.304-.732-.456-1.284-.456s-.984.152-1.296.456c-.304.304-.456.74-.456 1.308v.096c0 .568.152 1.004.456 1.308.312.304.744.456 1.296.456ZM26.956 9l3.204-7.512h-3.576v1.56h-.9V.624h5.496v.888L28.036 9h-1.08ZM23.218 7.596c.256 0 .44.068.552.204.12.128.18.296.18.504v.168c0 .328-.096.688-.288 1.08-.192.4-.46.748-.804 1.044h-.804c.24-.256.432-.5.576-.732a2.21 2.21 0 0 0 .324-.756.602.602 0 0 1-.36-.228.739.739 0 0 1-.108-.408v-.168c0-.208.056-.376.168-.504.12-.136.308-.204.564-.204ZM20.787 9H15.29V7.968l2.736-2.52c.392-.36.72-.74.984-1.14.264-.408.396-.816.396-1.224V2.94c0-.464-.128-.84-.384-1.128-.256-.288-.644-.432-1.164-.432-.256 0-.48.036-.672.108-.192.072-.36.172-.504.3-.136.128-.252.28-.348.456-.088.168-.16.352-.216.552l-.9-.348a3.61 3.61 0 0 1 .324-.72c.144-.24.32-.452.528-.636.216-.184.472-.332.768-.444.304-.112.66-.168 1.068-.168.408 0 .772.06 1.092.18.32.12.588.288.804.504.216.216.38.472.492.768.12.296.18.624.18.984 0 .328-.048.632-.144.912-.088.28-.212.548-.372.804-.16.248-.356.492-.588.732-.224.24-.468.48-.732.72l-2.256 2.028h4.404V9ZM11.695 9V7.356H7.651v-.888L11.155.624h1.5v5.892h1.212v.84h-1.212V9h-.96ZM8.6 6.516h3.096V1.404h-.06L8.6 6.516ZM1.056 9v-.888h2.34V1.368h-.084L1.2 3.336.612 2.7 2.832.624h1.572v7.488h2.16V9H1.056Z" fill="#fff"/></svg>