<svg width="59" height="10" fill="none" xmlns="http://www.w3.org/2000/svg"><path d="M55.662 9.144c-.592 0-1.088-.104-1.488-.312a3.264 3.264 0 0 1-1.044-.864l.84-.768c.232.28.488.5.768.66.288.152.62.228.996.228.384 0 .668-.072.852-.216a.753.753 0 0 0 .288-.624c0-.2-.068-.368-.204-.504-.128-.144-.356-.236-.684-.276l-.576-.072c-.64-.08-1.144-.264-1.512-.552-.36-.296-.54-.732-.54-1.308 0-.304.056-.572.168-.804.112-.24.268-.44.468-.6.208-.168.452-.296.732-.384.288-.088.604-.132.948-.132.56 0 1.016.088 1.368.264.36.176.68.42.96.732l-.804.768a2.013 2.013 0 0 0-.636-.492 1.78 1.78 0 0 0-.888-.216c-.36 0-.628.072-.804.216a.707.707 0 0 0-.252.564c0 .24.076.42.228.54.152.12.396.208.732.264l.576.072c.688.104 1.188.308 1.5.612.32.296.48.696.48 1.2 0 .304-.06.58-.18.828-.112.24-.276.448-.492.624a2.331 2.331 0 0 1-.78.408 3.379 3.379 0 0 1-1.02.144ZM43.507 2.76h1.272l.636 2.616.564 2.364h.036l.648-2.364.756-2.616h1.176l.768 2.616.66 2.364h.036l.552-2.364.648-2.616h1.212L50.791 9h-1.476L48.5 6.156l-.504-1.752h-.024l-.492 1.752L46.651 9h-1.44l-1.704-6.24ZM39.97 9.144a3 3 0 0 1-1.2-.228 2.52 2.52 0 0 1-.9-.648 3.082 3.082 0 0 1-.576-1.032 4.515 4.515 0 0 1-.192-1.356c0-.496.064-.944.192-1.344.136-.408.328-.752.576-1.032.248-.288.548-.508.9-.66a3 3 0 0 1 1.2-.228c.456 0 .856.08 1.2.24.352.16.644.384.876.672.232.28.404.608.516.984.12.376.18.78.18 1.212v.492h-4.284v.204c0 .48.14.876.42 1.188.288.304.696.456 1.224.456.384 0 .708-.084.972-.252.264-.168.488-.396.672-.684l.768.756a2.513 2.513 0 0 1-1.008.924c-.44.224-.952.336-1.536.336Zm0-5.508c-.224 0-.432.04-.624.12-.184.08-.344.192-.48.336a1.564 1.564 0 0 0-.3.516c-.072.2-.108.42-.108.66v.084h2.904v-.12c0-.48-.124-.864-.372-1.152-.248-.296-.588-.444-1.02-.444ZM35.006 1.644c-.272 0-.472-.064-.6-.192a.69.69 0 0 1-.18-.492V.756c0-.2.06-.364.18-.492.128-.128.328-.192.6-.192.272 0 .468.064.588.192a.69.69 0 0 1 .18.492V.96c0 .2-.06.364-.18.492s-.316.192-.588.192Zm-.66 1.116h1.308V9h-1.308V2.76ZM29.561 9l-2.124-6.24h1.296l.948 2.844.636 2.184h.072l.636-2.184.972-2.844h1.248L31.097 9h-1.536ZM18.807.12h1.308v5.448h.06l.864-1.116 1.5-1.692h1.524l-2.184 2.412L24.327 9h-1.56l-1.788-2.976-.864.936V9h-1.308V.12ZM12.728 9l3.036-7.26h-3.168v1.548h-1.164V.624h5.676V1.8L14.156 9h-1.428ZM8.935 9.144c-.296 0-.516-.076-.66-.228a.847.847 0 0 1-.216-.588v-.18c0-.232.072-.424.216-.576.144-.16.364-.24.66-.24.296 0 .516.08.66.24a.804.804 0 0 1 .216.576v.18a.847.847 0 0 1-.216.588c-.144.152-.364.228-.66.228ZM1.056 9V7.872h2.352V1.608h-.096L1.368 3.684.54 2.94 2.676.624H4.74v7.248h2.04V9H1.056Z" fill="#495057"/></svg>