<svg width="56" height="10" fill="none" xmlns="http://www.w3.org/2000/svg"><path d="M52.815 9.144c-.593 0-1.088-.104-1.488-.312a3.264 3.264 0 0 1-1.044-.864l.84-.768c.232.28.488.5.768.66.288.152.62.228.995.228.384 0 .668-.072.852-.216a.753.753 0 0 0 .288-.624c0-.2-.068-.368-.204-.504-.128-.144-.355-.236-.684-.276l-.575-.072c-.64-.08-1.145-.264-1.513-.552-.36-.296-.54-.732-.54-1.308 0-.304.056-.572.169-.804.111-.24.267-.44.468-.6.208-.168.452-.296.732-.384.288-.088.604-.132.948-.132.56 0 1.016.088 1.367.264.36.176.68.42.96.732l-.804.768a2.013 2.013 0 0 0-.636-.492 1.78 1.78 0 0 0-.887-.216c-.36 0-.628.072-.804.216a.707.707 0 0 0-.253.564c0 .24.076.42.228.54.153.12.397.208.733.264l.575.072c.689.104 1.189.308 1.5.612.32.296.48.696.48 1.2 0 .304-.06.58-.18.828-.111.24-.276.448-.492.624a2.331 2.331 0 0 1-.78.408 3.379 3.379 0 0 1-1.02.144ZM40.66 2.76h1.272l.636 2.616.564 2.364h.036l.648-2.364.756-2.616h1.176l.768 2.616.66 2.364h.036l.552-2.364.648-2.616h1.212L47.944 9h-1.476l-.816-2.844-.504-1.752h-.024l-.492 1.752L43.804 9h-1.44L40.66 2.76ZM37.122 9.144a3 3 0 0 1-1.2-.228 2.52 2.52 0 0 1-.9-.648 3.082 3.082 0 0 1-.576-1.032 4.515 4.515 0 0 1-.192-1.356c0-.496.064-.944.192-1.344.136-.408.328-.752.576-1.032.248-.288.548-.508.9-.66a3 3 0 0 1 1.2-.228c.456 0 .856.08 1.2.24.352.16.644.384.876.672.232.28.404.608.516.984.12.376.18.78.18 1.212v.492H35.61v.204c0 .48.14.876.42 1.188.288.304.696.456 1.224.456.384 0 .708-.084.972-.252.264-.168.488-.396.672-.684l.768.756a2.513 2.513 0 0 1-1.008.924c-.44.224-.952.336-1.536.336Zm0-5.508c-.224 0-.432.04-.624.12-.184.08-.344.192-.48.336a1.564 1.564 0 0 0-.3.516c-.072.2-.108.42-.108.66v.084h2.904v-.12c0-.48-.124-.864-.372-1.152-.248-.296-.588-.444-1.02-.444ZM32.159 1.644c-.272 0-.472-.064-.6-.192a.69.69 0 0 1-.18-.492V.756c0-.2.06-.364.18-.492.128-.128.328-.192.6-.192.272 0 .468.064.588.192a.69.69 0 0 1 .18.492V.96c0 .2-.06.364-.18.492s-.316.192-.588.192Zm-.66 1.116h1.308V9h-1.308V2.76ZM26.714 9 24.59 2.76h1.296l.948 2.844.636 2.184h.072l.636-2.184.972-2.844h1.248L28.25 9h-1.536ZM17.99 9.144c-.52 0-.971-.096-1.355-.288a2.55 2.55 0 0 1-.948-.852c-.248-.368-.432-.82-.552-1.356a8.448 8.448 0 0 1-.18-1.836c0-.68.06-1.288.18-1.824.12-.544.304-1 .552-1.368.248-.368.564-.648.948-.84.384-.2.836-.3 1.356-.3 1.04 0 1.804.38 2.292 1.14.496.76.744 1.824.744 3.192s-.248 2.432-.744 3.192c-.488.76-1.252 1.14-2.292 1.14Zm0-1.152c.289 0 .533-.056.733-.168.208-.12.376-.288.504-.504.128-.216.22-.472.276-.768a5.58 5.58 0 0 0 .084-1.008V4.08c0-.368-.028-.7-.084-.996a2.359 2.359 0 0 0-.276-.78 1.293 1.293 0 0 0-.504-.492c-.2-.12-.444-.18-.732-.18s-.536.06-.744.18a1.32 1.32 0 0 0-.492.492c-.128.216-.22.476-.276.78a5.382 5.382 0 0 0-.084.996v1.464c0 .368.028.704.084 1.008.056.296.148.552.276.768.128.216.292.384.492.504.208.112.456.168.744.168ZM10.796 9.144c-.52 0-.972-.096-1.356-.288a2.55 2.55 0 0 1-.948-.852c-.248-.368-.432-.82-.552-1.356a8.448 8.448 0 0 1-.18-1.836c0-.68.06-1.288.18-1.824.12-.544.304-1 .552-1.368.248-.368.564-.648.948-.84.384-.2.835-.3 1.356-.3 1.04 0 1.804.38 2.292 1.14.496.76.744 1.824.744 3.192s-.248 2.432-.745 3.192c-.487.76-1.252 1.14-2.291 1.14Zm0-1.152c.288 0 .532-.056.732-.168.207-.12.375-.288.503-.504.128-.216.22-.472.276-.768a5.58 5.58 0 0 0 .085-1.008V4.08c0-.368-.028-.7-.085-.996a2.359 2.359 0 0 0-.276-.78 1.293 1.293 0 0 0-.504-.492c-.2-.12-.443-.18-.731-.18s-.537.06-.744.18a1.32 1.32 0 0 0-.492.492c-.128.216-.22.476-.276.78a5.382 5.382 0 0 0-.084.996v1.464c0 .368.028.704.084 1.008.056.296.148.552.276.768.128.216.292.384.492.504.207.112.456.168.744.168ZM3.6 9.144c-.488 0-.92-.06-1.296-.18-.368-.128-.68-.3-.936-.516a2.258 2.258 0 0 1-.576-.768A2.392 2.392 0 0 1 .6 6.72c0-.56.152-1.008.456-1.344.312-.344.72-.584 1.224-.72V4.56a2.275 2.275 0 0 1-1.044-.72C.98 3.512.852 3.108.852 2.628c0-.32.06-.612.18-.876.128-.264.308-.488.54-.672.232-.192.52-.34.864-.444A4.019 4.019 0 0 1 3.6.48c.432 0 .82.052 1.164.156.344.104.632.252.864.444.232.184.408.408.528.672.128.264.192.556.192.876 0 .48-.132.884-.396 1.212-.256.328-.6.568-1.032.72v.096c.504.136.908.376 1.212.72.312.336.468.784.468 1.344 0 .344-.068.664-.204.96a2.07 2.07 0 0 1-.576.768c-.248.216-.56.388-.936.516-.368.12-.796.18-1.284.18Zm0-1.092c.504 0 .892-.116 1.164-.348.28-.232.42-.556.42-.972v-.24c0-.416-.14-.74-.42-.972-.272-.232-.66-.348-1.164-.348-.504 0-.896.116-1.176.348-.272.232-.408.556-.408.972v.24c0 .416.136.74.408.972.28.232.672.348 1.176.348Zm0-3.924c.464 0 .816-.1 1.056-.3.248-.2.372-.492.372-.876v-.204c0-.384-.124-.676-.372-.876-.24-.2-.592-.3-1.056-.3-.464 0-.82.1-1.068.3-.24.2-.36.492-.36.876v.204c0 .384.12.676.36.876.248.2.604.3 1.068.3Z" fill="#495057"/></svg>