<svg width="22" height="22" fill="none" xmlns="http://www.w3.org/2000/svg"><g clip-path="url('#clip0_1_859')"><path d="M7.333 9.167h-2.75v-2.75H2.75v2.75H0V11h2.75v2.75h1.833V11h2.75V9.167Zm9.167.916a2.738 2.738 0 0 0 2.74-2.75 2.738 2.738 0 0 0-3.574-2.621c.522.742.825 1.64.825 2.621 0 .981-.312 1.87-.825 2.622.256.082.54.128.834.128Zm-4.583 0a2.739 2.739 0 0 0 2.74-2.75c0-1.521-1.219-2.75-2.74-2.75a2.746 2.746 0 0 0-2.75 2.75 2.746 2.746 0 0 0 2.75 2.75Zm6.068 1.98c.76.67 1.265 1.522 1.265 2.604V16.5H22v-1.833c0-1.412-2.172-2.283-4.015-2.604Zm-6.068-.146c-1.834 0-5.5.916-5.5 2.75V16.5h11v-1.833c0-1.834-3.667-2.75-5.5-2.75Z" fill="#fff"/></g><defs><clipPath id="clip0_1_859"><path fill="#fff" d="M0 0h22v22H0z"/></clipPath></defs></svg>