<svg width="179" height="17" fill="none" xmlns="http://www.w3.org/2000/svg"><path d="M178.422 13.646c0 .476-.085.895-.255 1.258-.158.363-.425.669-.799.918-.374.26-.872.453-1.496.578-.612.136-1.371.204-2.278.204-.77 0-1.428-.051-1.972-.153-.532-.09-.969-.227-1.309-.408-.328-.17-.572-.385-.731-.646a1.675 1.675 0 0 1-.221-.867c0-.499.148-.89.442-1.173.295-.283.703-.46 1.224-.527v-.187c-.43-.08-.753-.26-.969-.544a1.686 1.686 0 0 1-.323-1.02c0-.238.046-.442.136-.612.102-.181.227-.334.374-.46.159-.135.34-.243.544-.322.204-.08.408-.142.612-.187V9.43c-.544-.25-.946-.59-1.207-1.02-.26-.442-.391-.952-.391-1.53 0-.907.312-1.632.935-2.176.635-.555 1.598-.833 2.89-.833.59 0 1.094.057 1.513.17V3.7c0-.476.114-.816.34-1.02.238-.215.573-.323 1.003-.323h1.411v1.87h-1.972v.102c.522.25.907.595 1.156 1.037.25.43.374.935.374 1.513 0 .895-.317 1.615-.952 2.159-.623.533-1.581.799-2.873.799a6.237 6.237 0 0 1-1.581-.187.808.808 0 0 0-.391.714c0 .215.08.385.238.51.17.113.448.17.833.17h2.584c1.088 0 1.876.227 2.363.68.499.453.748 1.094.748 1.92Zm-2.363.34a.67.67 0 0 0-.306-.595c-.204-.136-.561-.204-1.071-.204h-3.06a1.167 1.167 0 0 0-.255.374 1.454 1.454 0 0 0-.068.425c0 .329.142.567.425.714.284.159.765.238 1.445.238h1.02c.68 0 1.162-.08 1.445-.238.284-.147.425-.385.425-.714Zm-2.431-5.797c.499 0 .867-.102 1.105-.306.25-.215.374-.521.374-.918V6.76c0-.397-.124-.697-.374-.901-.238-.215-.606-.323-1.105-.323-.498 0-.872.108-1.122.323-.238.204-.357.504-.357.9v.205c0 .397.119.703.357.918.25.204.624.306 1.122.306ZM160.033 13V4.075h2.516v1.513h.102c.159-.465.437-.867.833-1.207.397-.34.947-.51 1.649-.51.918 0 1.61.306 2.074.918.476.612.714 1.485.714 2.618V13h-2.516V7.611c0-.578-.09-1.003-.272-1.275-.181-.283-.504-.425-.969-.425a2.1 2.1 0 0 0-.595.085 1.49 1.49 0 0 0-.527.238 1.31 1.31 0 0 0-.357.425c-.09.159-.136.346-.136.561V13h-2.516ZM156.427 3.123c-.51 0-.884-.113-1.122-.34-.227-.238-.34-.538-.34-.901v-.374c0-.363.113-.657.34-.884.238-.238.612-.357 1.122-.357.51 0 .878.119 1.105.357.238.227.357.521.357.884v.374c0 .363-.119.663-.357.901-.227.227-.595.34-1.105.34Zm-1.258.952h2.516V13h-2.516V4.075ZM148.296 13V4.075h2.516v1.938h.085c.045-.25.125-.487.238-.714a2.25 2.25 0 0 1 .442-.63c.193-.18.419-.322.68-.424a2.29 2.29 0 0 1 .918-.17h.442v2.346h-.629c-.737 0-1.286.096-1.649.289-.351.193-.527.55-.527 1.07V13h-2.516ZM142.473 13.204c-.68 0-1.286-.108-1.819-.323a3.998 3.998 0 0 1-1.36-.935 4.203 4.203 0 0 1-.833-1.479 6.47 6.47 0 0 1-.272-1.938c0-.703.091-1.337.272-1.904a4.144 4.144 0 0 1 .799-1.479c.363-.408.805-.72 1.326-.935.522-.227 1.117-.34 1.785-.34.737 0 1.366.125 1.887.374.533.25.964.584 1.292 1.003.34.42.584.907.731 1.462a6.09 6.09 0 0 1 .238 1.717v.748h-5.729v.136c0 .59.159 1.06.476 1.411.318.34.816.51 1.496.51.522 0 .947-.102 1.275-.306.329-.215.635-.47.918-.765l1.258 1.564c-.396.465-.918.827-1.564 1.088-.634.26-1.36.391-2.176.391Zm-.051-7.48c-.51 0-.912.17-1.207.51-.283.329-.425.77-.425 1.326v.136h3.128v-.153c0-.544-.124-.98-.374-1.309-.238-.34-.612-.51-1.122-.51ZM132.927 13.204c-.68 0-1.286-.108-1.819-.323a3.998 3.998 0 0 1-1.36-.935 4.203 4.203 0 0 1-.833-1.479 6.47 6.47 0 0 1-.272-1.938c0-.703.091-1.337.272-1.904a4.144 4.144 0 0 1 .799-1.479c.363-.408.805-.72 1.326-.935.522-.227 1.117-.34 1.785-.34.737 0 1.366.125 1.887.374.533.25.964.584 1.292 1.003.34.42.584.907.731 1.462a6.09 6.09 0 0 1 .238 1.717v.748h-5.729v.136c0 .59.159 1.06.476 1.411.318.34.816.51 1.496.51.522 0 .947-.102 1.275-.306.329-.215.635-.47.918-.765l1.258 1.564c-.396.465-.918.827-1.564 1.088-.634.26-1.36.391-2.176.391Zm-.051-7.48c-.51 0-.912.17-1.207.51-.283.329-.425.77-.425 1.326v.136h3.128v-.153c0-.544-.124-.98-.374-1.309-.238-.34-.612-.51-1.122-.51ZM119.077 13V4.075h2.516v1.513h.102c.159-.465.437-.867.833-1.207.397-.34.947-.51 1.649-.51.918 0 1.61.306 2.074.918.476.612.714 1.485.714 2.618V13h-2.516V7.611c0-.578-.09-1.003-.272-1.275-.181-.283-.504-.425-.969-.425a2.1 2.1 0 0 0-.595.085 1.49 1.49 0 0 0-.527.238 1.31 1.31 0 0 0-.357.425c-.09.159-.136.346-.136.561V13h-2.516ZM115.471 3.123c-.51 0-.884-.113-1.122-.34-.227-.238-.34-.538-.34-.901v-.374c0-.363.113-.657.34-.884.238-.238.612-.357 1.122-.357.51 0 .878.119 1.105.357.238.227.357.521.357.884v.374c0 .363-.119.663-.357.901-.227.227-.595.34-1.105.34Zm-1.258.952h2.516V13h-2.516V4.075ZM113.095 13.646c0 .476-.085.895-.255 1.258-.158.363-.425.669-.799.918-.374.26-.872.453-1.496.578-.612.136-1.371.204-2.278.204-.77 0-1.428-.051-1.972-.153-.532-.09-.969-.227-1.309-.408-.328-.17-.572-.385-.731-.646a1.675 1.675 0 0 1-.221-.867c0-.499.148-.89.442-1.173.295-.283.703-.46 1.224-.527v-.187c-.43-.08-.753-.26-.969-.544a1.686 1.686 0 0 1-.323-1.02c0-.238.046-.442.136-.612.102-.181.227-.334.374-.46.159-.135.34-.243.544-.322.204-.08.408-.142.612-.187V9.43c-.544-.25-.946-.59-1.207-1.02-.26-.442-.391-.952-.391-1.53 0-.907.312-1.632.935-2.176.635-.555 1.598-.833 2.89-.833.59 0 1.094.057 1.513.17V3.7c0-.476.114-.816.34-1.02.238-.215.573-.323 1.003-.323h1.411v1.87h-1.972v.102c.522.25.907.595 1.156 1.037.25.43.374.935.374 1.513 0 .895-.317 1.615-.952 2.159-.623.533-1.581.799-2.873.799a6.237 6.237 0 0 1-1.581-.187.808.808 0 0 0-.391.714c0 .215.08.385.238.51.17.113.448.17.833.17h2.584c1.088 0 1.876.227 2.363.68.499.453.748 1.094.748 1.92Zm-2.363.34a.67.67 0 0 0-.306-.595c-.204-.136-.561-.204-1.071-.204h-3.06a1.167 1.167 0 0 0-.255.374 1.454 1.454 0 0 0-.068.425c0 .329.142.567.425.714.284.159.765.238 1.445.238h1.02c.68 0 1.162-.08 1.445-.238.284-.147.425-.385.425-.714Zm-2.431-5.797c.499 0 .867-.102 1.105-.306.25-.215.374-.521.374-.918V6.76c0-.397-.124-.697-.374-.901-.238-.215-.606-.323-1.105-.323-.498 0-.872.108-1.122.323-.238.204-.357.504-.357.9v.205c0 .397.119.703.357.918.25.204.624.306 1.122.306ZM94.706 13V4.075h2.516v1.513h.102c.159-.465.437-.867.833-1.207.397-.34.947-.51 1.65-.51.917 0 1.609.306 2.073.918.476.612.714 1.485.714 2.618V13h-2.516V7.611c0-.578-.09-1.003-.272-1.275-.181-.283-.504-.425-.969-.425-.204 0-.402.028-.595.085a1.481 1.481 0 0 0-.527.238 1.302 1.302 0 0 0-.357.425c-.09.159-.136.346-.136.561V13h-2.516ZM84.516 13V1.134h8.075v2.295h-5.49V5.86h4.708v2.278H87.1v2.567h5.491V13h-8.075ZM73.49 13V4.075h2.516v1.938h.085c.045-.25.124-.487.238-.714a2.25 2.25 0 0 1 .442-.63c.192-.18.419-.322.68-.424.26-.113.566-.17.918-.17h.442v2.346h-.63c-.736 0-1.286.096-1.648.289-.352.193-.528.55-.528 1.07V13H73.49ZM67.667 13.204c-.68 0-1.287-.108-1.82-.323a3.991 3.991 0 0 1-1.36-.935 4.186 4.186 0 0 1-.832-1.479 6.456 6.456 0 0 1-.272-1.938c0-.703.09-1.337.272-1.904a4.127 4.127 0 0 1 .799-1.479 3.57 3.57 0 0 1 1.326-.935c.52-.227 1.116-.34 1.785-.34.736 0 1.365.125 1.887.374.532.25.963.584 1.292 1.003.34.42.583.907.73 1.462.16.544.239 1.116.239 1.717v.748h-5.73v.136c0 .59.16 1.06.477 1.411.317.34.816.51 1.496.51.52 0 .946-.102 1.275-.306.328-.215.634-.47.918-.765l1.258 1.564c-.397.465-.918.827-1.564 1.088-.635.26-1.36.391-2.176.391Zm-.051-7.48c-.51 0-.913.17-1.207.51-.284.329-.425.77-.425 1.326v.136h3.128v-.153c0-.544-.125-.98-.374-1.309-.238-.34-.612-.51-1.122-.51ZM60.63 13c-.873 0-1.536-.221-1.989-.663-.442-.442-.663-1.088-.663-1.938V6.03H56.72V4.075h.63c.34 0 .572-.08.696-.238.125-.17.187-.408.187-.714V1.661h2.261v2.414h1.768V6.03h-1.768v5.015h1.632V13H60.63ZM52.645 11.504h-.085a2.87 2.87 0 0 1-.323.646 2.03 2.03 0 0 1-.493.544 2.342 2.342 0 0 1-.73.374c-.273.09-.59.136-.953.136-.918 0-1.615-.3-2.09-.901-.465-.612-.698-1.485-.698-2.618v-5.61h2.516v5.389c0 .544.096.963.29 1.258.192.295.52.442.985.442.193 0 .386-.028.578-.085.193-.057.363-.136.51-.238.148-.113.267-.25.357-.408.09-.159.136-.346.136-.561V4.075h2.516V13h-2.516v-1.496ZM37.032 4.075h2.517v1.496h.084a2.1 2.1 0 0 1 .85-1.224 2.632 2.632 0 0 1 1.548-.476c1.133 0 1.989.397 2.566 1.19.578.793.867 1.95.867 3.468 0 1.519-.288 2.68-.867 3.485-.578.793-1.433 1.19-2.566 1.19-.295 0-.573-.045-.834-.136a2.594 2.594 0 0 1-.714-.34 2.66 2.66 0 0 1-.526-.544 2.335 2.335 0 0 1-.324-.68h-.085V16.4h-2.516V4.075Zm4.166 7.089c.475 0 .867-.164 1.172-.493.318-.34.477-.793.477-1.36V7.764c0-.567-.16-1.014-.477-1.343a1.508 1.508 0 0 0-1.172-.51c-.477 0-.873.119-1.19.357-.306.227-.46.544-.46.952v2.635c0 .408.154.731.46.969.317.227.713.34 1.19.34ZM21.842 13V4.075h2.516v1.513h.102c.159-.476.43-.878.816-1.207.385-.34.912-.51 1.581-.51.612 0 1.133.153 1.564.459.43.306.742.754.935 1.343h.051a2.393 2.393 0 0 1 .969-1.275c.238-.159.504-.283.799-.374.295-.102.612-.153.952-.153.861 0 1.519.306 1.972.918.465.612.697 1.485.697 2.618V13H32.28V7.611c0-1.133-.408-1.7-1.224-1.7-.374 0-.714.108-1.02.323-.306.215-.459.544-.459.986V13h-2.516V7.611c0-1.133-.408-1.7-1.224-1.7-.181 0-.363.028-.544.085-.17.045-.329.125-.476.238-.136.113-.25.255-.34.425a1.24 1.24 0 0 0-.119.561V13h-2.516ZM15.867 13.204c-.657 0-1.246-.108-1.768-.323a3.605 3.605 0 0 1-1.309-.935 4.34 4.34 0 0 1-.816-1.479c-.192-.578-.289-1.224-.289-1.938s.097-1.36.29-1.938a4.156 4.156 0 0 1 .815-1.462c.363-.408.8-.72 1.31-.935.52-.215 1.11-.323 1.767-.323.658 0 1.241.108 1.751.323.522.215.958.527 1.31.935.362.397.64.884.832 1.462.193.578.29 1.224.29 1.938s-.097 1.36-.29 1.938a4.188 4.188 0 0 1-.833 1.479c-.351.408-.787.72-1.309.935-.51.215-1.093.323-1.75.323Zm0-1.989c.499 0 .884-.153 1.156-.459.272-.306.408-.742.408-1.309V7.628c0-.567-.136-1.003-.408-1.309-.272-.306-.657-.459-1.156-.459-.498 0-.884.153-1.156.459-.272.306-.408.742-.408 1.309v1.819c0 .567.136 1.003.408 1.309.272.306.658.459 1.156.459ZM6.103 13.204c-.805 0-1.53-.125-2.176-.374a4.44 4.44 0 0 1-1.649-1.14c-.453-.51-.805-1.138-1.054-1.886C.974 9.044.85 8.16.85 7.152c0-.997.125-1.881.374-2.652.25-.782.6-1.434 1.054-1.955a4.355 4.355 0 0 1 1.65-1.207C4.572 1.066 5.297.93 6.102.93c1.1 0 2.006.227 2.72.68.714.442 1.286 1.145 1.717 2.108L8.313 4.874c-.159-.499-.408-.895-.748-1.19-.329-.306-.816-.46-1.462-.46-.76 0-1.371.25-1.836.749-.453.487-.68 1.201-.68 2.142v1.904c0 .94.227 1.66.68 2.159.465.487 1.077.73 1.836.73.635 0 1.14-.17 1.513-.51a3.18 3.18 0 0 0 .85-1.257l2.108 1.224c-.442.907-1.026 1.61-1.75 2.108-.715.487-1.622.73-2.72.73Z" fill="#fff"/></svg>