<svg width="248" height="37" fill="none" xmlns="http://www.w3.org/2000/svg"><path d="M113.411 23.432c-.426 0-.736-.096-.928-.288-.181-.192-.272-.437-.272-.736v-.32c0-.299.091-.544.272-.736.192-.192.502-.288.928-.288.416 0 .72.096.912.288a.997.997 0 0 1 .288.736v.32a.997.997 0 0 1-.288.736c-.192.192-.496.288-.912.288Zm-1.024 1.216h2.048V33h-2.048v-8.352ZM107.973 31.608h-.08a2.716 2.716 0 0 1-.304.608 2.04 2.04 0 0 1-.464.496 2.02 2.02 0 0 1-.672.352 2.836 2.836 0 0 1-.896.128c-.864 0-1.526-.283-1.984-.848-.459-.565-.688-1.37-.688-2.416v-5.28h2.048v5.072c0 .576.112 1.019.336 1.328.224.299.581.448 1.072.448.202 0 .4-.027.592-.08.202-.053.378-.133.528-.24.149-.117.272-.256.368-.416.096-.17.144-.368.144-.592v-5.52h2.048V33h-2.048v-1.392ZM94.358 33v-1.632l4.336-5.104h-4.192v-1.616h6.592v1.584l-4.368 5.136h4.48V33h-6.848ZM92.156 33c-.448 0-.805-.128-1.072-.384-.256-.267-.416-.619-.48-1.056h-.096c-.138.544-.421.955-.848 1.232-.426.267-.954.4-1.584.4-.853 0-1.51-.224-1.968-.672-.459-.448-.688-1.045-.688-1.792 0-.864.31-1.504.928-1.92.619-.427 1.499-.64 2.64-.64h1.424v-.608c0-.47-.123-.832-.368-1.088-.245-.256-.64-.384-1.184-.384-.48 0-.87.107-1.168.32a3.013 3.013 0 0 0-.736.736l-1.216-1.088c.31-.48.72-.864 1.232-1.152.512-.299 1.19-.448 2.032-.448 1.13 0 1.99.256 2.576.768.587.512.88 1.248.88 2.208v3.936h.832V33h-1.136Zm-3.392-1.296c.459 0 .848-.101 1.168-.304.32-.203.48-.501.48-.896V29.4H89.1c-1.066 0-1.6.341-1.6 1.024v.272c0 .341.107.597.32.768.224.16.539.24.944.24ZM82.614 23.432c-.426 0-.736-.096-.928-.288-.181-.192-.272-.437-.272-.736v-.32c0-.299.091-.544.272-.736.192-.192.502-.288.928-.288.416 0 .72.096.912.288a.997.997 0 0 1 .288.736v.32a.997.997 0 0 1-.288.736c-.192.192-.496.288-.912.288Zm-1.024 1.216h2.048V33H81.59v-8.352ZM77.168 24.648h2.048v9.36c0 .704-.176 1.243-.528 1.616-.352.384-.912.576-1.68.576h-1.12v-1.632h1.28v-9.92Zm1.024-1.216c-.426 0-.736-.096-.928-.288-.18-.192-.272-.437-.272-.736v-.32c0-.299.091-.544.272-.736.192-.192.502-.288.928-.288.416 0 .72.096.912.288a.997.997 0 0 1 .288.736v.32a.997.997 0 0 1-.288.736c-.192.192-.496.288-.912.288ZM72.754 31.608h-.08a2.7 2.7 0 0 1-.304.608 2.027 2.027 0 0 1-.464.496c-.181.15-.405.267-.672.352a2.834 2.834 0 0 1-.896.128c-.864 0-1.525-.283-1.984-.848-.459-.565-.688-1.37-.688-2.416v-5.28h2.048v5.072c0 .576.112 1.019.336 1.328.224.299.581.448 1.072.448.203 0 .4-.027.592-.08a1.6 1.6 0 0 0 .528-.24c.15-.117.272-.256.368-.416.096-.17.144-.368.144-.592v-5.52h2.048V33h-2.048v-1.392ZM59.64 33V21.832h2.112v9.296h4.4V33H59.64ZM54.721 34.936h-3.456c-.992 0-1.882-.16-2.672-.48a5.635 5.635 0 0 1-1.984-1.344 5.85 5.85 0 0 1-1.248-2.064c-.288-.81-.432-1.707-.432-2.688 0-.981.15-1.883.448-2.704a6.16 6.16 0 0 1 1.264-2.112 5.773 5.773 0 0 1 2-1.392c.79-.33 1.675-.496 2.656-.496.875 0 1.68.133 2.416.4a5.472 5.472 0 0 1 1.936 1.168 5.18 5.18 0 0 1 1.264 1.904c.31.747.464 1.605.464 2.576 0 .608-.064 1.163-.192 1.664-.128.49-.32.917-.576 1.28-.245.352-.549.624-.912.816a2.627 2.627 0 0 1-1.248.288c-.554 0-.997-.133-1.328-.4-.33-.267-.517-.624-.56-1.072h-.08c-.138.448-.357.8-.656 1.056-.298.256-.704.384-1.216.384-.362 0-.698-.07-1.008-.208a2.47 2.47 0 0 1-.816-.64 3.3 3.3 0 0 1-.544-1.04 5.13 5.13 0 0 1-.192-1.472c0-.555.064-1.045.192-1.472.14-.427.32-.779.544-1.056.235-.277.507-.485.816-.624.31-.15.646-.224 1.008-.224.448 0 .811.123 1.088.368.288.235.491.523.608.864h.08v-1.088h1.568v4.464c0 .31.064.533.192.672s.315.208.56.208c.406 0 .726-.213.96-.64.235-.427.352-1.061.352-1.904V27.4c0-.693-.117-1.317-.352-1.872a3.92 3.92 0 0 0-.992-1.408 4.237 4.237 0 0 0-1.488-.88 5.397 5.397 0 0 0-1.888-.32c-.757 0-1.445.128-2.064.384a4.727 4.727 0 0 0-1.568 1.056 4.59 4.59 0 0 0-1.008 1.6 5.687 5.687 0 0 0-.352 2.032v.704c0 .736.118 1.408.352 2.016.235.608.566 1.13.992 1.568.438.437.96.773 1.568 1.008.608.245 1.291.368 2.048.368h3.456v1.28Zm-3.584-4.544c.352 0 .646-.112.88-.336.246-.235.368-.507.368-.816v-1.888a.909.909 0 0 0-.352-.736c-.234-.203-.533-.304-.896-.304-.448 0-.794.139-1.04.416-.234.267-.352.619-.352 1.056v1.136c0 .448.118.805.352 1.072.246.267.592.4 1.04.4ZM35.06 33v-8.352h2.047v1.728h.08c.053-.224.133-.437.24-.64a2.073 2.073 0 0 1 1.088-.944c.256-.096.55-.144.88-.144h.448v1.936h-.64c-.693 0-1.216.101-1.568.304-.352.203-.528.533-.528.992V33H35.06ZM29.513 33.192c-.619 0-1.173-.101-1.664-.304a3.666 3.666 0 0 1-1.232-.88 4.112 4.112 0 0 1-.768-1.376 5.748 5.748 0 0 1-.272-1.824c0-.661.085-1.259.256-1.792.182-.533.438-.987.768-1.36.33-.384.736-.677 1.216-.88.48-.213 1.024-.32 1.632-.32.65 0 1.216.112 1.696.336.48.224.875.528 1.184.912.31.384.539.832.688 1.344.16.501.24 1.04.24 1.616v.672h-5.552v.208c0 .608.17 1.099.512 1.472.341.363.848.544 1.52.544.512 0 .928-.107 1.248-.32.33-.213.624-.485.88-.816l1.104 1.232c-.341.48-.81.859-1.408 1.136-.587.267-1.27.4-2.048.4Zm-.032-7.2c-.544 0-.976.181-1.296.544-.32.363-.48.832-.48 1.408v.128h3.424v-.144c0-.576-.144-1.04-.432-1.392-.277-.363-.682-.544-1.216-.544ZM16.788 33l2.848-4.24-2.784-4.112h2.336l1.728 2.768h.064l1.712-2.768h2.176l-2.832 4.144L24.884 33h-2.336l-1.76-2.88h-.064L18.964 33h-2.176ZM14.27 23.432c-.426 0-.735-.096-.927-.288-.182-.192-.272-.437-.272-.736v-.32c0-.299.09-.544.272-.736.192-.192.5-.288.928-.288.416 0 .72.096.912.288a.997.997 0 0 1 .288.736v.32a.997.997 0 0 1-.288.736c-.192.192-.496.288-.912.288Zm-1.023 1.216h2.048V33h-2.048v-8.352ZM8.744 24.984H8.68l-.864 1.776-2.288 4.224L3.24 26.76l-.864-1.776h-.064V33h-2V21.832h2.384l2.864 5.456h.064l2.832-5.456h2.288V33h-2v-8.016ZM246.732 12c-.704 0-1.221-.176-1.552-.528-.331-.352-.496-.848-.496-1.488V.16h2.048v10.208h1.104V12h-1.104ZM241.891 12c-.448 0-.806-.128-1.072-.384-.256-.267-.416-.619-.48-1.056h-.096c-.139.544-.422.955-.848 1.232-.427.267-.955.4-1.584.4-.854 0-1.51-.224-1.968-.672-.459-.448-.688-1.045-.688-1.792 0-.864.309-1.504.928-1.92.618-.427 1.498-.64 2.64-.64h1.424V6.56c0-.47-.123-.832-.368-1.088-.246-.256-.64-.384-1.184-.384-.48 0-.87.107-1.168.32a3.004 3.004 0 0 0-.736.736l-1.216-1.088c.309-.48.72-.864 1.232-1.152.512-.299 1.189-.448 2.032-.448 1.13 0 1.989.256 2.576.768.586.512.88 1.248.88 2.208v3.936h.832V12h-1.136Zm-3.392-1.296c.458 0 .848-.101 1.168-.304.32-.203.48-.501.48-.896V8.4h-1.312c-1.067 0-1.6.341-1.6 1.024v.272c0 .341.106.597.32.768.224.16.538.24.944.24ZM232.349 2.432c-.427 0-.736-.096-.928-.288-.182-.192-.272-.437-.272-.736v-.32c0-.299.09-.544.272-.736.192-.192.501-.288.928-.288.416 0 .72.096.912.288a.997.997 0 0 1 .288.736v.32a.997.997 0 0 1-.288.736c-.192.192-.496.288-.912.288Zm-1.024 1.216h2.048V12h-2.048V3.648ZM226.418 12.192c-.619 0-1.168-.101-1.648-.304a3.242 3.242 0 0 1-1.216-.88 4.04 4.04 0 0 1-.736-1.376 6.068 6.068 0 0 1-.256-1.824c0-.672.085-1.275.256-1.808.17-.533.416-.987.736-1.36.33-.384.736-.677 1.216-.88.48-.203 1.029-.304 1.648-.304.842 0 1.536.187 2.08.56.554.373.954.89 1.2 1.552l-1.68.752a1.678 1.678 0 0 0-.544-.864c-.256-.235-.608-.352-1.056-.352-.576 0-1.008.181-1.296.544-.278.363-.416.837-.416 1.424v1.52c0 .587.138 1.061.416 1.424.288.352.72.528 1.296.528.49 0 .869-.123 1.136-.368.266-.256.474-.57.624-.944l1.568.752c-.278.736-.699 1.29-1.264 1.664-.566.363-1.254.544-2.064.544ZM217.418 12.192a4.12 4.12 0 0 1-1.616-.304 3.426 3.426 0 0 1-1.216-.88 4.098 4.098 0 0 1-.768-1.376 5.756 5.756 0 0 1-.272-1.824c0-.672.091-1.275.272-1.808a3.92 3.92 0 0 1 .768-1.36 3.425 3.425 0 0 1 1.216-.88 4.118 4.118 0 0 1 1.616-.304c.597 0 1.136.101 1.616.304.48.203.885.496 1.216.88.341.373.603.827.784 1.36.181.533.272 1.136.272 1.808 0 .672-.091 1.28-.272 1.824a3.964 3.964 0 0 1-.784 1.376 3.25 3.25 0 0 1-1.216.88 4.12 4.12 0 0 1-1.616.304Zm0-1.648c.544 0 .971-.165 1.28-.496.309-.33.464-.816.464-1.456V7.04c0-.63-.155-1.11-.464-1.44-.309-.33-.736-.496-1.28-.496-.533 0-.955.165-1.264.496-.309.33-.464.81-.464 1.44v1.552c0 .64.155 1.125.464 1.456.309.33.731.496 1.264.496ZM207.925 12.192c-.96 0-1.776-.17-2.448-.512a5.687 5.687 0 0 1-1.712-1.344l1.424-1.376c.384.448.81.79 1.28 1.024.48.235 1.008.352 1.584.352.65 0 1.141-.139 1.472-.416.33-.288.496-.672.496-1.152 0-.373-.107-.677-.32-.912-.214-.235-.614-.405-1.2-.512l-1.056-.16c-2.23-.352-3.344-1.435-3.344-3.248 0-.501.09-.955.272-1.36.192-.405.464-.752.816-1.04a3.645 3.645 0 0 1 1.264-.656 5.563 5.563 0 0 1 1.696-.24c.842 0 1.578.139 2.208.416a4.337 4.337 0 0 1 1.616 1.232l-1.44 1.36a3.332 3.332 0 0 0-1.008-.832c-.395-.213-.891-.32-1.488-.32-.608 0-1.067.117-1.376.352-.299.224-.448.544-.448.96 0 .427.122.741.368.944.245.203.64.352 1.184.448l1.04.192c1.13.203 1.962.565 2.496 1.088.544.512.816 1.232.816 2.16 0 .533-.096 1.019-.288 1.456-.182.427-.454.8-.816 1.12-.352.31-.79.55-1.312.72-.512.17-1.104.256-1.776.256ZM194.998 12.192c-.619 0-1.174-.101-1.664-.304a3.662 3.662 0 0 1-1.232-.88 4.098 4.098 0 0 1-.768-1.376 5.728 5.728 0 0 1-.272-1.824c0-.661.085-1.259.256-1.792a3.92 3.92 0 0 1 .768-1.36c.33-.384.736-.677 1.216-.88.48-.213 1.024-.32 1.632-.32.65 0 1.216.112 1.696.336.48.224.874.528 1.184.912.309.384.538.832.688 1.344.16.501.24 1.04.24 1.616v.672h-5.552v.208c0 .608.17 1.099.512 1.472.341.363.848.544 1.52.544.512 0 .928-.107 1.248-.32.33-.213.624-.485.88-.816l1.104 1.232c-.342.48-.811.859-1.408 1.136-.587.267-1.27.4-2.048.4Zm-.032-7.2c-.544 0-.976.181-1.296.544-.32.363-.48.832-.48 1.408v.128h3.424v-.144c0-.576-.144-1.04-.432-1.392-.278-.363-.683-.544-1.216-.544ZM188.308 12c-.704 0-1.243-.181-1.616-.544-.363-.373-.544-.901-.544-1.584V5.28h-1.232V3.648h.64c.309 0 .517-.07.624-.208.117-.15.176-.368.176-.656V1.36h1.84v2.288h1.712V5.28h-1.712v5.088h1.584V12h-1.472ZM182.302 2.432c-.427 0-.736-.096-.928-.288-.182-.192-.272-.437-.272-.736v-.32c0-.299.09-.544.272-.736.192-.192.501-.288.928-.288.416 0 .72.096.912.288a.997.997 0 0 1 .288.736v.32a.997.997 0 0 1-.288.736c-.192.192-.496.288-.912.288Zm-1.024 1.216h2.048V12h-2.048V3.648ZM178.623 12c-.704 0-1.222-.176-1.552-.528-.331-.352-.496-.848-.496-1.488V.16h2.048v10.208h1.104V12h-1.104ZM167.109 12V.832h7.36v1.872h-5.248v2.704h4.64V7.28h-4.64v2.848h5.248V12h-7.36ZM159.823 12c-.704 0-1.243-.181-1.616-.544-.363-.373-.544-.901-.544-1.584V5.28h-1.232V3.648h.64c.309 0 .517-.07.624-.208.117-.15.176-.368.176-.656V1.36h1.84v2.288h1.712V5.28h-1.712v5.088h1.584V12h-1.472ZM147.809 12V3.648h2.048V5.04h.08c.171-.448.437-.821.8-1.12.373-.31.885-.464 1.536-.464.864 0 1.525.283 1.984.848.459.565.688 1.37.688 2.416V12h-2.048V6.928c0-.597-.107-1.045-.32-1.344-.213-.299-.565-.448-1.056-.448-.213 0-.421.032-.624.096a1.617 1.617 0 0 0-.528.256 1.267 1.267 0 0 0-.368.416 1.1 1.1 0 0 0-.144.576V12h-2.048ZM142.263 12.192c-.619 0-1.173-.101-1.664-.304a3.662 3.662 0 0 1-1.232-.88 4.098 4.098 0 0 1-.768-1.376 5.756 5.756 0 0 1-.272-1.824c0-.661.085-1.259.256-1.792a3.92 3.92 0 0 1 .768-1.36 3.25 3.25 0 0 1 1.216-.88c.48-.213 1.024-.32 1.632-.32.651 0 1.216.112 1.696.336.48.224.875.528 1.184.912.309.384.539.832.688 1.344.16.501.24 1.04.24 1.616v.672h-5.552v.208c0 .608.171 1.099.512 1.472.341.363.848.544 1.52.544.512 0 .928-.107 1.248-.32a3.53 3.53 0 0 0 .88-.816l1.104 1.232c-.341.48-.811.859-1.408 1.136-.587.267-1.269.4-2.048.4Zm-.032-7.2c-.544 0-.976.181-1.296.544-.32.363-.48.832-.48 1.408v.128h3.424v-.144c0-.576-.144-1.04-.432-1.392-.277-.363-.683-.544-1.216-.544ZM124.684 12V3.648h2.048V5.04h.08c.16-.437.416-.81.768-1.12.352-.31.843-.464 1.472-.464.576 0 1.072.139 1.488.416.416.277.725.699.928 1.264h.032c.149-.47.443-.864.88-1.184.448-.33 1.008-.496 1.68-.496.821 0 1.451.283 1.888.848.448.565.672 1.37.672 2.416V12h-2.048V6.928c0-1.195-.448-1.792-1.344-1.792-.203 0-.4.032-.592.096a1.465 1.465 0 0 0-.496.256 1.174 1.174 0 0 0-.336.416c-.085.16-.128.352-.128.576V12h-2.048V6.928c0-1.195-.448-1.792-1.344-1.792-.192 0-.384.032-.576.096a1.465 1.465 0 0 0-.496.256 1.347 1.347 0 0 0-.352.416c-.085.16-.128.352-.128.576V12h-2.048ZM121.308 12c-.704 0-1.243-.181-1.616-.544-.363-.373-.544-.901-.544-1.584V5.28h-1.232V3.648h.64c.309 0 .517-.07.624-.208.117-.15.176-.368.176-.656V1.36h1.84v2.288h1.712V5.28h-1.712v5.088h1.584V12h-1.472ZM113.576 12.192c-.8 0-1.472-.133-2.016-.4a4.75 4.75 0 0 1-1.44-1.136l1.248-1.216c.31.352.646.63 1.008.832.374.203.8.304 1.28.304.491 0 .843-.085 1.056-.256a.836.836 0 0 0 .336-.704c0-.245-.08-.437-.24-.576-.149-.15-.41-.25-.784-.304l-.832-.112c-.906-.117-1.6-.373-2.08-.768-.469-.405-.704-.992-.704-1.76 0-.405.075-.768.224-1.088.15-.33.363-.608.64-.832.278-.235.608-.41.992-.528a4.238 4.238 0 0 1 1.312-.192c.406 0 .763.032 1.072.096.32.053.608.139.864.256.256.107.491.245.704.416.214.16.422.341.624.544l-1.2 1.2a3.153 3.153 0 0 0-.88-.64 2.466 2.466 0 0 0-1.12-.256c-.448 0-.773.08-.976.24a.774.774 0 0 0-.288.624c0 .277.08.49.24.64.171.139.454.24.848.304l.848.112c1.803.256 2.704 1.077 2.704 2.464a2.543 2.543 0 0 1-.944 1.984 3.48 3.48 0 0 1-1.088.56 4.78 4.78 0 0 1-1.408.192ZM105.294 12.192c-.618 0-1.173-.101-1.664-.304a3.672 3.672 0 0 1-1.232-.88 4.132 4.132 0 0 1-.768-1.376 5.756 5.756 0 0 1-.272-1.824c0-.661.086-1.259.256-1.792.182-.533.438-.987.768-1.36a3.25 3.25 0 0 1 1.216-.88c.48-.213 1.024-.32 1.632-.32.651 0 1.216.112 1.696.336.48.224.875.528 1.184.912.31.384.539.832.688 1.344.16.501.24 1.04.24 1.616v.672h-5.552v.208c0 .608.171 1.099.512 1.472.342.363.848.544 1.52.544.512 0 .928-.107 1.248-.32a3.53 3.53 0 0 0 .88-.816l1.104 1.232c-.341.48-.81.859-1.408 1.136-.586.267-1.269.4-2.048.4Zm-.032-7.2c-.544 0-.976.181-1.296.544-.32.363-.48.832-.48 1.408v.128h3.424v-.144c0-.576-.144-1.04-.432-1.392-.277-.363-.682-.544-1.216-.544ZM95.445 12 92.66 3.648h2.016l1.168 3.6.816 2.976h.112l.816-2.976 1.136-3.6h1.952L97.877 12h-2.432ZM84.372 12V3.648h2.048V5.04h.08c.17-.448.437-.821.8-1.12.373-.31.885-.464 1.536-.464.864 0 1.525.283 1.984.848.458.565.688 1.37.688 2.416V12H89.46V6.928c0-.597-.107-1.045-.32-1.344-.214-.299-.566-.448-1.056-.448a2.06 2.06 0 0 0-.624.096 1.617 1.617 0 0 0-.528.256c-.15.107-.272.245-.368.416a1.1 1.1 0 0 0-.144.576V12h-2.048ZM77.27 12v-1.696h1.472V2.528H77.27V.832h5.072v1.696h-1.488v7.776h1.488V12H77.27ZM69.042 10.976a8.83 8.83 0 0 1-.544.432 4.342 4.342 0 0 1-.704.384 4.49 4.49 0 0 1-.88.288c-.32.075-.682.112-1.088.112-.597 0-1.13-.08-1.6-.24a3.359 3.359 0 0 1-1.152-.656 2.755 2.755 0 0 1-.704-.976 3.17 3.17 0 0 1-.24-1.232 2.831 2.831 0 0 1 .656-1.872c.203-.256.443-.48.72-.672.278-.203.571-.395.88-.576a7.68 7.68 0 0 1-.88-1.216 2.951 2.951 0 0 1-.368-1.44c0-.363.075-.704.224-1.024.15-.33.363-.619.64-.864.288-.245.63-.437 1.024-.576A3.988 3.988 0 0 1 66.354.64c.438 0 .843.059 1.216.176.374.117.694.283.96.496.278.213.491.475.64.784.16.31.24.661.24 1.056 0 .352-.064.677-.192.976a2.86 2.86 0 0 1-.496.8 5.635 5.635 0 0 1-.736.672 9.234 9.234 0 0 1-.896.576l1.952 2.112c.15-.363.262-.747.336-1.152.086-.405.139-.81.16-1.216h2.512v1.712h-1.04a7.335 7.335 0 0 1-.736 1.984L72.482 12H69.97l-.928-1.024ZM66.29 2.224c-.341 0-.624.101-.848.304-.224.192-.336.453-.336.784v.112c0 .245.075.49.224.736.16.235.406.539.736.912.406-.245.736-.501.992-.768.267-.267.4-.576.4-.928V3.28c0-.341-.117-.603-.352-.784a1.255 1.255 0 0 0-.816-.272Zm-.192 8.256c.384 0 .731-.059 1.04-.176.31-.117.582-.277.816-.48L65.41 7.072c-.373.224-.666.464-.88.72-.202.245-.304.56-.304.944v.176c0 .47.16.848.48 1.136.32.288.784.432 1.392.432ZM53.091 12.192c-.618 0-1.173-.101-1.664-.304a3.665 3.665 0 0 1-1.232-.88 4.108 4.108 0 0 1-.768-1.376 5.745 5.745 0 0 1-.272-1.824c0-.661.086-1.259.256-1.792a3.93 3.93 0 0 1 .768-1.36c.33-.384.736-.677 1.216-.88.48-.213 1.024-.32 1.632-.32.65 0 1.216.112 1.696.336.48.224.875.528 1.184.912.31.384.539.832.688 1.344.16.501.24 1.04.24 1.616v.672h-5.552v.208c0 .608.17 1.099.512 1.472.342.363.848.544 1.52.544.512 0 .928-.107 1.248-.32.33-.213.624-.485.88-.816l1.104 1.232c-.341.48-.81.859-1.408 1.136-.586.267-1.27.4-2.048.4Zm-.032-7.2c-.544 0-.976.181-1.296.544-.32.363-.48.832-.48 1.408v.128h3.424v-.144c0-.576-.144-1.04-.432-1.392-.277-.363-.682-.544-1.216-.544ZM44.886 12.192c-.618 0-1.168-.101-1.648-.304a3.247 3.247 0 0 1-1.216-.88 4.05 4.05 0 0 1-.736-1.376 6.077 6.077 0 0 1-.256-1.824c0-.672.086-1.275.256-1.808.17-.533.416-.987.736-1.36.33-.384.736-.677 1.216-.88.48-.203 1.03-.304 1.648-.304.843 0 1.536.187 2.08.56.555.373.955.89 1.2 1.552l-1.68.752a1.674 1.674 0 0 0-.544-.864c-.256-.235-.608-.352-1.056-.352-.576 0-1.008.181-1.296.544-.277.363-.416.837-.416 1.424v1.52c0 .587.139 1.061.416 1.424.288.352.72.528 1.296.528.49 0 .87-.123 1.136-.368.267-.256.475-.57.624-.944l1.568.752c-.277.736-.698 1.29-1.264 1.664-.565.363-1.253.544-2.064.544ZM32.184 12V3.648h2.048V5.04h.08c.17-.448.437-.821.8-1.12.373-.31.885-.464 1.536-.464.864 0 1.525.283 1.984.848.459.565.688 1.37.688 2.416V12h-2.048V6.928c0-.597-.107-1.045-.32-1.344-.213-.299-.565-.448-1.056-.448a2.06 2.06 0 0 0-.624.096 1.617 1.617 0 0 0-.528.256c-.15.107-.272.245-.368.416a1.1 1.1 0 0 0-.144.576V12h-2.048ZM29.39 12c-.448 0-.805-.128-1.072-.384-.256-.267-.416-.619-.48-1.056h-.096c-.138.544-.42.955-.848 1.232-.426.267-.954.4-1.583.4-.854 0-1.51-.224-1.968-.672-.46-.448-.689-1.045-.689-1.792 0-.864.31-1.504.928-1.92.62-.427 1.5-.64 2.64-.64h1.424V6.56c0-.47-.122-.832-.367-1.088-.246-.256-.64-.384-1.184-.384-.48 0-.87.107-1.168.32a3.016 3.016 0 0 0-.736.736l-1.216-1.088c.309-.48.72-.864 1.231-1.152.512-.299 1.19-.448 2.032-.448 1.131 0 1.99.256 2.576.768.587.512.88 1.248.88 2.208v3.936h.832V12H29.39Zm-3.392-1.296c.46 0 .848-.101 1.168-.304.32-.203.48-.501.48-.896V8.4h-1.312c-1.066 0-1.6.341-1.6 1.024v.272c0 .341.107.597.32.768.225.16.54.24.945.24ZM13.84 12V3.648h2.048V5.04h.08c.171-.448.438-.821.8-1.12.374-.31.886-.464 1.536-.464.864 0 1.526.283 1.984.848.459.565.688 1.37.688 2.416V12h-2.048V6.928c0-.597-.106-1.045-.32-1.344-.213-.299-.565-.448-1.056-.448a2.06 2.06 0 0 0-.624.096 1.617 1.617 0 0 0-.528.256c-.149.107-.272.245-.368.416a1.1 1.1 0 0 0-.144.576V12H13.84ZM10.442 2.432c-.426 0-.736-.096-.928-.288-.18-.192-.272-.437-.272-.736v-.32c0-.299.091-.544.272-.736.192-.192.502-.288.928-.288.416 0 .72.096.912.288a.997.997 0 0 1 .288.736v.32a.997.997 0 0 1-.288.736c-.192.192-.496.288-.912.288ZM9.418 3.648h2.048V12H9.418V3.648ZM.312 12V.832h7.184v1.872H2.424v2.704H6.84V7.28H2.424V12H.312Z" fill="#000"/></svg>