<svg width="280" height="16" fill="none" xmlns="http://www.w3.org/2000/svg"><path d="M170 1.333A4.664 4.664 0 0 0 165.333 6c0 3.5 4.667 8.667 4.667 8.667S174.667 9.5 174.667 6A4.664 4.664 0 0 0 170 1.333ZM166.667 6A3.334 3.334 0 0 1 170 2.667 3.334 3.334 0 0 1 173.333 6c0 1.92-1.92 4.793-3.333 6.587-1.387-1.78-3.333-4.687-3.333-6.587Z" fill="#495057"/><path d="M170 7.667a1.667 1.667 0 1 0 0-3.335 1.667 1.667 0 0 0 0 3.335Z" fill="#495057"/><path d="M278.888 12c-.344 0-.608-.096-.792-.288a1.344 1.344 0 0 1-.336-.756h-.06c-.12.392-.34.688-.66.888-.32.2-.708.3-1.164.3-.648 0-1.148-.168-1.5-.504-.344-.336-.516-.788-.516-1.356 0-.624.224-1.092.672-1.404.456-.312 1.12-.468 1.992-.468h1.128v-.528c0-.384-.104-.68-.312-.888-.208-.208-.532-.312-.972-.312-.368 0-.668.08-.9.24-.232.16-.428.364-.588.612l-.78-.708c.208-.352.5-.64.876-.864.376-.232.868-.348 1.476-.348.808 0 1.428.188 1.86.564.432.376.648.916.648 1.62v3.132h.66V12h-.732Zm-2.64-.852c.408 0 .744-.088 1.008-.264.264-.184.396-.428.396-.732v-.9h-1.104c-.904 0-1.356.28-1.356.84v.216c0 .28.092.492.276.636.192.136.452.204.78.204ZM271.92 4.644c-.272 0-.472-.064-.6-.192a.69.69 0 0 1-.18-.492v-.204c0-.2.06-.364.18-.492.128-.128.328-.192.6-.192.272 0 .468.064.588.192a.69.69 0 0 1 .18.492v.204c0 .2-.06.364-.18.492s-.316.192-.588.192Zm-.66 1.116h1.308V12h-1.308V5.76ZM268.202 10.968h-.06c-.136.368-.36.656-.672.864-.304.208-.664.312-1.08.312-.792 0-1.404-.284-1.836-.852-.432-.576-.648-1.38-.648-2.412s.216-1.832.648-2.4c.432-.576 1.044-.864 1.836-.864.416 0 .776.104 1.08.312.312.2.536.488.672.864h.06V3.12h1.308V12h-1.308v-1.032Zm-1.416.048c.4 0 .736-.096 1.008-.288.272-.2.408-.46.408-.78V7.812a.896.896 0 0 0-.408-.768c-.272-.2-.608-.3-1.008-.3-.456 0-.82.148-1.092.444-.272.288-.408.672-.408 1.152v1.08c0 .48.136.868.408 1.164.272.288.636.432 1.092.432ZM257.437 12V5.76h1.308v1.032h.06a2.08 2.08 0 0 1 .612-.84c.28-.224.66-.336 1.14-.336.64 0 1.136.212 1.488.636.36.416.54 1.012.54 1.788V12h-1.308V8.208c0-.976-.392-1.464-1.176-1.464-.168 0-.336.024-.504.072a1.32 1.32 0 0 0-.432.192c-.128.088-.232.2-.312.336a1.012 1.012 0 0 0-.108.48V12h-1.308ZM252.301 12v-1.104h1.14V4.728h-1.14V3.624h3.648v1.104h-1.152v6.168h1.152V12h-3.648ZM247.293 10.332c.296 0 .516.076.66.228a.82.82 0 0 1 .216.588v.192c0 .392-.108.8-.324 1.224a3.18 3.18 0 0 1-.852 1.092h-.972c.256-.256.468-.504.636-.744.168-.24.296-.508.384-.804-.208-.04-.364-.128-.468-.264a.838.838 0 0 1-.156-.504v-.192a.82.82 0 0 1 .216-.588c.144-.152.364-.228.66-.228ZM243.431 10.968h-.06c-.136.368-.36.656-.672.864-.304.208-.664.312-1.08.312-.792 0-1.404-.284-1.836-.852-.432-.576-.648-1.38-.648-2.412s.216-1.832.648-2.4c.432-.576 1.044-.864 1.836-.864.416 0 .776.104 1.08.312.312.2.536.488.672.864h.06V3.12h1.308V12h-1.308v-1.032Zm-1.416.048c.4 0 .736-.096 1.008-.288.272-.2.408-.46.408-.78V7.812a.896.896 0 0 0-.408-.768c-.272-.2-.608-.3-1.008-.3-.456 0-.82.148-1.092.444-.272.288-.408.672-.408 1.152v1.08c0 .48.136.868.408 1.164.272.288.636.432 1.092.432ZM237.613 12c-.344 0-.608-.096-.792-.288a1.344 1.344 0 0 1-.336-.756h-.06c-.12.392-.34.688-.66.888-.32.2-.708.3-1.164.3-.648 0-1.148-.168-1.5-.504-.344-.336-.516-.788-.516-1.356 0-.624.224-1.092.672-1.404.456-.312 1.12-.468 1.992-.468h1.128v-.528c0-.384-.104-.68-.312-.888-.208-.208-.532-.312-.972-.312-.368 0-.668.08-.9.24-.232.16-.428.364-.588.612l-.78-.708c.208-.352.5-.64.876-.864.376-.232.868-.348 1.476-.348.808 0 1.428.188 1.86.564.432.376.648.916.648 1.62v3.132h.66V12h-.732Zm-2.64-.852c.408 0 .744-.088 1.008-.264.264-.184.396-.428.396-.732v-.9h-1.104c-.904 0-1.356.28-1.356.84v.216c0 .28.092.492.276.636.192.136.452.204.78.204ZM226.06 3.12h1.308v3.672h.06c.136-.376.356-.664.66-.864a1.922 1.922 0 0 1 1.092-.312c.792 0 1.404.288 1.836.864.432.568.648 1.368.648 2.4 0 1.032-.216 1.836-.648 2.412-.432.568-1.044.852-1.836.852-.416 0-.78-.104-1.092-.312a1.751 1.751 0 0 1-.66-.864h-.06V12h-1.308V3.12Zm2.724 7.896c.456 0 .82-.144 1.092-.432.272-.296.408-.684.408-1.164V8.34c0-.48-.136-.864-.408-1.152-.272-.296-.636-.444-1.092-.444-.4 0-.736.1-1.008.3a.896.896 0 0 0-.408.768v2.136c0 .32.136.58.408.78.272.192.608.288 1.008.288ZM224.166 12c-.344 0-.608-.096-.792-.288a1.344 1.344 0 0 1-.336-.756h-.06c-.12.392-.34.688-.66.888-.32.2-.708.3-1.164.3-.648 0-1.148-.168-1.5-.504-.344-.336-.516-.788-.516-1.356 0-.624.224-1.092.672-1.404.456-.312 1.12-.468 1.992-.468h1.128v-.528c0-.384-.104-.68-.312-.888-.208-.208-.532-.312-.972-.312-.368 0-.668.08-.9.24-.232.16-.428.364-.588.612l-.78-.708c.208-.352.5-.64.876-.864.376-.232.868-.348 1.476-.348.808 0 1.428.188 1.86.564.432.376.648.916.648 1.62v3.132h.66V12h-.732Zm-2.64-.852c.408 0 .744-.088 1.008-.264.264-.184.396-.428.396-.732v-.9h-1.104c-.904 0-1.356.28-1.356.84v.216c0 .28.092.492.276.636.192.136.452.204.78.204ZM216.536 10.968h-.06c-.136.368-.36.656-.672.864-.304.208-.664.312-1.08.312-.792 0-1.404-.284-1.836-.852-.432-.576-.648-1.38-.648-2.412s.216-1.832.648-2.4c.432-.576 1.044-.864 1.836-.864.416 0 .776.104 1.08.312.312.2.536.488.672.864h.06V3.12h1.308V12h-1.308v-1.032Zm-1.416.048c.4 0 .736-.096 1.008-.288.272-.2.408-.46.408-.78V7.812a.896.896 0 0 0-.408-.768c-.272-.2-.608-.3-1.008-.3-.456 0-.82.148-1.092.444-.272.288-.408.672-.408 1.152v1.08c0 .48.136.868.408 1.164.272.288.636.432 1.092.432ZM208.512 12.144a3 3 0 0 1-1.2-.228 2.52 2.52 0 0 1-.9-.648 3.082 3.082 0 0 1-.576-1.032 4.515 4.515 0 0 1-.192-1.356c0-.496.064-.944.192-1.344.136-.408.328-.752.576-1.032.248-.288.548-.508.9-.66a3 3 0 0 1 1.2-.228c.456 0 .856.08 1.2.24.352.16.644.384.876.672.232.28.404.608.516.984.12.376.18.78.18 1.212v.492H207v.204c0 .48.14.876.42 1.188.288.304.696.456 1.224.456.384 0 .708-.084.972-.252.264-.168.488-.396.672-.684l.768.756a2.513 2.513 0 0 1-1.008.924c-.44.224-.952.336-1.536.336Zm0-5.508c-.224 0-.432.04-.624.12-.184.08-.344.192-.48.336a1.564 1.564 0 0 0-.3.516c-.072.2-.108.42-.108.66v.084h2.904v-.12c0-.48-.124-.864-.372-1.152-.248-.296-.588-.444-1.02-.444ZM195.602 12V5.76h1.308v1.032h.06c.064-.16.14-.312.228-.456.096-.144.208-.268.336-.372.136-.112.292-.196.468-.252.184-.064.396-.096.636-.096.424 0 .8.104 1.128.312.328.208.568.528.72.96h.036c.112-.352.328-.652.648-.9s.732-.372 1.236-.372c.624 0 1.108.212 1.452.636.344.416.516 1.012.516 1.788V12h-1.308V8.196c0-.48-.092-.84-.276-1.08-.184-.248-.476-.372-.876-.372-.168 0-.328.024-.48.072-.152.04-.288.104-.408.192-.112.088-.204.2-.276.336a.985.985 0 0 0-.108.468V12h-1.308V8.196c0-.968-.38-1.452-1.14-1.452-.16 0-.32.024-.48.072-.152.04-.288.104-.408.192a.977.977 0 0 0-.288.336.985.985 0 0 0-.108.468V12h-1.308ZM188.761 3.12h1.308v3.672h.06a2.08 2.08 0 0 1 .612-.84c.28-.224.66-.336 1.14-.336.64 0 1.136.212 1.488.636.36.416.54 1.012.54 1.788V12h-1.308V8.196c0-.968-.392-1.452-1.176-1.452-.168 0-.336.024-.504.072a1.32 1.32 0 0 0-.432.192c-.128.088-.232.2-.312.336a.985.985 0 0 0-.108.468V12h-1.308V3.12ZM186.264 12l-.756-2.268h-3.132L181.644 12h-1.38l2.856-8.376h1.704L187.68 12h-1.416Zm-2.292-7.128h-.06L182.7 8.568h2.472l-1.2-3.696ZM104.489 12.144c-.488 0-.92-.06-1.296-.18-.368-.128-.68-.3-.936-.516a2.258 2.258 0 0 1-.576-.768 2.392 2.392 0 0 1-.192-.96c0-.56.152-1.008.456-1.344.312-.344.72-.584 1.224-.72V7.56a2.275 2.275 0 0 1-1.044-.72c-.256-.328-.384-.732-.384-1.212 0-.32.06-.612.18-.876.128-.264.308-.488.54-.672.232-.192.52-.34.864-.444a4.019 4.019 0 0 1 1.164-.156c.432 0 .82.052 1.164.156.344.104.632.252.864.444.232.184.408.408.528.672.128.264.192.556.192.876 0 .48-.132.884-.396 1.212-.256.328-.6.568-1.032.72v.096c.504.136.908.376 1.212.72.312.336.468.784.468 1.344 0 .344-.068.664-.204.96a2.07 2.07 0 0 1-.576.768c-.248.216-.56.388-.936.516-.368.12-.796.18-1.284.18Zm0-1.092c.504 0 .892-.116 1.164-.348.28-.232.42-.556.42-.972v-.24c0-.416-.14-.74-.42-.972-.272-.232-.66-.348-1.164-.348-.504 0-.896.116-1.176.348-.272.232-.408.556-.408.972v.24c0 .416.136.74.408.972.28.232.672.348 1.176.348Zm0-3.924c.464 0 .816-.1 1.056-.3.248-.2.372-.492.372-.876v-.204c0-.384-.124-.676-.372-.876-.24-.2-.592-.3-1.056-.3-.464 0-.82.1-1.068.3-.24.2-.36.492-.36.876v.204c0 .384.12.676.36.876.248.2.604.3 1.068.3ZM94.87 12v-1.128h2.351V4.608h-.096l-1.944 2.076-.828-.744 2.136-2.316h2.064v7.248h2.04V12h-5.724ZM90.338 12.144c-.52 0-.972-.096-1.356-.288a2.55 2.55 0 0 1-.948-.852c-.248-.368-.432-.82-.552-1.356a8.448 8.448 0 0 1-.18-1.836c0-.68.06-1.288.18-1.824.12-.544.304-1 .552-1.368.248-.368.564-.648.948-.84.384-.2.836-.3 1.356-.3 1.04 0 1.804.38 2.292 1.14.496.76.744 1.824.744 3.192s-.248 2.432-.744 3.192c-.488.76-1.252 1.14-2.292 1.14Zm0-1.152c.288 0 .532-.056.732-.168.208-.12.376-.288.504-.504.128-.216.22-.472.276-.768a5.58 5.58 0 0 0 .084-1.008V7.08c0-.368-.028-.7-.084-.996a2.359 2.359 0 0 0-.276-.78 1.293 1.293 0 0 0-.504-.492c-.2-.12-.444-.18-.732-.18s-.536.06-.744.18a1.32 1.32 0 0 0-.492.492c-.128.216-.22.476-.276.78a5.382 5.382 0 0 0-.084.996v1.464c0 .368.028.704.084 1.008.056.296.148.552.276.768.128.216.292.384.492.504.208.112.456.168.744.168ZM86.155 12h-5.688v-1.296l2.676-2.388c.424-.384.748-.748.972-1.092.232-.352.348-.72.348-1.104v-.156c0-.408-.124-.728-.372-.96-.24-.232-.568-.348-.984-.348-.232 0-.436.036-.612.108a1.34 1.34 0 0 0-.444.276c-.128.12-.236.26-.324.42a2.64 2.64 0 0 0-.192.516l-1.188-.456c.088-.264.208-.516.36-.756a2.652 2.652 0 0 1 1.392-1.116c.32-.112.692-.168 1.116-.168.424 0 .804.064 1.14.192.336.12.616.292.84.516.232.216.408.476.528.78.12.304.18.636.18.996 0 .336-.052.648-.156.936-.104.288-.248.56-.432.816-.184.256-.4.5-.648.732a23 23 0 0 1-.768.708l-1.968 1.692h4.224V12ZM75.326 10.332c.296 0 .516.076.66.228a.82.82 0 0 1 .216.588v.192c0 .392-.108.8-.324 1.224a3.18 3.18 0 0 1-.852 1.092h-.972c.256-.256.468-.504.636-.744.168-.24.296-.508.384-.804-.208-.04-.364-.128-.468-.264a.838.838 0 0 1-.156-.504v-.192a.82.82 0 0 1 .216-.588c.144-.152.364-.228.66-.228ZM71.987 12c-.456 0-.8-.116-1.031-.348-.233-.24-.349-.576-.349-1.008V6.828h-.972V5.76h.528c.216 0 .365-.048.445-.144.087-.096.132-.252.132-.468V4.056h1.175V5.76h1.308v1.068h-1.308v4.104h1.212V12h-1.14ZM66.674 12.144a3 3 0 0 1-1.2-.228 2.41 2.41 0 0 1-.888-.648 3.038 3.038 0 0 1-.552-1.032 4.515 4.515 0 0 1-.192-1.356c0-.496.064-.944.192-1.344.128-.408.312-.752.552-1.032.24-.288.536-.508.888-.66a3 3 0 0 1 1.2-.228c.624 0 1.136.14 1.536.42.4.28.692.652.876 1.116l-1.08.504a1.305 1.305 0 0 0-.468-.684c-.216-.176-.504-.264-.864-.264-.48 0-.844.152-1.092.456-.24.296-.36.684-.36 1.164v1.116c0 .48.12.872.36 1.176.248.296.612.444 1.092.444.384 0 .688-.092.912-.276.232-.192.416-.444.552-.756l.996.528c-.208.512-.52.904-.936 1.176-.416.272-.924.408-1.524.408ZM59.175 12.144c-.544 0-1.04-.092-1.488-.276a3.244 3.244 0 0 1-1.14-.828 3.999 3.999 0 0 1-.732-1.356c-.168-.544-.252-1.168-.252-1.872 0-.704.084-1.324.252-1.86.176-.544.42-.996.732-1.356.32-.368.7-.644 1.14-.828a3.74 3.74 0 0 1 1.488-.288c.544 0 1.036.096 1.476.288.448.184.828.46 1.14.828.32.36.564.812.732 1.356.176.536.264 1.156.264 1.86 0 .704-.088 1.328-.264 1.872a3.741 3.741 0 0 1-.732 1.356c-.312.36-.692.636-1.14.828-.44.184-.932.276-1.476.276Zm0-1.212c.32 0 .612-.056.876-.168.272-.112.5-.272.684-.48.192-.216.34-.476.444-.78.104-.304.156-.648.156-1.032v-1.32c0-.384-.052-.728-.156-1.032a2.133 2.133 0 0 0-.444-.768 1.768 1.768 0 0 0-.684-.492 2.22 2.22 0 0 0-.876-.168c-.328 0-.624.056-.888.168a1.895 1.895 0 0 0-.684.492 2.235 2.235 0 0 0-.432.768 3.178 3.178 0 0 0-.156 1.032v1.32c0 .384.052.728.156 1.032.104.304.248.564.432.78.192.208.42.368.684.48.264.112.56.168.888.168ZM51.604 12h-5.688v-1.296l2.676-2.388c.424-.384.748-.748.972-1.092.232-.352.348-.72.348-1.104v-.156c0-.408-.124-.728-.372-.96-.24-.232-.568-.348-.984-.348-.232 0-.436.036-.612.108a1.34 1.34 0 0 0-.444.276c-.128.12-.236.26-.324.42a2.64 2.64 0 0 0-.192.516l-1.188-.456c.088-.264.208-.516.36-.756a2.652 2.652 0 0 1 1.392-1.116c.32-.112.692-.168 1.116-.168.424 0 .804.064 1.14.192.336.12.616.292.84.516.232.216.408.476.528.78.12.304.18.636.18.996 0 .336-.052.648-.156.936-.104.288-.248.56-.432.816-.184.256-.4.5-.648.732a23 23 0 0 1-.768.708l-1.968 1.692h4.224V12ZM39.093 12v-1.128h2.352V4.608h-.096l-1.944 2.076-.828-.744 2.136-2.316h2.064v7.248h2.04V12h-5.724ZM33.7 10.332c.296 0 .516.076.66.228a.82.82 0 0 1 .216.588v.192c0 .392-.108.8-.324 1.224a3.18 3.18 0 0 1-.852 1.092h-.972c.256-.256.468-.504.636-.744.168-.24.296-.508.384-.804-.208-.04-.364-.128-.468-.264a.838.838 0 0 1-.156-.504v-.192a.82.82 0 0 1 .216-.588c.144-.152.364-.228.66-.228ZM30.5 4.644c-.271 0-.471-.064-.6-.192a.69.69 0 0 1-.18-.492v-.204c0-.2.06-.364.18-.492.129-.128.329-.192.6-.192.273 0 .468.064.588.192a.69.69 0 0 1 .18.492v.204c0 .2-.06.364-.18.492s-.316.192-.588.192Zm-.66 1.116h1.308V12H29.84V5.76ZM25.367 12V5.76h1.308v1.2h.06c.088-.32.272-.6.552-.84s.668-.36 1.164-.36h.348v1.26h-.516c-.52 0-.92.084-1.2.252a.82.82 0 0 0-.408.744V12h-1.308ZM19.032 12V3.624h5.232v1.2h-3.876v2.328h3.444v1.2h-3.444V12h-1.356Z" fill="#212529"/><path d="M12.667 2H12V.667h-1.333V2H5.333V.667H4V2h-.667c-.74 0-1.326.6-1.326 1.333L2 12.667C2 13.4 2.593 14 3.333 14h9.334C13.4 14 14 13.4 14 12.667V3.333C14 2.6 13.4 2 12.667 2Zm0 10.667H3.333V5.333h9.334v7.334Zm-8-6H8V10H4.667V6.667Z" fill="#495057"/></svg>