<svg width="106" height="32" fill="none" xmlns="http://www.w3.org/2000/svg"><path d="M0 4a4 4 0 0 1 4-4h98a4 4 0 0 1 4 4v24a4 4 0 0 1-4 4H4a4 4 0 0 1-4-4V4Z" fill="#F1F3F5"/><path d="M63.187 21c-.485 0-.849-.121-1.092-.364-.234-.251-.35-.598-.35-1.04V11.38h1.416v8.463h.936V21h-.91ZM59.556 21c-.485 0-.849-.121-1.091-.364-.235-.251-.352-.598-.352-1.04V11.38h1.418v8.463h.936V21h-.91ZM55.278 21l-.819-2.457h-3.393L50.273 21h-1.495l3.094-9.074h1.846L56.812 21h-1.534Zm-2.483-7.722h-.065l-1.313 4.004h2.678l-1.3-4.004ZM43.41 21.156c-.32 0-.559-.082-.715-.247a.918.918 0 0 1-.234-.637v-.195c0-.251.078-.46.234-.624.156-.173.395-.26.715-.26.321 0 .56.087.715.26a.871.871 0 0 1 .234.624v.195a.918.918 0 0 1-.234.637c-.156.165-.394.247-.715.247Zm0-5.109c-.32 0-.559-.082-.715-.247a.918.918 0 0 1-.234-.637v-.195c0-.251.078-.46.234-.624.156-.173.395-.26.715-.26.321 0 .56.087.715.26a.871.871 0 0 1 .234.624v.195a.918.918 0 0 1-.234.637c-.156.165-.394.247-.715.247ZM37.433 21v-6.76h1.417v1.3h.065c.095-.347.294-.65.598-.91.303-.26.724-.39 1.26-.39h.378v1.365h-.56c-.563 0-.996.091-1.3.273a.888.888 0 0 0-.441.806V21h-1.417ZM32.861 21.156a3.25 3.25 0 0 1-1.3-.247 2.731 2.731 0 0 1-.975-.702 3.338 3.338 0 0 1-.624-1.118 4.89 4.89 0 0 1-.208-1.469c0-.537.07-1.023.208-1.456.148-.442.355-.815.624-1.118.269-.312.594-.55.975-.715a3.25 3.25 0 0 1 1.3-.247c.494 0 .928.087 1.3.26.381.173.698.416.95.728.25.303.437.659.558 1.066.13.407.195.845.195 1.313v.533h-4.64v.221c0 .52.15.949.454 1.287.312.33.754.494 1.326.494.416 0 .767-.091 1.053-.273a2.38 2.38 0 0 0 .728-.741l.832.819c-.251.416-.615.75-1.092 1.001-.477.243-1.031.364-1.664.364Zm0-5.967a1.74 1.74 0 0 0-.676.13c-.2.087-.373.208-.52.364a1.695 1.695 0 0 0-.325.559 2.098 2.098 0 0 0-.117.715v.091h3.146v-.13c0-.52-.134-.936-.403-1.248-.269-.32-.637-.481-1.105-.481ZM27.384 21c-.494 0-.867-.126-1.118-.377-.251-.26-.377-.624-.377-1.092v-4.134h-1.053V14.24h.572c.234 0 .394-.052.48-.156.096-.104.144-.273.144-.507v-1.183h1.274v1.846h1.417v1.157h-1.417v4.446h1.313V21h-1.235ZM23.311 21c-.485 0-.849-.121-1.092-.364-.234-.251-.35-.598-.35-1.04V11.38h1.416v8.463h.936V21h-.91ZM19.143 13.031c-.295 0-.511-.07-.65-.208a.748.748 0 0 1-.195-.533v-.221c0-.217.065-.394.195-.533.139-.139.355-.208.65-.208.295 0 .507.07.637.208.13.139.195.316.195.533v.221a.748.748 0 0 1-.195.533c-.13.139-.342.208-.637.208Zm-.715 1.209h1.417V21h-1.417v-6.76ZM11.118 21v-9.074h5.668v1.3h-4.2v2.522h3.732v1.3h-3.731V21h-1.47ZM81.833 14.333 86 18.5l4.167-4.167h-8.334Z" fill="#212529"/></svg>