<svg width="62" height="62" fill="none" xmlns="http://www.w3.org/2000/svg"><g filter="url('#filter0_dd_1_544')"><circle cx="31" cy="29" r="27" fill="url('#paint0_linear_1_544')"/></g><path fill-rule="evenodd" clip-rule="evenodd" d="M36.659 20c-.25 0-.51.1-.7.29l-1.83 1.83 3.75 3.75 1.83-1.83a.996.996 0 0 0 0-1.41l-2.34-2.34c-.2-.2-.45-.29-.71-.29Zm-3.6 6.02.92.92-9.06 9.06h-.92v-.92l9.06-9.06Zm-11.06 8.23 11.06-11.06 3.75 3.75L25.749 38h-3.75v-3.75Z" fill="#fff"/><defs><linearGradient id="paint0_linear_1_544" x1="31" y1="2" x2="31" y2="56" gradientUnits="userSpaceOnUse"><stop stop-color="#FF5C5C"/><stop offset="1" stop-color="#F0568A"/></linearGradient><filter id="filter0_dd_1_544" x="0" y="0" width="62" height="62" filterUnits="userSpaceOnUse" color-interpolation-filters="sRGB"><feFlood flood-opacity="0" result="BackgroundImageFix"/><feColorMatrix in="SourceAlpha" values="0 0 0 0 0 0 0 0 0 0 0 0 0 0 0 0 0 0 127 0" result="hardAlpha"/><feOffset/><feGaussianBlur stdDeviation="1"/><feColorMatrix values="0 0 0 0 0 0 0 0 0 0 0 0 0 0 0 0 0 0 0.08 0"/><feBlend in2="BackgroundImageFix" result="effect1_dropShadow_1_544"/><feColorMatrix in="SourceAlpha" values="0 0 0 0 0 0 0 0 0 0 0 0 0 0 0 0 0 0 127 0" result="hardAlpha"/><feOffset dy="2"/><feGaussianBlur stdDeviation="2"/><feColorMatrix values="0 0 0 0 0 0 0 0 0 0 0 0 0 0 0 0 0 0 0.18 0"/><feBlend in2="effect1_dropShadow_1_544" result="effect2_dropShadow_1_544"/><feBlend in="SourceGraphic" in2="effect2_dropShadow_1_544" result="shape"/></filter></defs></svg>