<svg width="70" height="36" fill="none" xmlns="http://www.w3.org/2000/svg"><path d="M0 4a4 4 0 0 1 4-4h62a4 4 0 0 1 4 4v28a4 4 0 0 1-4 4H4a4 4 0 0 1-4-4V4Z" fill="#F1F3F5"/><path d="M21.5 21.06c-.57 0-1.08.225-1.47.578l-5.348-3.113c.038-.172.068-.345.068-.525 0-.18-.03-.352-.068-.525l5.288-3.083A2.24 2.24 0 0 0 21.5 15a2.247 2.247 0 0 0 2.25-2.25 2.247 2.247 0 0 0-2.25-2.25 2.247 2.247 0 0 0-2.25 2.25c0 .18.03.352.067.525l-5.287 3.083a2.24 2.24 0 0 0-1.53-.608A2.247 2.247 0 0 0 10.25 18a2.247 2.247 0 0 0 2.25 2.25 2.24 2.24 0 0 0 1.53-.608l5.34 3.12c-.038.158-.06.323-.06.488 0 1.207.983 2.19 2.19 2.19 1.207 0 2.19-.983 2.19-2.19 0-1.207-.983-2.19-2.19-2.19ZM57.899 23.144a2.82 2.82 0 0 1-1.152-.228 2.578 2.578 0 0 1-.876-.648 3.228 3.228 0 0 1-.564-1.02 4.398 4.398 0 0 1-.192-1.344c0-.488.064-.932.192-1.332.136-.4.324-.74.564-1.02.248-.288.54-.508.876-.66a2.82 2.82 0 0 1 1.152-.228c.416 0 .788.076 1.116.228.328.152.608.364.84.636.232.264.408.58.528.948.128.368.192.772.192 1.212v.456h-4.452v.288c0 .264.04.512.12.744.088.224.208.42.36.588.16.168.352.3.576.396.232.096.492.144.78.144.392 0 .732-.092 1.02-.276.296-.184.524-.448.684-.792l.684.492c-.2.424-.512.768-.936 1.032-.424.256-.928.384-1.512.384Zm0-5.676c-.264 0-.504.048-.72.144a1.608 1.608 0 0 0-.564.384 2.019 2.019 0 0 0-.492 1.344v.084h3.42v-.132c0-.552-.152-.992-.456-1.32-.296-.336-.692-.504-1.188-.504ZM51.223 23v-6.192h.96v1.14h.06a1.87 1.87 0 0 1 .6-.792c.288-.232.684-.348 1.188-.348h.372v.96h-.564c-.52 0-.928.1-1.224.3-.288.192-.432.436-.432.732V23h-.96ZM49.313 23c-.36 0-.62-.096-.78-.288a1.459 1.459 0 0 1-.288-.72h-.06c-.136.384-.36.672-.672.864-.312.192-.684.288-1.116.288-.656 0-1.168-.168-1.536-.504-.36-.336-.54-.792-.54-1.368 0-.584.212-1.032.636-1.344.432-.312 1.1-.468 2.004-.468h1.224v-.612c0-.44-.12-.776-.36-1.008-.24-.232-.608-.348-1.104-.348-.376 0-.692.084-.948.252a2.103 2.103 0 0 0-.624.672l-.576-.54c.168-.336.436-.62.804-.852.368-.24.832-.36 1.392-.36.752 0 1.336.184 1.752.552.416.368.624.88.624 1.536v3.408h.708V23h-.54Zm-2.76-.672c.24 0 .46-.028.66-.084.2-.056.372-.136.516-.24a1.19 1.19 0 0 0 .336-.36.86.86 0 0 0 .12-.444v-1.02h-1.272c-.552 0-.956.08-1.212.24a.778.778 0 0 0-.372.696v.252c0 .304.108.54.324.708.224.168.524.252.9.252ZM37.993 14.12h.96v3.696H39c.152-.352.364-.632.636-.84.28-.208.652-.312 1.116-.312.64 0 1.144.208 1.512.624.376.408.564.988.564 1.74V23h-.96v-3.804c0-1.112-.468-1.668-1.404-1.668-.192 0-.38.024-.564.072-.176.048-.336.12-.48.216-.144.096-.26.22-.348.372-.08.144-.12.316-.12.516V23h-.96v-8.88ZM33.468 23.144c-.68 0-1.26-.128-1.74-.384a3.757 3.757 0 0 1-1.224-1.08l.744-.624c.296.392.624.692.984.9.36.2.784.3 1.272.3.6 0 1.056-.144 1.368-.432.32-.288.48-.672.48-1.152 0-.4-.12-.708-.36-.924-.24-.216-.636-.388-1.188-.516l-.684-.156c-.768-.176-1.356-.44-1.764-.792-.4-.36-.6-.864-.6-1.512 0-.368.068-.696.204-.984.136-.288.324-.528.564-.72.248-.192.54-.336.876-.432.344-.104.72-.156 1.128-.156.632 0 1.172.116 1.62.348.456.232.84.572 1.152 1.02l-.756.552a2.606 2.606 0 0 0-.84-.756c-.328-.184-.736-.276-1.224-.276-.536 0-.96.116-1.272.348-.304.224-.456.564-.456 1.02 0 .4.128.704.384.912.264.2.66.36 1.188.48l.684.156c.824.184 1.42.464 1.788.84.368.376.552.876.552 1.5 0 .384-.068.732-.204 1.044a2.082 2.082 0 0 1-.564.792 2.641 2.641 0 0 1-.912.504 3.71 3.71 0 0 1-1.2.18Z" fill="#212529"/></svg>