<svg width="328" height="34" fill="none" xmlns="http://www.w3.org/2000/svg"><path d="M0 8a8 8 0 0 1 8-8h312a8 8 0 0 1 8 8v18a8 8 0 0 1-8 8H8a8 8 0 0 1-8-8V8Z" fill="#fff"/><path fill-rule="evenodd" clip-rule="evenodd" d="M320 .7H8A7.3 7.3 0 0 0 .7 8v18A7.3 7.3 0 0 0 8 33.3h312a7.3 7.3 0 0 0 7.3-7.3V8A7.3 7.3 0 0 0 320 .7ZM8 0a8 8 0 0 0-8 8v18a8 8 0 0 0 8 8h312a8 8 0 0 0 8-8V8a8 8 0 0 0-8-8H8Z" fill="#A9AEB8"/><path d="M219.496 22.156c-.65 0-1.196-.108-1.638-.325a3.857 3.857 0 0 1-1.17-.923l1.014-.988c.251.286.524.511.819.676.303.165.65.247 1.04.247.399 0 .685-.07.858-.208a.68.68 0 0 0 .273-.572c0-.2-.065-.355-.195-.468-.121-.121-.334-.204-.637-.247l-.676-.091c-.737-.095-1.3-.303-1.69-.624-.381-.33-.572-.806-.572-1.43 0-.33.061-.624.182-.884.121-.269.295-.494.52-.676.225-.19.494-.334.806-.429a3.444 3.444 0 0 1 1.066-.156c.329 0 .62.026.871.078.26.043.494.113.702.208.208.087.399.2.572.338.173.13.342.277.507.442l-.975.975a2.574 2.574 0 0 0-.715-.52 2.006 2.006 0 0 0-.91-.208c-.364 0-.628.065-.793.195a.629.629 0 0 0-.234.507c0 .225.065.399.195.52.139.113.368.195.689.247l.689.091c1.465.208 2.197.875 2.197 2.002a2.064 2.064 0 0 1-.767 1.612c-.243.19-.537.342-.884.455a3.884 3.884 0 0 1-1.144.156ZM209.478 12.38h1.664v3.952h.052c.121-.39.351-.698.689-.923a2.026 2.026 0 0 1 1.183-.351c.867 0 1.525.308 1.976.923.459.607.689 1.478.689 2.613 0 1.144-.23 2.024-.689 2.639-.451.615-1.109.923-1.976.923-.451 0-.845-.117-1.183-.351a1.829 1.829 0 0 1-.689-.936h-.052V22h-1.664v-9.62Zm3.055 8.398c.433 0 .784-.143 1.053-.429.269-.286.403-.672.403-1.157v-1.17c0-.485-.134-.871-.403-1.157-.269-.295-.62-.442-1.053-.442-.399 0-.732.1-1.001.299a.95.95 0 0 0-.39.793v2.158c0 .355.13.628.39.819.269.19.602.286 1.001.286ZM204.844 22.156c-.486 0-.923-.082-1.313-.247a2.775 2.775 0 0 1-.988-.715 3.327 3.327 0 0 1-.624-1.118 4.65 4.65 0 0 1-.221-1.482c0-.546.073-1.036.221-1.469.147-.433.355-.802.624-1.105.277-.312.606-.55.988-.715.39-.165.827-.247 1.313-.247.485 0 .923.082 1.313.247.39.165.719.403.988.715a3.1 3.1 0 0 1 .637 1.105c.147.433.221.923.221 1.469s-.074 1.04-.221 1.482c-.148.433-.36.806-.637 1.118-.269.312-.598.55-.988.715-.39.165-.828.247-1.313.247Zm0-1.339c.442 0 .788-.134 1.04-.403.251-.269.377-.663.377-1.183V17.97c0-.511-.126-.901-.377-1.17-.252-.269-.598-.403-1.04-.403-.434 0-.776.134-1.027.403-.252.269-.377.659-.377 1.17v1.261c0 .52.125.914.377 1.183.251.269.593.403 1.027.403ZM198.56 15.214h1.664v7.605c0 .572-.143 1.01-.429 1.313-.286.312-.741.468-1.365.468h-.91v-1.326h1.04v-8.06Zm.832-.988c-.347 0-.598-.078-.754-.234a.837.837 0 0 1-.221-.598v-.26c0-.243.074-.442.221-.598.156-.156.407-.234.754-.234.338 0 .585.078.741.234a.81.81 0 0 1 .234.598v.26a.81.81 0 0 1-.234.598c-.156.156-.403.234-.741.234ZM194.296 22.156c-.65 0-1.196-.108-1.638-.325a3.857 3.857 0 0 1-1.17-.923l1.014-.988c.251.286.524.511.819.676.303.165.65.247 1.04.247.398 0 .684-.07.858-.208a.68.68 0 0 0 .273-.572c0-.2-.065-.355-.195-.468-.122-.121-.334-.204-.637-.247l-.676-.091c-.737-.095-1.3-.303-1.69-.624-.382-.33-.572-.806-.572-1.43 0-.33.06-.624.182-.884.121-.269.294-.494.52-.676.225-.19.494-.334.806-.429.32-.104.676-.156 1.066-.156.329 0 .619.026.871.078.26.043.494.113.702.208.208.087.398.2.572.338.173.13.342.277.507.442l-.975.975a2.59 2.59 0 0 0-.715-.52 2.009 2.009 0 0 0-.91-.208c-.364 0-.629.065-.793.195a.629.629 0 0 0-.234.507c0 .225.065.399.195.52.138.113.368.195.689.247l.689.091c1.464.208 2.197.875 2.197 2.002 0 .33-.07.633-.208.91-.13.269-.317.503-.559.702-.243.19-.538.342-.884.455-.338.104-.72.156-1.144.156ZM187.567 22.156a3.51 3.51 0 0 1-1.352-.247 2.974 2.974 0 0 1-1.001-.715 3.327 3.327 0 0 1-.624-1.118 4.65 4.65 0 0 1-.221-1.482c0-.537.069-1.023.208-1.456.147-.433.355-.802.624-1.105.268-.312.598-.55.988-.715.39-.173.832-.26 1.326-.26.528 0 .988.091 1.378.273.39.182.71.429.962.741.251.312.437.676.559 1.092.13.407.195.845.195 1.313v.546h-4.511v.169c0 .494.138.893.416 1.196.277.295.689.442 1.235.442.416 0 .754-.087 1.014-.26.268-.173.507-.394.715-.663l.897 1.001c-.278.39-.659.698-1.144.923-.477.217-1.032.325-1.664.325Zm-.026-5.85c-.442 0-.793.147-1.053.442-.26.295-.39.676-.39 1.144v.104h2.782v-.117c0-.468-.117-.845-.351-1.131-.226-.295-.555-.442-.988-.442ZM173.284 22v-6.786h1.664v1.131h.065a2.2 2.2 0 0 1 .624-.91c.286-.251.684-.377 1.196-.377.468 0 .871.113 1.209.338.338.225.589.568.754 1.027h.026c.121-.381.359-.702.715-.962.364-.269.819-.403 1.365-.403.667 0 1.178.23 1.534.689.364.46.546 1.114.546 1.963V22h-1.664v-4.121c0-.97-.364-1.456-1.092-1.456a1.51 1.51 0 0 0-.481.078 1.181 1.181 0 0 0-.403.208.953.953 0 0 0-.273.338.974.974 0 0 0-.104.468V22h-1.664v-4.121c0-.97-.364-1.456-1.092-1.456-.156 0-.312.026-.468.078a1.181 1.181 0 0 0-.403.208c-.113.087-.208.2-.286.338a.974.974 0 0 0-.104.468V22h-1.664ZM170.523 14.226c-.347 0-.598-.078-.754-.234a.837.837 0 0 1-.221-.598v-.26c0-.243.074-.442.221-.598.156-.156.407-.234.754-.234.338 0 .585.078.741.234a.81.81 0 0 1 .234.598v.26a.81.81 0 0 1-.234.598c-.156.156-.403.234-.741.234Zm-.832.988h1.664V22h-1.664v-6.786ZM165.816 14.447V22H164.1v-7.553h-2.574v-1.521h6.864v1.521h-2.574ZM151.435 22v-6.786h1.664v1.131h.065c.139-.364.355-.667.65-.91.303-.251.719-.377 1.248-.377.702 0 1.239.23 1.612.689.373.46.559 1.114.559 1.963V22h-1.664v-4.121c0-.485-.087-.85-.26-1.092-.173-.243-.459-.364-.858-.364-.173 0-.342.026-.507.078a1.314 1.314 0 0 0-.429.208 1.03 1.03 0 0 0-.299.338.893.893 0 0 0-.117.468V22h-1.664ZM146.801 22.156c-.486 0-.923-.082-1.313-.247a2.775 2.775 0 0 1-.988-.715 3.327 3.327 0 0 1-.624-1.118 4.65 4.65 0 0 1-.221-1.482c0-.546.073-1.036.221-1.469.147-.433.355-.802.624-1.105.277-.312.606-.55.988-.715.39-.165.827-.247 1.313-.247.485 0 .923.082 1.313.247.39.165.719.403.988.715a3.1 3.1 0 0 1 .637 1.105c.147.433.221.923.221 1.469s-.074 1.04-.221 1.482c-.148.433-.36.806-.637 1.118-.269.312-.598.55-.988.715-.39.165-.828.247-1.313.247Zm0-1.339c.442 0 .788-.134 1.04-.403.251-.269.377-.663.377-1.183V17.97c0-.511-.126-.901-.377-1.17-.252-.269-.598-.403-1.04-.403-.434 0-.776.134-1.027.403-.252.269-.377.659-.377 1.17v1.261c0 .52.125.914.377 1.183.251.269.593.403 1.027.403ZM138.38 15.214h1.56l-2.73 7.995c-.086.243-.186.45-.299.624-.104.182-.229.33-.377.442a1.438 1.438 0 0 1-.533.247c-.208.052-.45.078-.728.078h-1.001v-1.326h1.222l.312-.949-2.431-7.111h1.651l1.183 3.588.442 1.716h.078l.468-1.716 1.183-3.588ZM132.152 22c-.572 0-.993-.143-1.261-.429-.269-.286-.403-.689-.403-1.209V12.38h1.664v8.294h.897V22h-.897ZM122.693 15.214h1.664v1.118h.052c.121-.39.351-.698.689-.923a2.026 2.026 0 0 1 1.183-.351c.867 0 1.525.308 1.976.923.459.607.689 1.478.689 2.613 0 1.144-.23 2.024-.689 2.639-.451.615-1.109.923-1.976.923-.451 0-.845-.117-1.183-.351a1.829 1.829 0 0 1-.689-.936h-.052V24.6h-1.664v-9.386Zm3.055 5.564c.433 0 .784-.143 1.053-.429.269-.286.403-.672.403-1.157v-1.17c0-.485-.134-.871-.403-1.157-.269-.295-.62-.442-1.053-.442-.399 0-.732.1-1.001.299a.95.95 0 0 0-.39.793v2.158c0 .355.13.628.39.819.269.19.602.286 1.001.286ZM114.898 15.214h1.664v1.118h.052c.121-.39.351-.698.689-.923a2.026 2.026 0 0 1 1.183-.351c.867 0 1.525.308 1.976.923.459.607.689 1.478.689 2.613 0 1.144-.23 2.024-.689 2.639-.451.615-1.109.923-1.976.923-.451 0-.845-.117-1.183-.351a1.829 1.829 0 0 1-.689-.936h-.052V24.6h-1.664v-9.386Zm3.055 5.564c.433 0 .784-.143 1.053-.429.269-.286.403-.672.403-1.157v-1.17c0-.485-.134-.871-.403-1.157-.269-.295-.62-.442-1.053-.442-.399 0-.732.1-1.001.299a.95.95 0 0 0-.39.793v2.158c0 .355.13.628.39.819.269.19.602.286 1.001.286ZM111.884 22l-.728-2.314h-3.224L107.217 22h-1.742l3.042-9.074h2.132L113.665 22h-1.781Zm-2.314-7.514h-.065l-1.157 3.731h2.392l-1.17-3.731Z" fill="#02B875"/></svg>