<svg width="76" height="28" fill="none" xmlns="http://www.w3.org/2000/svg"><path fill-rule="evenodd" clip-rule="evenodd" d="M72 .8H4A3.2 3.2 0 0 0 .8 4v20A3.2 3.2 0 0 0 4 27.2h68a3.2 3.2 0 0 0 3.2-3.2V4A3.2 3.2 0 0 0 72 .8ZM4 0a4 4 0 0 0-4 4v20a4 4 0 0 0 4 4h68a4 4 0 0 0 4-4V4a4 4 0 0 0-4-4H4Z" fill="#fff"/><path d="M61.788 12.76h1.308v1.032h.06c.136-.376.356-.664.66-.864a1.922 1.922 0 0 1 1.092-.312c.792 0 1.404.288 1.836.864.432.568.648 1.368.648 2.4 0 1.032-.216 1.836-.648 2.412-.432.568-1.044.852-1.836.852-.416 0-.78-.104-1.092-.312a1.751 1.751 0 0 1-.66-.864h-.06V21.4h-1.308v-8.64Zm2.724 5.256c.456 0 .82-.144 1.092-.432.272-.296.408-.684.408-1.164v-1.08c0-.48-.136-.864-.408-1.152-.272-.296-.636-.444-1.092-.444-.4 0-.736.1-1.008.3a.896.896 0 0 0-.408.768v2.136c0 .32.136.58.408.78.272.192.608.288 1.008.288ZM58.607 17.968h-.048c-.056.152-.132.3-.228.444a1.433 1.433 0 0 1-.348.384 1.651 1.651 0 0 1-.504.252 2.127 2.127 0 0 1-.672.096c-.648 0-1.152-.208-1.512-.624-.352-.416-.528-1.012-.528-1.788V12.76h1.308v3.804c0 .968.4 1.452 1.2 1.452.168 0 .332-.02.492-.06.16-.048.3-.116.42-.204a.931.931 0 0 0 .3-.336.93.93 0 0 0 .12-.48V12.76h1.308V19h-1.308v-1.032ZM50.501 19.144c-.432 0-.828-.076-1.188-.228a2.52 2.52 0 0 1-.9-.648 3.082 3.082 0 0 1-.576-1.032 4.27 4.27 0 0 1-.204-1.356c0-.496.068-.944.204-1.344.136-.408.328-.752.576-1.032.248-.288.548-.508.9-.66.36-.152.756-.228 1.188-.228.432 0 .824.076 1.176.228.36.152.664.372.912.66.248.28.44.624.576 1.032.136.4.204.848.204 1.344 0 .496-.068.948-.204 1.356-.136.4-.328.744-.576 1.032-.248.28-.552.496-.912.648a2.937 2.937 0 0 1-1.176.228Zm0-1.08c.448 0 .808-.136 1.08-.408.272-.28.408-.696.408-1.248v-1.056c0-.552-.136-.964-.408-1.236-.272-.28-.632-.42-1.08-.42-.448 0-.808.14-1.08.42-.272.272-.408.684-.408 1.236v1.056c0 .552.136.968.408 1.248.272.272.632.408 1.08.408ZM43.518 19v-6.24h1.308v1.2h.06c.088-.32.272-.6.552-.84s.668-.36 1.164-.36h.348v1.26h-.516c-.52 0-.92.084-1.2.252a.82.82 0 0 0-.408.744V19h-1.308ZM40.541 17.728h-.048c-.088.408-.328.748-.72 1.02-.384.264-.896.396-1.536.396-.496 0-.956-.092-1.38-.276a3.186 3.186 0 0 1-1.104-.828 4.124 4.124 0 0 1-.72-1.356c-.168-.544-.252-1.168-.252-1.872 0-.696.088-1.312.264-1.848.176-.544.424-1 .744-1.368.32-.368.704-.644 1.152-.828a3.77 3.77 0 0 1 1.5-.288c.752 0 1.388.168 1.908.504.52.328.924.788 1.212 1.38l-1.104.648a2.127 2.127 0 0 0-.744-.948c-.336-.248-.76-.372-1.272-.372-.664 0-1.2.212-1.608.636-.4.424-.6 1.024-.6 1.8v1.368c0 .776.2 1.376.6 1.8.408.424.944.636 1.608.636.264 0 .516-.032.756-.096.24-.072.448-.172.624-.3.184-.136.328-.3.432-.492a1.4 1.4 0 0 0 .168-.696V15.7h-1.728v-1.164h3.036V19h-1.188v-1.272ZM25.26 19v-6.24h1.308v1.032h.06a2.08 2.08 0 0 1 .612-.84c.28-.224.66-.336 1.14-.336.64 0 1.136.212 1.488.636.36.416.54 1.012.54 1.788V19H29.1v-3.792c0-.976-.392-1.464-1.176-1.464-.168 0-.336.024-.504.072a1.32 1.32 0 0 0-.432.192c-.128.088-.232.2-.312.336a1.012 1.012 0 0 0-.108.48V19H25.26ZM22.744 11.644c-.272 0-.472-.064-.6-.192a.69.69 0 0 1-.18-.492v-.204c0-.2.06-.364.18-.492.128-.128.328-.192.6-.192.272 0 .468.064.588.192a.69.69 0 0 1 .18.492v.204c0 .2-.06.364-.18.492s-.316.192-.588.192Zm-.66 1.116h1.308V19h-1.308v-6.24ZM17.759 19.144c-.432 0-.828-.076-1.188-.228a2.52 2.52 0 0 1-.9-.648 3.082 3.082 0 0 1-.576-1.032 4.27 4.27 0 0 1-.204-1.356c0-.496.068-.944.204-1.344.136-.408.328-.752.576-1.032.248-.288.548-.508.9-.66.36-.152.756-.228 1.188-.228.432 0 .824.076 1.176.228.36.152.664.372.912.66.248.28.44.624.576 1.032.136.4.204.848.204 1.344 0 .496-.068.948-.204 1.356-.136.4-.328.744-.576 1.032-.248.28-.552.496-.912.648a2.937 2.937 0 0 1-1.176.228Zm0-1.08c.448 0 .808-.136 1.08-.408.272-.28.408-.696.408-1.248v-1.056c0-.552-.136-.964-.408-1.236-.272-.28-.632-.42-1.08-.42-.448 0-.808.14-1.08.42-.272.272-.408.684-.408 1.236v1.056c0 .552.136.968.408 1.248.272.272.632.408 1.08.408ZM13.388 10.624v6.096c0 .368-.06.7-.18.996-.12.296-.292.552-.516.768a2.311 2.311 0 0 1-.804.492c-.312.112-.66.168-1.044.168-.728 0-1.304-.192-1.728-.576-.416-.392-.68-.9-.792-1.524l1.248-.276c.072.36.208.644.408.852.208.208.496.312.864.312.36 0 .648-.112.864-.336.216-.224.324-.564.324-1.02v-4.824H9.296v-1.128h4.092Z" fill="#fff"/></svg>