<svg width="246" height="16" fill="none" xmlns="http://www.w3.org/2000/svg"><path d="M170 1.333A4.664 4.664 0 0 0 165.333 6c0 3.5 4.667 8.667 4.667 8.667S174.667 9.5 174.667 6A4.664 4.664 0 0 0 170 1.333ZM166.667 6A3.334 3.334 0 0 1 170 2.667 3.334 3.334 0 0 1 173.333 6c0 1.92-1.92 4.793-3.333 6.587-1.387-1.78-3.333-4.687-3.333-6.587Z" fill="#495057"/><path d="M170 7.667a1.667 1.667 0 1 0 0-3.335 1.667 1.667 0 0 0 0 3.335Z" fill="#495057"/><path d="M245.055 12c-.344 0-.608-.096-.792-.288a1.344 1.344 0 0 1-.336-.756h-.06c-.12.392-.34.688-.66.888-.32.2-.708.3-1.164.3-.648 0-1.148-.168-1.5-.504-.344-.336-.516-.788-.516-1.356 0-.624.224-1.092.672-1.404.456-.312 1.12-.468 1.992-.468h1.128v-.528c0-.384-.104-.68-.312-.888-.208-.208-.532-.312-.972-.312-.368 0-.668.08-.9.24-.232.16-.428.364-.588.612l-.78-.708c.208-.352.5-.64.876-.864.376-.232.868-.348 1.476-.348.808 0 1.428.188 1.86.564.432.376.648.916.648 1.62v3.132h.66V12h-.732Zm-2.64-.852c.408 0 .744-.088 1.008-.264.264-.184.396-.428.396-.732v-.9h-1.104c-.904 0-1.356.28-1.356.84v.216c0 .28.092.492.276.636.192.136.452.204.78.204ZM238.087 4.644c-.272 0-.472-.064-.6-.192a.69.69 0 0 1-.18-.492v-.204c0-.2.06-.364.18-.492.128-.128.328-.192.6-.192.272 0 .468.064.588.192a.69.69 0 0 1 .18.492v.204c0 .2-.06.364-.18.492s-.316.192-.588.192Zm-.66 1.116h1.308V12h-1.308V5.76ZM234.37 10.968h-.06c-.136.368-.36.656-.672.864-.304.208-.664.312-1.08.312-.792 0-1.404-.284-1.836-.852-.432-.576-.648-1.38-.648-2.412s.216-1.832.648-2.4c.432-.576 1.044-.864 1.836-.864.416 0 .776.104 1.08.312.312.2.536.488.672.864h.06V3.12h1.308V12h-1.308v-1.032Zm-1.416.048c.4 0 .736-.096 1.008-.288.272-.2.408-.46.408-.78V7.812a.896.896 0 0 0-.408-.768c-.272-.2-.608-.3-1.008-.3-.456 0-.82.148-1.092.444-.272.288-.408.672-.408 1.152v1.08c0 .48.136.868.408 1.164.272.288.636.432 1.092.432ZM223.605 12V5.76h1.308v1.032h.06a2.08 2.08 0 0 1 .612-.84c.28-.224.66-.336 1.14-.336.64 0 1.136.212 1.488.636.36.416.54 1.012.54 1.788V12h-1.308V8.208c0-.976-.392-1.464-1.176-1.464-.168 0-.336.024-.504.072a1.32 1.32 0 0 0-.432.192c-.128.088-.232.2-.312.336a1.012 1.012 0 0 0-.108.48V12h-1.308ZM218.469 12v-1.104h1.14V4.728h-1.14V3.624h3.648v1.104h-1.152v6.168h1.152V12h-3.648ZM213.46 10.332c.296 0 .516.076.66.228a.82.82 0 0 1 .216.588v.192c0 .392-.108.8-.324 1.224a3.18 3.18 0 0 1-.852 1.092h-.972c.256-.256.468-.504.636-.744.168-.24.296-.508.384-.804-.208-.04-.364-.128-.468-.264a.838.838 0 0 1-.156-.504v-.192a.82.82 0 0 1 .216-.588c.144-.152.364-.228.66-.228ZM210.645 12c-.344 0-.608-.096-.792-.288a1.344 1.344 0 0 1-.336-.756h-.06c-.12.392-.34.688-.66.888-.32.2-.708.3-1.164.3-.648 0-1.148-.168-1.5-.504-.344-.336-.516-.788-.516-1.356 0-.624.224-1.092.672-1.404.456-.312 1.12-.468 1.992-.468h1.128v-.528c0-.384-.104-.68-.312-.888-.208-.208-.532-.312-.972-.312-.368 0-.668.08-.9.24-.232.16-.428.364-.588.612l-.78-.708c.208-.352.5-.64.876-.864.376-.232.868-.348 1.476-.348.808 0 1.428.188 1.86.564.432.376.648.916.648 1.62v3.132h.66V12h-.732Zm-2.64-.852c.408 0 .744-.088 1.008-.264.264-.184.396-.428.396-.732v-.9h-1.104c-.904 0-1.356.28-1.356.84v.216c0 .28.092.492.276.636.192.136.452.204.78.204ZM203.016 10.968h-.06c-.136.368-.36.656-.672.864-.304.208-.664.312-1.08.312-.792 0-1.404-.284-1.836-.852-.432-.576-.648-1.38-.648-2.412s.216-1.832.648-2.4c.432-.576 1.044-.864 1.836-.864.416 0 .776.104 1.08.312.312.2.536.488.672.864h.06V3.12h1.308V12h-1.308v-1.032Zm-1.416.048c.4 0 .736-.096 1.008-.288.272-.2.408-.46.408-.78V7.812a.896.896 0 0 0-.408-.768c-.272-.2-.608-.3-1.008-.3-.456 0-.82.148-1.092.444-.272.288-.408.672-.408 1.152v1.08c0 .48.136.868.408 1.164.272.288.636.432 1.092.432ZM196.696 4.644c-.272 0-.472-.064-.6-.192a.69.69 0 0 1-.18-.492v-.204c0-.2.06-.364.18-.492.128-.128.328-.192.6-.192.272 0 .468.064.588.192a.69.69 0 0 1 .18.492v.204c0 .2-.06.364-.18.492s-.316.192-.588.192Zm-.66 1.116h1.308V12h-1.308V5.76ZM191.83 12.144c-.432 0-.828-.076-1.188-.228a2.52 2.52 0 0 1-.9-.648 3.082 3.082 0 0 1-.576-1.032 4.27 4.27 0 0 1-.204-1.356c0-.496.068-.944.204-1.344.136-.408.328-.752.576-1.032.248-.288.548-.508.9-.66.36-.152.756-.228 1.188-.228.432 0 .824.076 1.176.228.36.152.664.372.912.66.248.28.44.624.576 1.032.136.4.204.848.204 1.344 0 .496-.068.948-.204 1.356-.136.4-.328.744-.576 1.032-.248.28-.552.496-.912.648a2.937 2.937 0 0 1-1.176.228Zm0-1.08c.448 0 .808-.136 1.08-.408.272-.28.408-.696.408-1.248V8.352c0-.552-.136-.964-.408-1.236-.272-.28-.632-.42-1.08-.42-.448 0-.808.14-1.08.42-.272.272-.408.684-.408 1.236v1.056c0 .552.136.968.408 1.248.272.272.632.408 1.08.408ZM183.288 7.368l-.924-1.776h-.036V12h-1.296V3.624h1.512l2.736 4.632.924 1.776h.036V3.624h1.296V12h-1.512l-2.736-4.632ZM133.248 12.144c-.296 0-.516-.076-.66-.228a.847.847 0 0 1-.216-.588v-.18c0-.232.072-.424.216-.576.144-.16.364-.24.66-.24.296 0 .516.08.66.24a.804.804 0 0 1 .216.576v.18a.847.847 0 0 1-.216.588c-.144.152-.364.228-.66.228ZM129.887 12.144c-.296 0-.516-.076-.66-.228a.847.847 0 0 1-.216-.588v-.18c0-.232.072-.424.216-.576.144-.16.364-.24.66-.24.296 0 .516.08.66.24a.804.804 0 0 1 .216.576v.18a.847.847 0 0 1-.216.588c-.144.152-.364.228-.66.228ZM126.527 12.144c-.296 0-.516-.076-.66-.228a.847.847 0 0 1-.216-.588v-.18c0-.232.072-.424.216-.576.144-.16.364-.24.66-.24.296 0 .516.08.66.24a.804.804 0 0 1 .216.576v.18a.847.847 0 0 1-.216.588c-.144.152-.364.228-.66.228ZM122.137 12.144a3 3 0 0 1-1.2-.228 2.41 2.41 0 0 1-.888-.648 3.038 3.038 0 0 1-.552-1.032 4.515 4.515 0 0 1-.192-1.356c0-.496.064-.944.192-1.344.128-.408.312-.752.552-1.032.24-.288.536-.508.888-.66a3 3 0 0 1 1.2-.228c.624 0 1.136.14 1.536.42.4.28.692.652.876 1.116l-1.08.504a1.305 1.305 0 0 0-.468-.684c-.216-.176-.504-.264-.864-.264-.48 0-.844.152-1.092.456-.24.296-.36.684-.36 1.164v1.116c0 .48.12.872.36 1.176.248.296.612.444 1.092.444.384 0 .688-.092.912-.276.232-.192.416-.444.552-.756l.996.528c-.208.512-.52.904-.936 1.176-.416.272-.924.408-1.524.408ZM117.33 4.644c-.272 0-.472-.064-.6-.192a.69.69 0 0 1-.18-.492v-.204c0-.2.06-.364.18-.492.128-.128.328-.192.6-.192.272 0 .468.064.588.192a.69.69 0 0 1 .18.492v.204c0 .2-.06.364-.18.492s-.316.192-.588.192Zm-.66 1.116h1.308V12h-1.308V5.76ZM114.135 12c-.456 0-.8-.116-1.032-.348-.232-.24-.348-.576-.348-1.008V6.828h-.972V5.76h.528c.216 0 .364-.048.444-.144.088-.096.132-.252.132-.468V4.056h1.176V5.76h1.308v1.068h-1.308v4.104h1.212V12h-1.14ZM110.191 5.76h1.26l-2.628 7.476a2.319 2.319 0 0 1-.252.528 1.09 1.09 0 0 1-.324.36c-.12.096-.268.164-.444.204a2.39 2.39 0 0 1-.624.072h-.756v-1.068h1.056l.36-1.056-2.268-6.516h1.308l1.248 3.672.36 1.356h.06l.396-1.356 1.248-3.672ZM104.487 12c-.448 0-.784-.112-1.008-.336-.216-.232-.324-.552-.324-.96V3.12h1.308v7.812h.864V12h-.84ZM101.261 12c-.344 0-.608-.096-.792-.288a1.344 1.344 0 0 1-.336-.756h-.06c-.12.392-.34.688-.66.888-.32.2-.708.3-1.164.3-.648 0-1.148-.168-1.5-.504-.344-.336-.516-.788-.516-1.356 0-.624.224-1.092.672-1.404.456-.312 1.12-.468 1.992-.468h1.128v-.528c0-.384-.104-.68-.312-.888-.208-.208-.532-.312-.972-.312-.368 0-.668.08-.9.24-.232.16-.428.364-.588.612l-.78-.708c.208-.352.5-.64.876-.864.376-.232.868-.348 1.476-.348.808 0 1.428.188 1.86.564.432.376.648.916.648 1.62v3.132h.66V12h-.732Zm-2.64-.852c.408 0 .744-.088 1.008-.264.264-.184.396-.428.396-.732v-.9h-1.104c-.904 0-1.356.28-1.356.84v.216c0 .28.092.492.276.636.192.136.452.204.78.204ZM89.848 12V5.76h1.308v1.032h.06a2.08 2.08 0 0 1 .612-.84c.28-.224.66-.336 1.14-.336.64 0 1.136.212 1.488.636.36.416.54 1.012.54 1.788V12h-1.308V8.208c0-.976-.392-1.464-1.176-1.464-.168 0-.336.024-.504.072a1.32 1.32 0 0 0-.432.192c-.128.088-.232.2-.312.336a1.012 1.012 0 0 0-.108.48V12h-1.308ZM87.35 12l-.756-2.268h-3.132L82.73 12h-1.38l2.856-8.376h1.704L88.766 12H87.35Zm-2.292-7.128h-.06l-1.212 3.696h2.472l-1.2-3.696ZM74.833 12V5.76h1.308v1.2h.06c.088-.32.272-.6.552-.84s.668-.36 1.164-.36h.348v1.26h-.516c-.52 0-.92.084-1.2.252a.82.82 0 0 0-.408.744V12h-1.308ZM70.733 12.144a3 3 0 0 1-1.2-.228 2.52 2.52 0 0 1-.9-.648 3.082 3.082 0 0 1-.576-1.032 4.515 4.515 0 0 1-.192-1.356c0-.496.064-.944.192-1.344.136-.408.328-.752.576-1.032.248-.288.548-.508.9-.66a3 3 0 0 1 1.2-.228c.456 0 .856.08 1.2.24.352.16.644.384.876.672.232.28.404.608.516.984.12.376.18.78.18 1.212v.492H69.22v.204c0 .48.14.876.42 1.188.288.304.696.456 1.224.456.384 0 .708-.084.972-.252.264-.168.488-.396.672-.684l.768.756a2.513 2.513 0 0 1-1.008.924c-.44.224-.952.336-1.536.336Zm0-5.508c-.224 0-.432.04-.624.12-.184.08-.344.192-.48.336a1.564 1.564 0 0 0-.3.516c-.072.2-.108.42-.108.66v.084h2.904v-.12c0-.48-.124-.864-.372-1.152-.248-.296-.588-.444-1.02-.444ZM64.77 12.144a3 3 0 0 1-1.2-.228 2.41 2.41 0 0 1-.888-.648 3.038 3.038 0 0 1-.552-1.032 4.515 4.515 0 0 1-.192-1.356c0-.496.064-.944.192-1.344.128-.408.312-.752.552-1.032.24-.288.536-.508.888-.66a3 3 0 0 1 1.2-.228c.624 0 1.136.14 1.536.42.4.28.692.652.876 1.116l-1.08.504a1.305 1.305 0 0 0-.468-.684c-.216-.176-.504-.264-.864-.264-.48 0-.844.152-1.092.456-.24.296-.36.684-.36 1.164v1.116c0 .48.12.872.36 1.176.248.296.612.444 1.092.444.384 0 .688-.092.912-.276.232-.192.416-.444.552-.756l.996.528c-.208.512-.52.904-.936 1.176-.416.272-.924.408-1.524.408ZM58.843 12.144a3 3 0 0 1-1.2-.228 2.41 2.41 0 0 1-.888-.648 3.038 3.038 0 0 1-.552-1.032 4.515 4.515 0 0 1-.192-1.356c0-.496.064-.944.192-1.344.128-.408.312-.752.552-1.032.24-.288.536-.508.888-.66a3 3 0 0 1 1.2-.228c.624 0 1.136.14 1.536.42.4.28.692.652.876 1.116l-1.08.504a1.305 1.305 0 0 0-.468-.684c-.216-.176-.504-.264-.864-.264-.48 0-.844.152-1.092.456-.24.296-.36.684-.36 1.164v1.116c0 .48.12.872.36 1.176.248.296.612.444 1.092.444.384 0 .688-.092.912-.276.232-.192.416-.444.552-.756l.996.528c-.208.512-.52.904-.936 1.176-.416.272-.924.408-1.524.408ZM54.537 12c-.344 0-.608-.096-.792-.288a1.344 1.344 0 0 1-.336-.756h-.06c-.12.392-.34.688-.66.888-.32.2-.708.3-1.164.3-.648 0-1.148-.168-1.5-.504-.344-.336-.516-.788-.516-1.356 0-.624.224-1.092.672-1.404.456-.312 1.12-.468 1.992-.468h1.128v-.528c0-.384-.104-.68-.312-.888-.208-.208-.532-.312-.972-.312-.368 0-.668.08-.9.24-.232.16-.428.364-.588.612l-.78-.708c.208-.352.5-.64.876-.864.376-.232.868-.348 1.476-.348.808 0 1.428.188 1.86.564.432.376.648.916.648 1.62v3.132h.66V12h-.732Zm-2.64-.852c.408 0 .744-.088 1.008-.264.264-.184.396-.428.396-.732v-.9h-1.104c-.904 0-1.356.28-1.356.84v.216c0 .28.092.492.276.636.192.136.452.204.78.204ZM45.406 12l-2.124-6.24h1.296l.948 2.844.636 2.184h.072l.636-2.184.972-2.844h1.248L46.942 12h-1.536ZM39.938 12.144c-.432 0-.828-.076-1.188-.228a2.52 2.52 0 0 1-.9-.648 3.082 3.082 0 0 1-.576-1.032 4.27 4.27 0 0 1-.204-1.356c0-.496.068-.944.204-1.344.136-.408.328-.752.576-1.032.248-.288.548-.508.9-.66.36-.152.756-.228 1.188-.228.432 0 .824.076 1.176.228.36.152.664.372.912.66.248.28.44.624.576 1.032.136.4.204.848.204 1.344 0 .496-.068.948-.204 1.356-.136.4-.328.744-.576 1.032-.248.28-.552.496-.912.648a2.937 2.937 0 0 1-1.176.228Zm0-1.08c.448 0 .808-.136 1.08-.408.272-.28.408-.696.408-1.248V8.352c0-.552-.136-.964-.408-1.236-.272-.28-.632-.42-1.08-.42-.448 0-.808.14-1.08.42-.272.272-.408.684-.408 1.236v1.056c0 .552.136.968.408 1.248.272.272.632.408 1.08.408ZM30.65 12V5.76h1.307v1.032h.06a2.08 2.08 0 0 1 .612-.84c.28-.224.66-.336 1.14-.336.64 0 1.136.212 1.488.636.36.416.54 1.012.54 1.788V12H34.49V8.208c0-.976-.392-1.464-1.176-1.464-.168 0-.336.024-.504.072a1.32 1.32 0 0 0-.432.192c-.128.088-.232.2-.312.336a1.012 1.012 0 0 0-.108.48V12H30.65ZM23.808 12V5.76h1.308v1.032h.06a2.08 2.08 0 0 1 .612-.84c.28-.224.66-.336 1.14-.336.64 0 1.136.212 1.488.636.36.416.54 1.012.54 1.788V12h-1.308V8.208c0-.976-.392-1.464-1.176-1.464-.168 0-.336.024-.504.072a1.32 1.32 0 0 0-.432.192c-.128.088-.232.2-.312.336a1.012 1.012 0 0 0-.108.48V12h-1.308ZM18.672 12v-1.104h1.14V4.728h-1.14V3.624h3.648v1.104h-1.152v6.168h1.152V12h-3.648Z" fill="#212529"/><path d="M9.333 4V2.667H6.667V4h2.666ZM2.667 5.333v7.334h10.666V5.333H2.667ZM13.333 4c.74 0 1.334.593 1.334 1.333v7.334c0 .74-.594 1.333-1.334 1.333H2.667c-.74 0-1.334-.593-1.334-1.333l.007-7.334C1.34 4.593 1.927 4 2.667 4h2.666V2.667c0-.74.594-1.334 1.334-1.334h2.666c.74 0 1.334.594 1.334 1.334V4h2.666Z" fill="#495057"/></svg>