<svg width="328" height="34" fill="none" xmlns="http://www.w3.org/2000/svg"><path d="M0 8a8 8 0 0 1 8-8h312a8 8 0 0 1 8 8v18a8 8 0 0 1-8 8H8a8 8 0 0 1-8-8V8Z" fill="#fff"/><path fill-rule="evenodd" clip-rule="evenodd" d="M320 .7H8A7.3 7.3 0 0 0 .7 8v18A7.3 7.3 0 0 0 8 33.3h312a7.3 7.3 0 0 0 7.3-7.3V8A7.3 7.3 0 0 0 320 .7ZM8 0a8 8 0 0 0-8 8v18a8 8 0 0 0 8 8h312a8 8 0 0 0 8-8V8a8 8 0 0 0-8-8H8Z" fill="#A9AEB8"/><path d="M200.021 22.156c1.261 0 2.249-.481 2.808-1.248l-.897-1.001c-.416.533-.91.923-1.729.923-1.092 0-1.651-.663-1.651-1.638v-.169h4.511v-.546c0-1.859-.975-3.419-3.094-3.419-1.989 0-3.146 1.391-3.146 3.536 0 2.171 1.196 3.562 3.198 3.562Zm-.026-5.85c.858 0 1.339.637 1.339 1.573v.117h-2.782v-.104c0-.936.572-1.586 1.443-1.586ZM194.585 22h1.196v-1.326h-1.287V16.54h1.391v-1.326h-1.391v-1.859h-1.495v1.157c0 .468-.156.702-.65.702h-.52v1.326h1.001v3.731c0 1.105.611 1.729 1.755 1.729ZM189.706 14.226c.676 0 .975-.351.975-.832v-.26c0-.481-.299-.832-.975-.832-.689 0-.975.351-.975.832v.26c0 .481.286.832.975.832ZM188.874 22h1.664v-6.786h-1.664V22ZM184.609 22.156c1.69 0 2.795-.91 2.795-2.223 0-1.131-.715-1.794-2.197-2.002l-.689-.091c-.637-.104-.884-.312-.884-.767 0-.416.312-.702 1.027-.702.663 0 1.235.312 1.625.728l.975-.975c-.65-.676-1.326-1.066-2.652-1.066-1.547 0-2.574.832-2.574 2.145 0 1.235.806 1.872 2.262 2.054l.676.091c.598.078.832.325.832.715 0 .481-.338.78-1.131.78-.767 0-1.365-.351-1.859-.923l-1.014.988c.676.78 1.521 1.248 2.808 1.248ZM174.591 22h1.664v-1.131h.052c.26.767.975 1.287 1.872 1.287 1.716 0 2.665-1.287 2.665-3.562 0-2.262-.949-3.536-2.665-3.536-.897 0-1.625.494-1.872 1.274h-.052V12.38h-1.664V22Zm3.055-1.222c-.793 0-1.391-.403-1.391-1.105v-2.158c0-.663.598-1.092 1.391-1.092.858 0 1.456.637 1.456 1.599v1.17c0 .962-.598 1.586-1.456 1.586ZM170.085 22.156c1.261 0 2.249-.481 2.808-1.248l-.897-1.001c-.416.533-.91.923-1.729.923-1.092 0-1.651-.663-1.651-1.638v-.169h4.511v-.546c0-1.859-.975-3.419-3.094-3.419-1.989 0-3.146 1.391-3.146 3.536 0 2.171 1.196 3.562 3.198 3.562Zm-.026-5.85c.858 0 1.339.637 1.339 1.573v.117h-2.782v-.104c0-.936.572-1.586 1.443-1.586ZM158.726 22l1.157-4.797.585-2.392h.026l.559 2.392L162.21 22h1.937l2.171-9.074h-1.638l-.923 4.355-.572 2.782h-.039l-.637-2.782-1.04-4.355h-1.898l-1.04 4.355-.65 2.782h-.039l-.559-2.782-.897-4.355h-1.716L156.776 22h1.95ZM149.479 22h1.196v-1.326h-1.287V16.54h1.391v-1.326h-1.391v-1.859h-1.495v1.157c0 .468-.156.702-.65.702h-.52v1.326h1.001v3.731c0 1.105.611 1.729 1.755 1.729ZM144.599 14.226c.676 0 .975-.351.975-.832v-.26c0-.481-.299-.832-.975-.832-.689 0-.975.351-.975.832v.26c0 .481.286.832.975.832ZM143.767 22h1.664v-6.786h-1.664V22ZM139.503 22.156c1.69 0 2.795-.91 2.795-2.223 0-1.131-.715-1.794-2.197-2.002l-.689-.091c-.637-.104-.884-.312-.884-.767 0-.416.312-.702 1.027-.702.663 0 1.235.312 1.625.728l.975-.975c-.65-.676-1.326-1.066-2.652-1.066-1.547 0-2.574.832-2.574 2.145 0 1.235.806 1.872 2.262 2.054l.676.091c.598.078.832.325.832.715 0 .481-.338.78-1.131.78-.767 0-1.365-.351-1.859-.923l-1.014.988c.676.78 1.521 1.248 2.808 1.248ZM134.519 14.226c.676 0 .975-.351.975-.832v-.26c0-.481-.299-.832-.975-.832-.689 0-.975.351-.975.832v.26c0 .481.286.832.975.832ZM133.687 22h1.664v-6.786h-1.664V22ZM129.557 22l2.964-9.074h-1.703l-1.391 4.42-.793 3.016h-.039l-.806-3.016-1.391-4.42h-1.755L127.607 22h1.95Z" fill="#E56135"/></svg>