<svg width="42" height="36" fill="none" xmlns="http://www.w3.org/2000/svg"><rect width="42" height="36" rx="2" fill="#EDEEF0"/><g clip-path="url('#clip0_1_966')"><path d="M25.5 21.06c-.57 0-1.08.225-1.47.578l-5.348-3.113c.038-.172.068-.345.068-.525 0-.18-.03-.352-.067-.525l5.287-3.083A2.24 2.24 0 0 0 25.5 15a2.247 2.247 0 0 0 2.25-2.25 2.247 2.247 0 0 0-2.25-2.25 2.247 2.247 0 0 0-2.25 2.25c0 .18.03.352.067.525l-5.287 3.083a2.24 2.24 0 0 0-1.53-.608A2.247 2.247 0 0 0 14.25 18a2.247 2.247 0 0 0 2.25 2.25 2.24 2.24 0 0 0 1.53-.608l5.34 3.12c-.038.158-.06.323-.06.488 0 1.207.983 2.19 2.19 2.19 1.207 0 2.19-.983 2.19-2.19 0-1.207-.983-2.19-2.19-2.19Z" fill="#2D2D2D"/></g><defs><clipPath id="clip0_1_966"><path fill="#fff" transform="translate(12 9)" d="M0 0h18v18H0z"/></clipPath></defs></svg>