<svg width="22" height="22" fill="none" xmlns="http://www.w3.org/2000/svg"><g clip-path="url('#clip0_1_816')"><path d="M14.208 12.833h-.724l-.257-.247a5.932 5.932 0 0 0 1.44-3.878 5.958 5.958 0 1 0-5.959 5.959c1.476 0 2.833-.541 3.878-1.44l.247.257v.724l4.584 4.574 1.365-1.365-4.574-4.584Zm-5.5 0a4.12 4.12 0 0 1-4.125-4.125 4.12 4.12 0 0 1 4.125-4.125 4.12 4.12 0 0 1 4.125 4.125 4.12 4.12 0 0 1-4.125 4.125Z" fill="#7A7A7A"/></g><defs><clipPath id="clip0_1_816"><path fill="#fff" d="M0 0h22v22H0z"/></clipPath></defs></svg>