<svg width="321" height="14" fill="none" xmlns="http://www.w3.org/2000/svg"><path d="M320.062 11.168c-.298 0-.518-.075-.658-.224-.13-.15-.196-.345-.196-.588v-.182c0-.243.066-.439.196-.588.14-.15.36-.224.658-.224.299 0 .514.075.644.224.14.15.21.345.21.588v.182c0 .243-.07.439-.21.588-.13.15-.345.224-.644.224ZM316.248 11.168c-.299 0-.518-.075-.658-.224-.131-.15-.196-.345-.196-.588v-.182c0-.243.065-.439.196-.588.14-.15.359-.224.658-.224.298 0 .513.075.644.224.14.15.21.345.21.588v.182c0 .243-.07.439-.21.588-.131.15-.346.224-.644.224ZM308.947 11V1.228h5.824v1.036h-4.648V5.54h4.242v1.036h-4.242V11h-1.176ZM302.426 11.168c-.299 0-.518-.075-.658-.224-.131-.15-.196-.345-.196-.588v-.182c0-.243.065-.439.196-.588.14-.15.359-.224.658-.224.298 0 .513.075.644.224.14.15.21.345.21.588v.182c0 .243-.07.439-.21.588-.131.15-.346.224-.644.224ZM297.018 11.168c-.495 0-.943-.089-1.344-.266a3.007 3.007 0 0 1-1.022-.756c-.28-.336-.5-.733-.658-1.19a5.11 5.11 0 0 1-.224-1.568c0-.57.074-1.087.224-1.554a3.56 3.56 0 0 1 .658-1.19c.289-.336.63-.593 1.022-.77a3.288 3.288 0 0 1 1.344-.266c.485 0 .919.089 1.302.266.382.177.709.425.98.742.27.308.476.677.616 1.106.149.43.224.9.224 1.414v.532h-5.194v.336c0 .308.046.597.14.868.102.261.242.49.42.686.186.196.41.35.672.462.27.112.574.168.91.168.457 0 .854-.107 1.19-.322a2.1 2.1 0 0 0 .798-.924l.798.574a2.829 2.829 0 0 1-1.092 1.204c-.495.299-1.083.448-1.764.448Zm0-6.622c-.308 0-.588.056-.84.168a1.87 1.87 0 0 0-.658.448 2.348 2.348 0 0 0-.574 1.568v.098h3.99v-.154c0-.644-.178-1.157-.532-1.54-.346-.392-.808-.588-1.386-.588ZM290.8 9.824h-.056c-.438.896-1.143 1.344-2.114 1.344-.448 0-.854-.089-1.218-.266a2.716 2.716 0 0 1-.938-.756 3.64 3.64 0 0 1-.588-1.19 5.84 5.84 0 0 1-.196-1.568c0-.579.066-1.101.196-1.568a3.64 3.64 0 0 1 .588-1.19c.262-.327.574-.579.938-.756.364-.177.77-.266 1.218-.266.504 0 .934.112 1.288.336.364.215.64.55.826 1.008h.056V.64h1.12V11h-1.12V9.824Zm-1.862.336c.252 0 .49-.033.714-.098a1.88 1.88 0 0 0 .602-.28c.168-.13.299-.285.392-.462.103-.187.154-.397.154-.63V6.002c0-.196-.051-.378-.154-.546a1.283 1.283 0 0 0-.392-.448 1.881 1.881 0 0 0-.602-.28 2.243 2.243 0 0 0-.714-.112c-.634 0-1.134.2-1.498.602-.364.392-.546.91-.546 1.554v1.232c0 .644.182 1.167.546 1.568.364.392.864.588 1.498.588ZM283.952 11c-.42 0-.723-.112-.91-.336a1.708 1.708 0 0 1-.336-.84h-.07c-.159.448-.42.784-.784 1.008-.364.224-.798.336-1.302.336-.765 0-1.363-.196-1.792-.588-.42-.392-.63-.924-.63-1.596 0-.681.247-1.204.742-1.568.504-.364 1.283-.546 2.338-.546h1.428v-.714c0-.513-.14-.905-.42-1.176-.28-.27-.709-.406-1.288-.406-.439 0-.807.098-1.106.294a2.457 2.457 0 0 0-.728.784l-.672-.63c.196-.392.509-.723.938-.994.429-.28.971-.42 1.624-.42.877 0 1.559.215 2.044.644.485.43.728 1.027.728 1.792v3.976h.826V11h-.63Zm-3.22-.784c.28 0 .537-.033.77-.098.233-.065.434-.159.602-.28.168-.121.299-.261.392-.42.093-.159.14-.331.14-.518V7.71h-1.484c-.644 0-1.115.093-1.414.28a.908.908 0 0 0-.434.812v.294c0 .355.126.63.378.826.261.196.611.294 1.05.294ZM274.349 11.168c-.504 0-.957-.089-1.358-.266a2.843 2.843 0 0 1-1.022-.756 3.515 3.515 0 0 1-.63-1.19c-.14-.467-.21-.99-.21-1.568 0-.579.07-1.101.21-1.568.149-.467.359-.863.63-1.19.28-.327.621-.579 1.022-.756a3.325 3.325 0 0 1 1.358-.266c.719 0 1.293.159 1.722.476.439.308.765.714.98 1.218l-.938.476a1.7 1.7 0 0 0-.644-.868c-.299-.205-.672-.308-1.12-.308-.336 0-.63.056-.882.168a1.62 1.62 0 0 0-.63.448 1.812 1.812 0 0 0-.378.686c-.084.261-.126.55-.126.868v1.232c0 .635.168 1.157.504 1.568.345.401.849.602 1.512.602.905 0 1.559-.42 1.96-1.26l.812.546a2.849 2.849 0 0 1-1.05 1.246c-.457.308-1.031.462-1.722.462ZM266.693 11.168c-.494 0-.942-.089-1.344-.266a3.016 3.016 0 0 1-1.022-.756 3.773 3.773 0 0 1-.658-1.19 5.141 5.141 0 0 1-.224-1.568c0-.57.075-1.087.224-1.554.159-.467.378-.863.658-1.19.29-.336.63-.593 1.022-.77.402-.177.85-.266 1.344-.266.486 0 .92.089 1.302.266.383.177.71.425.98.742.271.308.476.677.616 1.106.15.43.224.9.224 1.414v.532h-5.194v.336c0 .308.047.597.14.868.103.261.243.49.42.686.187.196.411.35.672.462.271.112.574.168.91.168.458 0 .854-.107 1.19-.322.346-.215.612-.523.798-.924l.798.574a2.816 2.816 0 0 1-1.092 1.204c-.494.299-1.082.448-1.764.448Zm0-6.622c-.308 0-.588.056-.84.168a1.879 1.879 0 0 0-.658.448c-.177.196-.317.43-.42.7-.102.261-.154.55-.154.868v.098h3.99v-.154c0-.644-.177-1.157-.532-1.54-.345-.392-.807-.588-1.386-.588ZM260.476 9.824h-.056c-.438.896-1.143 1.344-2.114 1.344-.448 0-.854-.089-1.218-.266a2.716 2.716 0 0 1-.938-.756 3.64 3.64 0 0 1-.588-1.19 5.84 5.84 0 0 1-.196-1.568c0-.579.066-1.101.196-1.568a3.64 3.64 0 0 1 .588-1.19c.262-.327.574-.579.938-.756.364-.177.77-.266 1.218-.266.504 0 .934.112 1.288.336.364.215.64.55.826 1.008h.056V.64h1.12V11h-1.12V9.824Zm-1.862.336c.252 0 .49-.033.714-.098a1.88 1.88 0 0 0 .602-.28c.168-.13.299-.285.392-.462.103-.187.154-.397.154-.63V6.002c0-.196-.051-.378-.154-.546a1.283 1.283 0 0 0-.392-.448 1.881 1.881 0 0 0-.602-.28 2.243 2.243 0 0 0-.714-.112c-.634 0-1.134.2-1.498.602-.364.392-.546.91-.546 1.554v1.232c0 .644.182 1.167.546 1.568.364.392.864.588 1.498.588ZM250.319 11c-.42 0-.723-.112-.91-.336a1.708 1.708 0 0 1-.336-.84h-.07c-.159.448-.42.784-.784 1.008-.364.224-.798.336-1.302.336-.765 0-1.363-.196-1.792-.588-.42-.392-.63-.924-.63-1.596 0-.681.247-1.204.742-1.568.504-.364 1.283-.546 2.338-.546h1.428v-.714c0-.513-.14-.905-.42-1.176-.28-.27-.709-.406-1.288-.406-.439 0-.807.098-1.106.294a2.457 2.457 0 0 0-.728.784l-.672-.63c.196-.392.509-.723.938-.994.429-.28.971-.42 1.624-.42.877 0 1.559.215 2.044.644.485.43.728 1.027.728 1.792v3.976h.826V11h-.63Zm-3.22-.784c.28 0 .537-.033.77-.098.233-.065.434-.159.602-.28.168-.121.299-.261.392-.42.093-.159.14-.331.14-.518V7.71h-1.484c-.644 0-1.115.093-1.414.28a.908.908 0 0 0-.434.812v.294c0 .355.126.63.378.826.261.196.611.294 1.05.294ZM237.613 4.756h-1.176v-.98h1.176V2.32c0-.504.131-.91.392-1.218.262-.308.658-.462 1.19-.462h1.092v.98h-1.554v2.156h1.554v.98h-1.554V11h-1.12V4.756ZM232.199 11.168c-.485 0-.928-.089-1.33-.266a2.983 2.983 0 0 1-1.036-.756 3.773 3.773 0 0 1-.658-1.19 4.87 4.87 0 0 1-.237-1.568c0-.57.079-1.087.237-1.554.159-.467.378-.863.658-1.19.29-.336.635-.593 1.036-.77a3.258 3.258 0 0 1 1.33-.266c.486 0 .925.089 1.317.266.401.177.746.434 1.035.77.29.327.514.723.672 1.19.159.467.239.985.239 1.554 0 .579-.08 1.101-.239 1.568a3.597 3.597 0 0 1-.672 1.19 2.97 2.97 0 0 1-1.035.756 3.16 3.16 0 0 1-1.317.266Zm0-.994c.607 0 1.102-.187 1.485-.56.382-.373.573-.943.573-1.708V6.87c0-.765-.191-1.335-.573-1.708-.383-.373-.878-.56-1.485-.56-.606 0-1.101.187-1.484.56-.382.373-.574.943-.574 1.708v1.036c0 .765.192 1.335.574 1.708.383.373.878.56 1.484.56ZM222.848 11c-.392 0-.69-.107-.896-.322-.196-.224-.294-.513-.294-.868V4.756h-1.189v-.98h.672c.242 0 .405-.047.489-.14.094-.103.14-.275.14-.518V1.774h1.009v2.002h1.582v.98h-1.582v5.264h1.47V11h-1.401ZM216.057 11V3.776h1.12v1.33h.07c.131-.345.364-.653.7-.924.336-.27.798-.406 1.386-.406h.434v1.12h-.658c-.606 0-1.082.117-1.428.35-.336.224-.504.509-.504.854V11h-1.12ZM213.829 11c-.42 0-.723-.112-.91-.336a1.708 1.708 0 0 1-.336-.84h-.07c-.159.448-.42.784-.784 1.008-.364.224-.798.336-1.302.336-.765 0-1.363-.196-1.792-.588-.42-.392-.63-.924-.63-1.596 0-.681.247-1.204.742-1.568.504-.364 1.283-.546 2.338-.546h1.428v-.714c0-.513-.14-.905-.42-1.176-.28-.27-.709-.406-1.288-.406-.439 0-.807.098-1.106.294a2.457 2.457 0 0 0-.728.784l-.672-.63c.196-.392.509-.723.938-.994.429-.28.971-.42 1.624-.42.877 0 1.559.215 2.044.644.485.43.728 1.027.728 1.792v3.976h.826V11h-.63Zm-3.22-.784c.28 0 .537-.033.77-.098.233-.065.434-.159.602-.28.168-.121.299-.261.392-.42.093-.159.14-.331.14-.518V7.71h-1.484c-.644 0-1.115.093-1.414.28a.908.908 0 0 0-.434.812v.294c0 .355.126.63.378.826.261.196.611.294 1.05.294ZM200.458 3.776h1.12v1.176h.056c.186-.457.457-.793.812-1.008.364-.224.798-.336 1.302-.336.448 0 .854.089 1.218.266.364.177.672.43.924.756.261.327.457.723.588 1.19.14.467.21.99.21 1.568 0 .579-.07 1.101-.21 1.568a3.318 3.318 0 0 1-.588 1.19c-.252.327-.56.579-.924.756-.364.177-.77.266-1.218.266-.98 0-1.685-.448-2.114-1.344h-.056V13.8h-1.12V3.776Zm2.982 6.384c.634 0 1.134-.196 1.498-.588.364-.401.546-.924.546-1.568V6.772c0-.644-.182-1.162-.546-1.554-.364-.401-.864-.602-1.498-.602-.252 0-.495.037-.728.112-.224.065-.42.159-.588.28-.168.121-.304.27-.406.448-.094.168-.14.35-.14.546V8.69c0 .233.046.443.14.63.102.177.238.331.406.462.168.121.364.215.588.28.233.065.476.098.728.098ZM192.009 11V3.776h1.12v1.33h.07c.13-.345.364-.653.7-.924.336-.27.798-.406 1.386-.406h.434v1.12h-.658c-.607 0-1.083.117-1.428.35-.336.224-.504.509-.504.854V11h-1.12ZM187.041 11.168c-.495 0-.943-.089-1.344-.266a3.007 3.007 0 0 1-1.022-.756 3.773 3.773 0 0 1-.658-1.19 5.141 5.141 0 0 1-.224-1.568c0-.57.075-1.087.224-1.554.159-.467.378-.863.658-1.19.289-.336.63-.593 1.022-.77a3.288 3.288 0 0 1 1.344-.266c.485 0 .919.089 1.302.266.383.177.709.425.98.742.271.308.476.677.616 1.106.149.43.224.9.224 1.414v.532h-5.194v.336c0 .308.047.597.14.868.103.261.243.49.42.686.187.196.411.35.672.462.271.112.574.168.91.168.457 0 .854-.107 1.19-.322a2.1 2.1 0 0 0 .798-.924l.798.574a2.816 2.816 0 0 1-1.092 1.204c-.495.299-1.083.448-1.764.448Zm0-6.622c-.308 0-.588.056-.84.168a1.879 1.879 0 0 0-.658.448 2.348 2.348 0 0 0-.574 1.568v.098h3.99v-.154c0-.644-.177-1.157-.532-1.54-.345-.392-.807-.588-1.386-.588ZM181.067 11c-.392 0-.69-.107-.896-.322-.196-.224-.294-.513-.294-.868V4.756h-1.19v-.98h.672c.243 0 .406-.047.49-.14.094-.103.14-.275.14-.518V1.774h1.008v2.002h1.582v.98h-1.582v5.264h1.47V11h-1.4ZM176.282 11c-.392 0-.691-.107-.896-.322-.196-.224-.294-.513-.294-.868V4.756h-1.19v-.98h.672c.243 0 .406-.047.49-.14.093-.103.14-.275.14-.518V1.774h1.008v2.002h1.582v.98h-1.582v5.264h1.47V11h-1.4ZM169.719 11.168c-.495 0-.943-.089-1.344-.266a3.007 3.007 0 0 1-1.022-.756c-.28-.336-.5-.733-.658-1.19a5.11 5.11 0 0 1-.224-1.568c0-.57.074-1.087.224-1.554a3.56 3.56 0 0 1 .658-1.19c.289-.336.63-.593 1.022-.77a3.288 3.288 0 0 1 1.344-.266c.485 0 .919.089 1.302.266.382.177.709.425.98.742.27.308.476.677.616 1.106.149.43.224.9.224 1.414v.532h-5.194v.336c0 .308.046.597.14.868.102.261.242.49.42.686.186.196.41.35.672.462.27.112.574.168.91.168.457 0 .854-.107 1.19-.322a2.1 2.1 0 0 0 .798-.924l.798.574a2.829 2.829 0 0 1-1.092 1.204c-.495.299-1.083.448-1.764.448Zm0-6.622c-.308 0-.588.056-.84.168a1.87 1.87 0 0 0-.658.448 2.348 2.348 0 0 0-.574 1.568v.098h3.99v-.154c0-.644-.178-1.157-.532-1.54-.346-.392-.808-.588-1.386-.588ZM158.882.64h1.12v4.312h.056c.186-.457.457-.793.812-1.008.364-.224.798-.336 1.302-.336.448 0 .854.089 1.218.266.364.177.672.43.924.756.261.327.457.723.588 1.19.14.467.21.99.21 1.568 0 .579-.07 1.101-.21 1.568a3.317 3.317 0 0 1-.588 1.19c-.252.327-.56.579-.924.756-.364.177-.77.266-1.218.266-.98 0-1.685-.448-2.114-1.344h-.056V11h-1.12V.64Zm2.982 9.52c.634 0 1.134-.196 1.498-.588.364-.401.546-.924.546-1.568V6.772c0-.644-.182-1.162-.546-1.554-.364-.401-.864-.602-1.498-.602-.252 0-.495.037-.728.112-.224.065-.42.159-.588.28-.168.121-.304.27-.406.448-.094.168-.14.35-.14.546V8.69c0 .233.046.443.14.63.102.177.238.331.406.462.168.121.364.215.588.28.233.065.476.098.728.098ZM150.605 11.168c-.494 0-.942-.089-1.344-.266a3.016 3.016 0 0 1-1.022-.756 3.773 3.773 0 0 1-.658-1.19 5.141 5.141 0 0 1-.224-1.568c0-.57.075-1.087.224-1.554.159-.467.378-.863.658-1.19.29-.336.63-.593 1.022-.77.402-.177.85-.266 1.344-.266.486 0 .92.089 1.302.266.383.177.71.425.98.742.271.308.476.677.616 1.106.15.43.224.9.224 1.414v.532h-5.194v.336c0 .308.047.597.14.868.103.261.243.49.42.686.187.196.411.35.672.462.271.112.574.168.91.168.458 0 .854-.107 1.19-.322.346-.215.612-.523.798-.924l.798.574a2.816 2.816 0 0 1-1.092 1.204c-.494.299-1.082.448-1.764.448Zm0-6.622c-.308 0-.588.056-.84.168a1.879 1.879 0 0 0-.658.448c-.177.196-.317.43-.42.7-.102.261-.154.55-.154.868v.098h3.99v-.154c0-.644-.177-1.157-.532-1.54-.345-.392-.807-.588-1.386-.588ZM139.932.64h1.12v4.312h.056a2.41 2.41 0 0 1 .742-.98c.327-.243.761-.364 1.302-.364.747 0 1.335.243 1.764.728.439.476.658 1.153.658 2.03V11h-1.12V6.562c0-1.297-.546-1.946-1.638-1.946-.224 0-.443.028-.658.084a1.91 1.91 0 0 0-.56.252 1.296 1.296 0 0 0-.406.434c-.093.168-.14.369-.14.602V11h-1.12V.64ZM136.62 11c-.392 0-.691-.107-.896-.322-.196-.224-.294-.513-.294-.868V4.756h-1.19v-.98h.672c.243 0 .406-.047.49-.14.093-.103.14-.275.14-.518V1.774h1.008v2.002h1.582v.98h-1.582v5.264h1.47V11h-1.4ZM126.575 11V3.776h1.12v1.33h.07c.131-.345.364-.653.7-.924.336-.27.798-.406 1.386-.406h.434v1.12h-.658c-.607 0-1.083.117-1.428.35-.336.224-.504.509-.504.854V11h-1.12ZM121.471 11.168c-.485 0-.929-.089-1.33-.266a2.974 2.974 0 0 1-1.036-.756 3.773 3.773 0 0 1-.658-1.19 4.843 4.843 0 0 1-.238-1.568c0-.57.079-1.087.238-1.554.159-.467.378-.863.658-1.19a2.897 2.897 0 0 1 1.036-.77 3.255 3.255 0 0 1 1.33-.266c.485 0 .924.089 1.316.266.401.177.747.434 1.036.77.289.327.513.723.672 1.19.159.467.238.985.238 1.554 0 .579-.079 1.101-.238 1.568a3.633 3.633 0 0 1-.672 1.19 2.974 2.974 0 0 1-1.036.756 3.16 3.16 0 0 1-1.316.266Zm0-.994c.607 0 1.101-.187 1.484-.56.383-.373.574-.943.574-1.708V6.87c0-.765-.191-1.335-.574-1.708-.383-.373-.877-.56-1.484-.56s-1.101.187-1.484.56c-.383.373-.574.943-.574 1.708v1.036c0 .765.191 1.335.574 1.708.383.373.877.56 1.484.56ZM114.648 4.756h-1.176v-.98h1.176V2.32c0-.504.131-.91.392-1.218.262-.308.658-.462 1.19-.462h1.092v.98h-1.554v2.156h1.554v.98h-1.554V11h-1.12V4.756ZM109.418 11h-1.414l-2.562-4.102h-.028L102.852 11h-1.344l3.192-4.97-3.108-4.802h1.414l2.45 3.892h.028l2.506-3.892h1.344l-3.136 4.76 3.22 5.012ZM94.092 1.228v6.048c0 .933.172 1.643.518 2.128.345.476.952.714 1.82.714.868 0 1.474-.238 1.82-.714.345-.485.518-1.195.518-2.128V1.228h1.176v5.768c0 .71-.066 1.325-.196 1.848-.122.523-.322.957-.602 1.302-.28.345-.649.602-1.106.77-.448.168-.999.252-1.652.252-.654 0-1.204-.084-1.652-.252a2.418 2.418 0 0 1-1.064-.77c-.27-.345-.467-.78-.588-1.302-.112-.523-.168-1.139-.168-1.848V1.228h1.176ZM81.608 11V3.776h1.12v1.176h.056c.177-.41.425-.737.742-.98.327-.243.76-.364 1.302-.364.747 0 1.335.243 1.764.728.439.476.658 1.153.658 2.03V11h-1.12V6.562c0-1.297-.546-1.946-1.638-1.946-.224 0-.443.028-.658.084-.205.056-.392.14-.56.252a1.293 1.293 0 0 0-.406.434c-.093.168-.14.369-.14.602V11h-1.12ZM78.668 2.082c-.243 0-.42-.056-.532-.168a.69.69 0 0 1-.154-.462V1.27c0-.187.051-.336.154-.448.112-.121.29-.182.532-.182.243 0 .415.06.518.182a.605.605 0 0 1 .168.448v.182c0 .187-.056.34-.168.462-.103.112-.275.168-.518.168Zm-.56 1.694h1.12V11h-1.12V3.776ZM71.299 9.824h-.056c-.44.896-1.144 1.344-2.114 1.344-.449 0-.855-.089-1.219-.266a2.71 2.71 0 0 1-.938-.756 3.64 3.64 0 0 1-.587-1.19 5.812 5.812 0 0 1-.197-1.568c0-.579.066-1.101.197-1.568a3.64 3.64 0 0 1 .587-1.19 2.71 2.71 0 0 1 .939-.756c.364-.177.77-.266 1.218-.266.503 0 .933.112 1.287.336.365.215.64.55.827 1.008h.056V.64h1.12V11h-1.12V9.824Zm-1.863.336c.252 0 .49-.033.714-.098.234-.065.434-.159.602-.28.169-.13.3-.285.392-.462.103-.187.154-.397.154-.63V6.002c0-.196-.05-.378-.154-.546a1.287 1.287 0 0 0-.392-.448 1.888 1.888 0 0 0-.602-.28 2.243 2.243 0 0 0-.714-.112c-.634 0-1.134.2-1.498.602-.364.392-.546.91-.546 1.554v1.232c0 .644.183 1.167.547 1.568.364.392.863.588 1.498.588ZM61.71 11.168a3.29 3.29 0 0 1-1.343-.266 3.01 3.01 0 0 1-1.022-.756c-.28-.336-.5-.733-.658-1.19a5.132 5.132 0 0 1-.224-1.568c0-.57.075-1.087.224-1.554.159-.467.378-.863.658-1.19a2.93 2.93 0 0 1 1.022-.77 3.29 3.29 0 0 1 1.344-.266c.485 0 .92.089 1.302.266.383.177.71.425.98.742.27.308.476.677.616 1.106.15.43.224.9.224 1.414v.532h-5.194v.336c0 .308.047.597.14.868.103.261.243.49.42.686.187.196.41.35.672.462.27.112.574.168.91.168.457 0 .854-.107 1.19-.322.345-.215.611-.523.798-.924l.798.574a2.82 2.82 0 0 1-1.092 1.204c-.495.299-1.083.448-1.764.448Zm0-6.622c-.307 0-.587.056-.84.168a1.876 1.876 0 0 0-.657.448 2.354 2.354 0 0 0-.574 1.568v.098h3.99v-.154c0-.644-.177-1.157-.532-1.54-.345-.392-.807-.588-1.386-.588ZM51.844.64h1.12v6.566h.056l1.106-1.232 2.044-2.198h1.358l-2.673 2.856L57.794 11h-1.358l-2.395-3.682-1.078 1.106V11h-1.12V.64ZM46.704 11V3.776h1.12v1.33h.07c.13-.345.364-.653.7-.924.336-.27.798-.406 1.386-.406h.434v1.12h-.658c-.607 0-1.083.117-1.428.35-.336.224-.504.509-.504.854V11h-1.12ZM41.6 11.168c-.485 0-.929-.089-1.33-.266a2.974 2.974 0 0 1-1.036-.756c-.28-.336-.5-.733-.658-1.19a4.851 4.851 0 0 1-.238-1.568c0-.57.08-1.087.238-1.554.159-.467.378-.863.658-1.19.29-.336.635-.593 1.036-.77a3.255 3.255 0 0 1 1.33-.266c.485 0 .924.089 1.316.266.401.177.747.434 1.036.77.29.327.513.723.672 1.19.159.467.238.985.238 1.554 0 .579-.08 1.101-.238 1.568a3.622 3.622 0 0 1-.672 1.19c-.29.327-.635.579-1.036.756-.392.177-.83.266-1.316.266Zm0-.994c.607 0 1.101-.187 1.484-.56.383-.373.574-.943.574-1.708V6.87c0-.765-.191-1.335-.574-1.708-.383-.373-.877-.56-1.484-.56s-1.101.187-1.484.56c-.383.373-.574.943-.574 1.708v1.036c0 .765.191 1.335.574 1.708.383.373.877.56 1.484.56ZM27.436 3.776h1.092l.77 3.122.77 3.164h.028l.882-3.164.91-3.122h.994l.938 3.122.896 3.164h.028l.742-3.164.784-3.122h1.05L35.402 11h-1.386l-1.008-3.472-.63-2.198h-.028l-.616 2.198L30.726 11h-1.358l-1.932-7.224ZM19.916 11.168a3.29 3.29 0 0 1-1.344-.266 3.01 3.01 0 0 1-1.022-.756c-.28-.336-.5-.733-.658-1.19a5.129 5.129 0 0 1-.224-1.568c0-.57.075-1.087.224-1.554a3.57 3.57 0 0 1 .658-1.19 2.93 2.93 0 0 1 1.022-.77 3.29 3.29 0 0 1 1.344-.266c.485 0 .92.089 1.302.266.383.177.71.425.98.742.27.308.476.677.616 1.106.15.43.224.9.224 1.414v.532h-5.194v.336c0 .308.047.597.14.868.103.261.243.49.42.686.187.196.41.35.672.462.27.112.574.168.91.168.457 0 .854-.107 1.19-.322.345-.215.611-.523.798-.924l.798.574a2.821 2.821 0 0 1-1.092 1.204c-.495.299-1.083.448-1.764.448Zm0-6.622c-.308 0-.588.056-.84.168a1.875 1.875 0 0 0-.658.448 2.354 2.354 0 0 0-.574 1.568v.098h3.99v-.154c0-.644-.177-1.157-.532-1.54-.345-.392-.807-.588-1.386-.588ZM12.015 11 9.48 3.776h1.12l1.26 3.584.784 2.464h.07l.784-2.464 1.288-3.584h1.078L13.317 11h-1.302ZM7.58.5c.298 0 .513.08.644.238.14.15.21.345.21.588v.196c0 .383-.112.807-.336 1.274A3.759 3.759 0 0 1 7.16 4h-.938c.28-.299.504-.579.672-.84.177-.27.303-.57.378-.896a.702.702 0 0 1-.42-.266.862.862 0 0 1-.126-.476v-.196c0-.243.065-.439.196-.588C7.062.579 7.28.5 7.58.5ZM.84 11v-.98h1.372V2.208H.84v-.98h3.92v.98H3.388v7.812H4.76V11H.84Z" fill="#495057"/></svg>