<svg width="75" height="13" fill="none" xmlns="http://www.w3.org/2000/svg"><path d="M73.156 3.214h1.56l-2.73 7.995c-.087.243-.186.45-.299.624-.104.182-.23.33-.377.442a1.44 1.44 0 0 1-.533.247c-.208.052-.45.078-.728.078h-1v-1.326h1.221l.312-.949-2.43-7.111h1.65l1.183 3.588.442 1.716h.078l.468-1.716 1.183-3.588ZM66.828 10c-.364 0-.654-.104-.871-.312-.208-.217-.338-.503-.39-.858h-.078c-.113.442-.342.776-.689 1.001-.347.217-.776.325-1.287.325-.693 0-1.226-.182-1.599-.546-.373-.364-.559-.85-.559-1.456 0-.702.251-1.222.754-1.56.503-.347 1.218-.52 2.145-.52h1.157V5.58c0-.381-.1-.676-.299-.884-.2-.208-.52-.312-.962-.312-.39 0-.706.087-.949.26a2.449 2.449 0 0 0-.598.598l-.988-.884c.251-.39.585-.702 1.001-.936.416-.243.966-.364 1.651-.364.919 0 1.616.208 2.093.624.477.416.715 1.014.715 1.794v3.198h.676V10h-.923Zm-2.756-1.053c.373 0 .689-.082.949-.247.26-.165.39-.407.39-.728v-.897h-1.066c-.867 0-1.3.277-1.3.832v.221c0 .277.087.485.26.624.182.13.438.195.767.195ZM56.872 10V3.214h1.664v1.404h.065a2.21 2.21 0 0 1 .195-.52 1.683 1.683 0 0 1 .884-.767c.208-.078.446-.117.715-.117h.364v1.573h-.52c-.563 0-.988.082-1.274.247-.286.165-.429.433-.429.806V10h-1.664ZM53.506 8.596h-.052c-.078.442-.325.815-.74 1.118-.408.295-.954.442-1.639.442-.537 0-1.036-.1-1.495-.299-.45-.2-.845-.494-1.183-.884-.33-.399-.59-.888-.78-1.469-.19-.58-.286-1.252-.286-2.015 0-.763.095-1.434.286-2.015.2-.59.477-1.083.832-1.482a3.51 3.51 0 0 1 1.274-.91A4.215 4.215 0 0 1 51.374.77c.815 0 1.508.178 2.08.533.572.355 1.023.867 1.352 1.534l-1.39.819a2.423 2.423 0 0 0-.742-.975c-.32-.26-.754-.39-1.3-.39-.676 0-1.218.208-1.625.624-.399.407-.598 1.014-.598 1.82v1.456c0 .797.204 1.404.611 1.82.407.416.953.624 1.638.624.269 0 .52-.03.754-.091.234-.07.438-.169.611-.299.173-.13.312-.29.416-.481.104-.19.156-.416.156-.676v-.585h-1.78V5.06h3.431V10h-1.482V8.596ZM36.902.38h1.664v3.965h.065c.139-.364.356-.667.65-.91.304-.251.72-.377 1.248-.377.702 0 1.24.23 1.612.689.373.46.56 1.114.56 1.963V10h-1.665V5.879c0-.485-.086-.85-.26-1.092-.173-.243-.459-.364-.858-.364-.173 0-.342.026-.507.078a1.314 1.314 0 0 0-.429.208c-.121.087-.22.2-.299.338a.893.893 0 0 0-.117.468V10h-1.664V.38ZM29.107 3.214h1.664v1.118h.052c.122-.39.351-.698.69-.923a2.027 2.027 0 0 1 1.182-.351c.867 0 1.526.308 1.976.923.46.607.69 1.478.69 2.613 0 1.144-.23 2.024-.69 2.639-.45.615-1.109.923-1.976.923-.45 0-.845-.117-1.183-.351a1.827 1.827 0 0 1-.689-.936h-.052V12.6h-1.664V3.214Zm3.055 5.564c.434 0 .785-.143 1.053-.429.27-.286.403-.672.403-1.157v-1.17c0-.485-.134-.871-.403-1.157-.268-.295-.62-.442-1.053-.442-.398 0-.732.1-1 .299a.95.95 0 0 0-.39.793v2.158c0 .355.13.628.39.819.268.19.602.286 1 .286ZM24.601 10.156c-.502 0-.953-.082-1.352-.247a2.978 2.978 0 0 1-1-.715 3.34 3.34 0 0 1-.625-1.118 4.67 4.67 0 0 1-.22-1.482c0-.537.069-1.023.207-1.456.148-.433.356-.802.624-1.105.269-.312.598-.55.988-.715.39-.173.832-.26 1.326-.26.529 0 .988.091 1.378.273.39.182.711.429.962.741.252.312.438.676.56 1.092.13.407.194.845.194 1.313v.546h-4.51v.169c0 .494.138.893.415 1.196.278.295.69.442 1.235.442.416 0 .754-.087 1.014-.26a2.87 2.87 0 0 0 .715-.663l.897 1.001c-.277.39-.658.698-1.144.923-.476.217-1.031.325-1.664.325Zm-.026-5.85c-.442 0-.793.147-1.053.442-.26.295-.39.676-.39 1.144v.104h2.782v-.117c0-.468-.117-.845-.35-1.131-.226-.295-.555-.442-.989-.442ZM17.594 10.156c-.65 0-1.196-.108-1.638-.325a3.858 3.858 0 0 1-1.17-.923L15.8 7.92c.252.286.524.511.82.676.302.165.65.247 1.04.247.398 0 .684-.07.857-.208a.68.68 0 0 0 .273-.572c0-.2-.065-.355-.195-.468-.121-.121-.333-.204-.637-.247l-.676-.091c-.736-.095-1.3-.303-1.69-.624-.381-.33-.572-.806-.572-1.43 0-.33.06-.624.182-.884.121-.269.295-.494.52-.676.226-.19.494-.334.806-.429.32-.104.676-.156 1.066-.156.33 0 .62.026.871.078.26.043.494.113.702.208.208.087.399.2.572.338.174.13.342.277.507.442l-.975.975a2.572 2.572 0 0 0-.715-.52 2.006 2.006 0 0 0-.91-.208c-.364 0-.628.065-.793.195a.629.629 0 0 0-.234.507c0 .225.065.399.195.52.139.113.369.195.69.247l.688.091c1.465.208 2.197.875 2.197 2.002a2.068 2.068 0 0 1-.767 1.612c-.242.19-.537.342-.884.455-.338.104-.72.156-1.144.156ZM10.737 10.156c-.486 0-.923-.082-1.313-.247a2.783 2.783 0 0 1-.988-.715 3.339 3.339 0 0 1-.624-1.118 4.67 4.67 0 0 1-.221-1.482c0-.546.073-1.036.22-1.469.148-.433.356-.802.625-1.105.277-.312.606-.55.988-.715.39-.165.828-.247 1.313-.247s.923.082 1.313.247c.39.165.72.403.988.715.277.303.49.672.637 1.105.147.433.22.923.22 1.469s-.073 1.04-.22 1.482c-.148.433-.36.806-.637 1.118-.269.312-.598.55-.988.715-.39.165-.828.247-1.313.247Zm0-1.339c.442 0 .788-.134 1.04-.403.251-.269.377-.663.377-1.183V5.97c0-.511-.126-.901-.377-1.17-.252-.269-.598-.403-1.04-.403-.434 0-.776.134-1.027.403-.252.269-.377.659-.377 1.17v1.261c0 .52.125.914.377 1.183.251.269.593.403 1.027.403ZM6.07.926v6.526c0 .407-.068.776-.207 1.105-.13.33-.32.611-.572.845a2.519 2.519 0 0 1-.897.546c-.355.13-.754.195-1.196.195-.84 0-1.495-.217-1.963-.65C.767 9.051.468 8.466.338 7.738l1.586-.325c.078.39.217.693.416.91.208.208.49.312.845.312.338 0 .615-.104.832-.312.225-.217.338-.546.338-.988V2.33h-2.86V.926H6.07Z" fill="#212529"/></svg>