<svg width="16" height="16" fill="none" xmlns="http://www.w3.org/2000/svg"><g clip-path="url('#clip0_1_193')" fill="#495057"><path d="M8 1.333A4.663 4.663 0 0 0 3.333 6C3.333 9.5 8 14.667 8 14.667S12.667 9.5 12.667 6A4.663 4.663 0 0 0 8 1.333ZM4.667 6a3.335 3.335 0 0 1 6.666 0c0 1.92-1.92 4.793-3.333 6.587C6.613 10.807 4.667 7.9 4.667 6Z"/><path d="M8 7.667a1.667 1.667 0 1 0 0-3.334 1.667 1.667 0 0 0 0 3.334Z"/></g><defs><clipPath id="clip0_1_193"><path fill="#fff" d="M0 0h16v16H0z"/></clipPath></defs></svg>