<svg width="20" height="20" fill="none" xmlns="http://www.w3.org/2000/svg"><g clip-path="url('#clip0_1_932')" fill="#000"><path d="M10 1.667A5.83 5.83 0 0 0 4.167 7.5C4.167 11.875 10 18.333 10 18.333s5.833-6.458 5.833-10.833A5.829 5.829 0 0 0 10 1.667ZM5.833 7.5C5.833 5.2 7.7 3.333 10 3.333S14.167 5.2 14.167 7.5c0 2.4-2.4 5.992-4.167 8.233C8.267 13.508 5.833 9.875 5.833 7.5Z"/><path d="M10 9.583a2.083 2.083 0 1 0 0-4.166 2.083 2.083 0 0 0 0 4.166Z"/></g><defs><clipPath id="clip0_1_932"><path fill="#fff" d="M0 0h20v20H0z"/></clipPath></defs></svg>