<svg width="20" height="20" fill="none" xmlns="http://www.w3.org/2000/svg"><g clip-path="url('#clip0_1_941')"><path d="M11.667 5V3.333H8.333V5h3.334ZM3.333 6.667v9.166h13.334V6.667H3.333ZM16.667 5a1.66 1.66 0 0 1 1.666 1.667v9.166c0 .925-.741 1.667-1.666 1.667H3.333a1.66 1.66 0 0 1-1.666-1.667l.008-9.166C1.675 5.742 2.408 5 3.333 5h3.334V3.333a1.66 1.66 0 0 1 1.666-1.666h3.334a1.66 1.66 0 0 1 1.666 1.666V5h3.334Z" fill="#000"/></g><defs><clipPath id="clip0_1_941"><path fill="#fff" d="M0 0h20v20H0z"/></clipPath></defs></svg>