<svg width="71" height="13" fill="none" xmlns="http://www.w3.org/2000/svg"><path d="M70.564 6.632c0 .681-.066 1.34-.196 1.974a9.442 9.442 0 0 1-.518 1.764 7.536 7.536 0 0 1-.77 1.47 5.548 5.548 0 0 1-.952 1.092h-1.96a7.476 7.476 0 0 0 1.778-2.478c.438-.97.658-2.077.658-3.318v-.98c0-1.195-.22-2.282-.658-3.262A7.447 7.447 0 0 0 66.168.36h1.946c.354.308.681.681.98 1.12.298.439.555.929.77 1.47.214.532.382 1.11.504 1.736.13.625.196 1.274.196 1.946ZM62.015 11.168c-.578 0-1.096-.07-1.554-.21a3.539 3.539 0 0 1-1.134-.602 2.641 2.641 0 0 1-.714-.896 2.684 2.684 0 0 1-.238-1.134c0-.625.173-1.134.518-1.526.346-.401.812-.681 1.4-.84v-.112a2.78 2.78 0 0 1-1.176-.812c-.298-.364-.448-.83-.448-1.4 0-.373.07-.719.21-1.036.15-.317.364-.588.644-.812.29-.233.64-.41 1.05-.532.42-.13.9-.196 1.442-.196.542 0 1.018.065 1.428.196.42.121.77.299 1.05.532.29.224.504.495.644.812.15.317.224.663.224 1.036 0 .57-.154 1.036-.462 1.4a2.677 2.677 0 0 1-1.162.812v.112c.588.159 1.055.439 1.4.84.346.392.518.9.518 1.526 0 .41-.084.789-.252 1.134a2.492 2.492 0 0 1-.7.896c-.308.252-.69.453-1.148.602-.448.14-.961.21-1.54.21Zm0-1.61c.467 0 .822-.107 1.064-.322.252-.224.378-.532.378-.924v-.28c0-.392-.126-.695-.378-.91-.242-.224-.597-.336-1.064-.336-.466 0-.826.112-1.078.336-.242.215-.364.518-.364.91v.28c0 .392.122.7.364.924.252.215.612.322 1.078.322Zm0-4.312c.448 0 .789-.103 1.022-.308.234-.215.35-.504.35-.868v-.224c0-.364-.116-.649-.35-.854-.233-.215-.574-.322-1.022-.322-.448 0-.788.107-1.022.322-.233.205-.35.49-.35.854v.224c0 .364.117.653.35.868.234.205.574.308 1.022.308ZM53.537 11.168a4.27 4.27 0 0 1-1.554-.266 3.276 3.276 0 0 1-1.162-.784 3.654 3.654 0 0 1-.714-1.232 5.027 5.027 0 0 1-.238-1.596c0-.681.102-1.325.308-1.932a8.111 8.111 0 0 1 1.932-3.094c.42-.41.84-.756 1.26-1.036h2.898c-.598.43-1.134.84-1.61 1.232-.476.383-.892.77-1.246 1.162a7.224 7.224 0 0 0-.868 1.204 4.439 4.439 0 0 0-.476 1.302l.126.042c.084-.187.182-.369.294-.546.121-.177.266-.331.434-.462.177-.14.382-.252.616-.336.233-.084.504-.126.812-.126.401 0 .774.075 1.12.224a2.614 2.614 0 0 1 1.512 1.568c.149.373.224.789.224 1.246 0 .504-.089.966-.266 1.386-.168.42-.416.784-.742 1.092-.318.299-.7.532-1.148.7a4.281 4.281 0 0 1-1.512.252Zm0-1.638c.466 0 .83-.126 1.092-.378.261-.261.392-.63.392-1.106v-.252c0-.476-.131-.84-.392-1.092-.262-.261-.626-.392-1.092-.392-.467 0-.831.13-1.092.392-.262.252-.392.616-.392 1.092v.252c0 .476.13.845.392 1.106.261.252.625.378 1.092.378ZM44.414 5.092c.523 0 .9-.098 1.134-.294a.954.954 0 0 0 .364-.756v-.098c0-.355-.116-.64-.35-.854-.224-.215-.546-.322-.966-.322-.392 0-.76.103-1.106.308-.345.196-.64.48-.882.854l-1.316-1.232c.187-.243.387-.462.602-.658.215-.205.458-.378.728-.518a3.4 3.4 0 0 1 .91-.336 4.684 4.684 0 0 1 1.134-.126c.523 0 .994.06 1.414.182.43.121.794.299 1.092.532.308.224.542.495.7.812.168.317.252.672.252 1.064 0 .308-.051.588-.154.84a1.903 1.903 0 0 1-.406.658c-.168.187-.364.34-.588.462a2.679 2.679 0 0 1-.714.238v.084c.29.056.556.15.798.28.252.121.467.28.644.476.187.196.331.43.434.7.103.261.154.56.154.896 0 .439-.089.835-.266 1.19-.177.355-.43.658-.756.91a3.657 3.657 0 0 1-1.176.588c-.457.13-.961.196-1.512.196-.495 0-.933-.051-1.316-.154a4.135 4.135 0 0 1-1.008-.406 3.949 3.949 0 0 1-.742-.602 4.997 4.997 0 0 1-.546-.714l1.554-1.204c.215.401.476.733.784.994.318.252.742.378 1.274.378.476 0 .845-.117 1.106-.35.27-.243.406-.57.406-.98v-.084c0-.401-.154-.7-.462-.896-.298-.205-.714-.308-1.246-.308h-.882v-1.75h.91ZM36.394 6.632c0-.672.06-1.32.182-1.946.13-.625.303-1.204.518-1.736a7.534 7.534 0 0 1 .77-1.47c.298-.439.625-.812.98-1.12h1.946a7.612 7.612 0 0 0-1.792 2.534c-.43.98-.644 2.067-.644 3.262v.98c0 1.241.219 2.347.658 3.318a7.476 7.476 0 0 0 1.778 2.478h-1.96a5.548 5.548 0 0 1-.952-1.092 8.118 8.118 0 0 1-.784-1.47 11.09 11.09 0 0 1-.518-1.764 10.487 10.487 0 0 1-.182-1.974ZM32.139 11.168c-.71 0-1.307-.112-1.792-.336a4.237 4.237 0 0 1-1.302-.98l1.218-1.232c.261.29.55.518.868.686.317.168.677.252 1.078.252.41 0 .695-.06.854-.182a.638.638 0 0 0 .238-.518c0-.345-.247-.55-.742-.616l-.798-.098c-1.652-.205-2.478-.961-2.478-2.268 0-.355.065-.677.196-.966a2.2 2.2 0 0 1 .574-.756c.252-.215.55-.378.896-.49a3.662 3.662 0 0 1 1.19-.182c.383 0 .719.028 1.008.084.299.047.56.121.784.224.233.093.443.215.63.364.196.14.387.299.574.476l-1.19 1.218a2.584 2.584 0 0 0-.798-.546c-.29-.14-.588-.21-.896-.21-.355 0-.607.056-.756.168a.532.532 0 0 0-.224.448c0 .196.051.35.154.462.112.103.317.177.616.224l.826.112c1.615.215 2.422.952 2.422 2.212 0 .355-.075.681-.224.98a2.34 2.34 0 0 1-.644.784c-.27.215-.602.383-.994.504a4.25 4.25 0 0 1-1.288.182ZM26.724 11c-.719 0-1.265-.182-1.638-.546-.364-.364-.546-.896-.546-1.596V5.26h-1.036V3.65h.518c.28 0 .471-.065.574-.196.102-.14.154-.336.154-.588V1.662h1.862V3.65h1.456v1.61h-1.456v4.13h1.344V11h-1.232ZM19.554 11.168c-.71 0-1.306-.112-1.792-.336a4.237 4.237 0 0 1-1.302-.98l1.218-1.232c.261.29.55.518.868.686.317.168.677.252 1.078.252.41 0 .696-.06.854-.182a.638.638 0 0 0 .238-.518c0-.345-.247-.55-.742-.616l-.798-.098c-1.652-.205-2.478-.961-2.478-2.268 0-.355.066-.677.196-.966.14-.299.332-.55.574-.756.252-.215.55-.378.896-.49a3.661 3.661 0 0 1 1.19-.182c.383 0 .719.028 1.008.084.299.047.56.121.784.224.233.093.444.215.63.364.196.14.387.299.574.476l-1.19 1.218a2.584 2.584 0 0 0-.798-.546c-.29-.14-.588-.21-.896-.21-.355 0-.607.056-.756.168a.532.532 0 0 0-.224.448c0 .196.052.35.154.462.112.103.317.177.616.224l.826.112c1.615.215 2.422.952 2.422 2.212 0 .355-.075.681-.224.98a2.34 2.34 0 0 1-.644.784c-.27.215-.602.383-.994.504a4.25 4.25 0 0 1-1.288.182ZM12.002 11.168a3.782 3.782 0 0 1-1.456-.266 2.967 2.967 0 0 1-1.078-.77 3.574 3.574 0 0 1-.672-1.218 5.028 5.028 0 0 1-.238-1.596c0-.588.08-1.12.238-1.596.159-.476.383-.877.672-1.204a2.968 2.968 0 0 1 1.078-.77c.43-.177.915-.266 1.456-.266.541 0 1.022.089 1.442.266.43.177.788.434 1.078.77.298.327.527.728.686 1.204a5.03 5.03 0 0 1 .238 1.596c0 .588-.08 1.12-.238 1.596a3.45 3.45 0 0 1-.686 1.218c-.29.336-.649.593-1.078.77-.42.177-.9.266-1.442.266Zm0-1.638c.41 0 .728-.126.952-.378.224-.252.336-.611.336-1.078V6.576c0-.467-.112-.826-.336-1.078-.224-.252-.542-.378-.952-.378-.41 0-.728.126-.952.378-.224.252-.336.611-.336 1.078v1.498c0 .467.112.826.336 1.078.224.252.541.378.952.378ZM.078 11V1.228h4.62c.457 0 .868.08 1.232.238.364.15.672.36.924.63.261.27.462.602.602.994.14.383.21.803.21 1.26 0 .467-.07.891-.21 1.274-.14.383-.34.71-.602.98a2.74 2.74 0 0 1-.924.644 3.22 3.22 0 0 1-1.232.224H2.206V11H.078Zm2.128-5.376h2.24c.317 0 .565-.08.742-.238.187-.168.28-.41.28-.728v-.616c0-.317-.093-.555-.28-.714-.177-.168-.425-.252-.742-.252h-2.24v2.548Z" fill="#212529"/></svg>