<svg width="72" height="11" fill="none" xmlns="http://www.w3.org/2000/svg"><path d="M69.051 10.156c-.65 0-1.196-.108-1.638-.325a3.858 3.858 0 0 1-1.17-.923l1.014-.988c.252.286.525.511.82.676.303.165.65.247 1.04.247.398 0 .684-.07.857-.208a.68.68 0 0 0 .273-.572c0-.2-.065-.355-.195-.468-.12-.121-.333-.204-.637-.247l-.676-.091c-.736-.095-1.3-.303-1.69-.624-.38-.33-.572-.806-.572-1.43 0-.33.061-.624.182-.884.122-.269.295-.494.52-.676.226-.19.494-.334.806-.429.321-.104.676-.156 1.066-.156.33 0 .62.026.871.078.26.043.494.113.702.208.208.087.4.2.572.338.174.13.343.277.507.442l-.975.975a2.574 2.574 0 0 0-.715-.52 2.006 2.006 0 0 0-.91-.208c-.364 0-.628.065-.793.195a.629.629 0 0 0-.234.507c0 .225.065.399.195.52.14.113.369.195.69.247l.688.091c1.465.208 2.197.875 2.197 2.002a2.068 2.068 0 0 1-.767 1.612c-.242.19-.537.342-.884.455-.338.104-.719.156-1.144.156ZM62.322 10.156c-.502 0-.953-.082-1.352-.247a2.977 2.977 0 0 1-1-.715 3.337 3.337 0 0 1-.625-1.118 4.667 4.667 0 0 1-.22-1.482c0-.537.069-1.023.207-1.456.148-.433.356-.802.624-1.105.269-.312.598-.55.988-.715.39-.173.832-.26 1.326-.26.529 0 .988.091 1.378.273.39.182.71.429.962.741s.438.676.56 1.092c.13.407.194.845.194 1.313v.546h-4.51v.169c0 .494.138.893.415 1.196.278.295.69.442 1.235.442.416 0 .754-.087 1.014-.26.269-.173.507-.394.715-.663l.897 1.001a2.83 2.83 0 0 1-1.144.923c-.476.217-1.031.325-1.664.325Zm-.026-5.85c-.442 0-.793.147-1.053.442-.26.295-.39.676-.39 1.144v.104h2.782v-.117c0-.468-.117-.845-.35-1.131-.226-.295-.555-.442-.989-.442ZM51.937 10V3.214H53.6v1.131h.065c.138-.364.355-.667.65-.91.303-.251.72-.377 1.248-.377.702 0 1.24.23 1.612.689.372.46.559 1.114.559 1.963V10H56.07V5.879c0-.485-.087-.85-.26-1.092-.174-.243-.46-.364-.858-.364-.174 0-.343.026-.507.078a1.314 1.314 0 0 0-.43.208c-.12.087-.22.2-.298.338a.893.893 0 0 0-.117.468V10h-1.664ZM47.303 10.156c-.486 0-.923-.082-1.313-.247A2.783 2.783 0 0 1 45 9.194a3.337 3.337 0 0 1-.623-1.118 4.67 4.67 0 0 1-.221-1.482c0-.546.073-1.036.22-1.469.148-.433.356-.802.624-1.105.278-.312.607-.55.989-.715.39-.165.827-.247 1.313-.247.485 0 .922.082 1.313.247.39.165.719.403.987.715.278.303.49.672.637 1.105.148.433.221.923.221 1.469a4.67 4.67 0 0 1-.22 1.482 3.22 3.22 0 0 1-.638 1.118c-.268.312-.598.55-.988.715-.39.165-.827.247-1.313.247Zm0-1.339c.442 0 .788-.134 1.04-.403.25-.269.376-.663.376-1.183V5.97c0-.511-.125-.901-.377-1.17-.25-.269-.597-.403-1.04-.403-.433 0-.775.134-1.026.403-.252.269-.378.659-.378 1.17v1.261c0 .52.126.914.377 1.183.252.269.594.403 1.028.403ZM42.637.926v6.526c0 .407-.07.776-.208 1.105-.13.33-.321.611-.572.845a2.52 2.52 0 0 1-.897.546c-.356.13-.754.195-1.196.195-.841 0-1.495-.217-1.963-.65-.468-.442-.767-1.027-.897-1.755l1.586-.325c.078.39.216.693.416.91.208.208.49.312.845.312.338 0 .615-.104.832-.312.225-.217.338-.546.338-.988V2.33h-2.86V.926h4.576ZM32.298 10c-.572 0-.992-.143-1.261-.429-.269-.286-.403-.689-.403-1.209V.38h1.664v8.294h.897V10h-.897ZM28.364 10c-.364 0-.654-.104-.87-.312-.209-.217-.339-.503-.39-.858h-.079c-.112.442-.342.776-.689 1.001-.346.217-.775.325-1.287.325-.693 0-1.226-.182-1.599-.546-.372-.364-.559-.85-.559-1.456 0-.702.252-1.222.754-1.56.503-.347 1.218-.52 2.145-.52h1.157V5.58c0-.381-.1-.676-.299-.884-.199-.208-.52-.312-.962-.312-.39 0-.706.087-.949.26a2.448 2.448 0 0 0-.598.598l-.988-.884c.252-.39.585-.702 1.001-.936.416-.243.967-.364 1.651-.364.919 0 1.617.208 2.093.624.477.416.715 1.014.715 1.794v3.198h.676V10h-.923Zm-2.756-1.053c.373 0 .69-.082.95-.247.26-.165.39-.407.39-.728v-.897H25.88c-.866 0-1.3.277-1.3.832v.221c0 .277.087.485.26.624.182.13.438.195.767.195ZM15.73 10V3.214h1.664v1.131h.065c.138-.364.355-.667.65-.91.303-.251.72-.377 1.248-.377.702 0 1.24.23 1.612.689.372.46.559 1.114.559 1.963V10h-1.664V5.879c0-.485-.087-.85-.26-1.092-.174-.243-.46-.364-.858-.364-.174 0-.343.026-.507.078a1.314 1.314 0 0 0-.43.208c-.12.087-.22.2-.298.338a.893.893 0 0 0-.117.468V10H15.73ZM11.095 10.156c-.485 0-.923-.082-1.313-.247a2.783 2.783 0 0 1-.988-.715 3.339 3.339 0 0 1-.624-1.118 4.67 4.67 0 0 1-.22-1.482c0-.546.073-1.036.22-1.469.148-.433.356-.802.624-1.105.278-.312.607-.55.988-.715.39-.165.828-.247 1.313-.247.486 0 .923.082 1.313.247.39.165.72.403.989.715.277.303.49.672.636 1.105.148.433.222.923.222 1.469a4.67 4.67 0 0 1-.222 1.482c-.147.433-.36.806-.636 1.118-.27.312-.598.55-.989.715-.39.165-.827.247-1.313.247Zm0-1.339c.442 0 .79-.134 1.04-.403.252-.269.377-.663.377-1.183V5.97c0-.511-.125-.901-.377-1.17-.25-.269-.598-.403-1.04-.403-.433 0-.775.134-1.027.403-.25.269-.377.659-.377 1.17v1.261c0 .52.126.914.377 1.183.252.269.594.403 1.027.403ZM1.782 10H.066V.926h4.095c.416 0 .789.065 1.118.195.33.13.607.32.832.572.234.243.412.537.533.884.13.347.195.732.195 1.157 0 .624-.143 1.161-.429 1.612-.277.45-.697.771-1.26.962L7.007 10h-1.91l-1.69-3.497H1.781V10Zm2.21-4.94c.33 0 .59-.087.78-.26.19-.182.286-.438.286-.767v-.598c0-.33-.095-.58-.286-.754-.19-.173-.45-.26-.78-.26h-2.21V5.06h2.21Z" fill="#212529"/></svg>