<svg width="69" height="11" fill="none" xmlns="http://www.w3.org/2000/svg"><path d="M66.913 10c-.572 0-1.01-.147-1.313-.442-.295-.303-.442-.732-.442-1.287V4.54h-1.001V3.214h.52c.251 0 .42-.056.507-.169.095-.121.143-.299.143-.533V1.355h1.495v1.859h1.391V4.54h-1.391v4.134h1.287V10h-1.196ZM60.631 10.156c-.65 0-1.196-.108-1.638-.325a3.858 3.858 0 0 1-1.17-.923l1.014-.988c.252.286.525.511.82.676.303.165.65.247 1.04.247.398 0 .684-.07.857-.208a.68.68 0 0 0 .273-.572c0-.2-.065-.355-.195-.468-.121-.121-.333-.204-.637-.247l-.676-.091c-.736-.095-1.3-.303-1.69-.624-.381-.33-.572-.806-.572-1.43 0-.33.06-.624.182-.884.122-.269.295-.494.52-.676.226-.19.494-.334.806-.429.32-.104.676-.156 1.066-.156.33 0 .62.026.871.078.26.043.494.113.702.208.208.087.399.2.572.338.174.13.343.277.507.442l-.975.975a2.572 2.572 0 0 0-.715-.52 2.006 2.006 0 0 0-.91-.208c-.364 0-.628.065-.793.195a.629.629 0 0 0-.234.507c0 .225.065.399.195.52.139.113.369.195.69.247l.688.091c1.465.208 2.197.875 2.197 2.002a2.068 2.068 0 0 1-.767 1.612c-.242.19-.537.342-.884.455-.338.104-.72.156-1.144.156ZM53.902 10.156c-.503 0-.953-.082-1.352-.247a2.976 2.976 0 0 1-1-.715 3.337 3.337 0 0 1-.625-1.118 4.67 4.67 0 0 1-.22-1.482c0-.537.068-1.023.207-1.456.147-.433.355-.802.624-1.105.269-.312.598-.55.988-.715.39-.173.832-.26 1.326-.26.529 0 .988.091 1.378.273.39.182.71.429.962.741.251.312.438.676.56 1.092.13.407.194.845.194 1.313v.546h-4.51v.169c0 .494.138.893.415 1.196.277.295.69.442 1.235.442.416 0 .754-.087 1.014-.26a2.87 2.87 0 0 0 .715-.663l.897 1.001a2.83 2.83 0 0 1-1.144.923c-.477.217-1.031.325-1.664.325Zm-.026-5.85c-.442 0-.793.147-1.053.442-.26.295-.39.676-.39 1.144v.104h2.782v-.117c0-.468-.117-.845-.35-1.131-.226-.295-.556-.442-.989-.442ZM40.593 10 38.487.926h1.716l.897 4.355.56 2.782h.038l.65-2.782 1.04-4.355h1.898l1.04 4.355.637 2.782h.04l.571-2.782.923-4.355h1.638L47.965 10h-1.938L44.87 5.203l-.559-2.392h-.026L43.7 5.203 42.543 10h-1.95ZM28.396.38h1.665v3.965h.064c.14-.364.356-.667.65-.91.304-.251.72-.377 1.248-.377.702 0 1.24.23 1.612.689.373.46.56 1.114.56 1.963V10H32.53V5.879c0-.485-.087-.85-.26-1.092-.174-.243-.46-.364-.858-.364-.174 0-.343.026-.508.078a1.314 1.314 0 0 0-.428.208c-.122.087-.221.2-.3.338a.893.893 0 0 0-.116.468V10h-1.665V.38ZM26.127 10c-.364 0-.654-.104-.871-.312-.208-.217-.338-.503-.39-.858h-.078c-.113.442-.343.776-.69 1.001-.346.217-.775.325-1.286.325-.694 0-1.227-.182-1.6-.546-.372-.364-.558-.85-.558-1.456 0-.702.251-1.222.754-1.56.502-.347 1.217-.52 2.145-.52h1.157V5.58c0-.381-.1-.676-.3-.884-.198-.208-.52-.312-.961-.312-.39 0-.707.087-.95.26a2.45 2.45 0 0 0-.597.598l-.988-.884c.251-.39.585-.702 1-.936.417-.243.967-.364 1.652-.364.919 0 1.616.208 2.093.624.477.416.715 1.014.715 1.794v3.198h.676V10h-.923ZM23.37 8.947c.373 0 .689-.082.949-.247.26-.165.39-.407.39-.728v-.897h-1.066c-.867 0-1.3.277-1.3.832v.221c0 .277.086.485.26.624.182.13.438.195.767.195ZM16.17 10V3.214h1.665v1.404h.065a2.21 2.21 0 0 1 .195-.52 1.685 1.685 0 0 1 .884-.767c.208-.078.446-.117.715-.117h.364v1.573h-.52c-.563 0-.988.082-1.274.247-.286.165-.43.433-.43.806V10h-1.663ZM13.901 10c-.364 0-.654-.104-.87-.312-.209-.217-.339-.503-.39-.858h-.079c-.112.442-.342.776-.689 1.001-.346.217-.775.325-1.287.325-.693 0-1.226-.182-1.599-.546-.372-.364-.559-.85-.559-1.456 0-.702.252-1.222.754-1.56.503-.347 1.218-.52 2.145-.52h1.157V5.58c0-.381-.1-.676-.299-.884-.2-.208-.52-.312-.962-.312-.39 0-.706.087-.949.26a2.45 2.45 0 0 0-.598.598l-.988-.884c.252-.39.585-.702 1.001-.936.416-.243.967-.364 1.651-.364.919 0 1.617.208 2.093.624.477.416.715 1.014.715 1.794v3.198h.676V10h-.923Zm-2.756-1.053c.373 0 .69-.082.95-.247.26-.165.39-.407.39-.728v-.897h-1.067c-.866 0-1.3.277-1.3.832v.221c0 .277.087.485.26.624.182.13.438.195.767.195ZM3.887 10.156c-.78 0-1.443-.139-1.99-.416a4.628 4.628 0 0 1-1.39-1.092L1.664 7.53a3.34 3.34 0 0 0 1.04.832c.39.19.819.286 1.287.286.528 0 .927-.113 1.196-.338.268-.234.403-.546.403-.936 0-.303-.087-.55-.26-.741-.173-.19-.498-.33-.975-.416l-.858-.13C1.686 5.801.78 4.921.78 3.448c0-.407.074-.776.22-1.105.157-.33.378-.611.664-.845A2.964 2.964 0 0 1 2.69.965C3.098.835 3.558.77 4.069.77c.684 0 1.282.113 1.794.338.511.225.949.559 1.313 1.001l-1.17 1.105a2.695 2.695 0 0 0-.82-.676c-.32-.173-.723-.26-1.208-.26-.494 0-.867.095-1.118.286-.243.182-.364.442-.364.78 0 .347.1.602.299.767.2.165.52.286.962.364l.845.156c.918.165 1.595.46 2.028.884.442.416.663 1.001.663 1.755 0 .433-.078.828-.234 1.183-.147.347-.369.65-.663.91a3.004 3.004 0 0 1-1.066.585c-.416.139-.897.208-1.443.208Z" fill="#212529"/></svg>