<svg width="90" height="11" fill="none" xmlns="http://www.w3.org/2000/svg"><path d="M88.892 10c-.364 0-.654-.104-.87-.312-.209-.217-.339-.503-.39-.858h-.079c-.112.442-.342.776-.689 1.001-.346.217-.775.325-1.287.325-.693 0-1.226-.182-1.599-.546-.372-.364-.559-.85-.559-1.456 0-.702.252-1.222.754-1.56.503-.347 1.218-.52 2.145-.52h1.157V5.58c0-.381-.1-.676-.299-.884-.199-.208-.52-.312-.962-.312-.39 0-.706.087-.949.26a2.45 2.45 0 0 0-.598.598l-.988-.884c.252-.39.585-.702 1.001-.936.416-.243.967-.364 1.651-.364.92 0 1.617.208 2.093.624.477.416.715 1.014.715 1.794v3.198h.676V10h-.923Zm-2.756-1.053c.373 0 .69-.082.95-.247.26-.165.39-.407.39-.728v-.897h-1.067c-.866 0-1.3.277-1.3.832v.221c0 .277.087.485.26.624.182.13.438.195.767.195ZM78.937 10V3.214H80.6v1.404h.065a2.21 2.21 0 0 1 .195-.52 1.683 1.683 0 0 1 .884-.767c.208-.078.446-.117.715-.117h.364v1.573h-.52c-.564 0-.988.082-1.274.247-.286.165-.43.433-.43.806V10h-1.663ZM67.397 10V3.214h1.664v1.131h.065a2.2 2.2 0 0 1 .624-.91c.286-.251.684-.377 1.196-.377.468 0 .87.113 1.209.338.338.225.59.568.754 1.027h.026c.121-.381.36-.702.715-.962.364-.269.819-.403 1.365-.403.667 0 1.178.23 1.534.689.364.46.546 1.114.546 1.963V10H75.43V5.879c0-.97-.364-1.456-1.092-1.456-.165 0-.325.026-.481.078a1.191 1.191 0 0 0-.403.208.961.961 0 0 0-.273.338.983.983 0 0 0-.104.468V10h-1.664V5.879c0-.97-.364-1.456-1.092-1.456-.156 0-.312.026-.468.078a1.191 1.191 0 0 0-.403.208 1.1 1.1 0 0 0-.286.338.983.983 0 0 0-.104.468V10h-1.664ZM65.127 10c-.364 0-.654-.104-.871-.312-.208-.217-.338-.503-.39-.858h-.078c-.113.442-.342.776-.69 1.001-.346.217-.775.325-1.286.325-.694 0-1.226-.182-1.6-.546-.372-.364-.558-.85-.558-1.456 0-.702.251-1.222.754-1.56.502-.347 1.218-.52 2.145-.52h1.157V5.58c0-.381-.1-.676-.3-.884-.198-.208-.52-.312-.961-.312-.39 0-.706.087-.95.26a2.45 2.45 0 0 0-.597.598l-.988-.884c.251-.39.585-.702 1-.936.417-.243.967-.364 1.652-.364.918 0 1.616.208 2.093.624.476.416.715 1.014.715 1.794v3.198h.676V10h-.923ZM62.37 8.947c.372 0 .689-.082.949-.247.26-.165.39-.407.39-.728v-.897h-1.066c-.867 0-1.3.277-1.3.832v.221c0 .277.087.485.26.624.182.13.438.195.767.195ZM54.493 5.892l-1.209 1.43V10h-1.716V.926h1.716v4.472h.065l1.287-1.703 2.25-2.769h1.975l-3.159 3.783L59.122 10H57.08l-2.587-4.108ZM41.092.38h1.664v5.798h.065l.897-1.222 1.521-1.742h1.885l-2.34 2.626L47.371 10h-1.976l-1.742-3.042-.897.975V10h-1.664V.38ZM38.822 10c-.364 0-.654-.104-.87-.312-.209-.217-.339-.503-.39-.858h-.079c-.112.442-.342.776-.689 1.001-.346.217-.775.325-1.287.325-.693 0-1.226-.182-1.599-.546-.373-.364-.559-.85-.559-1.456 0-.702.252-1.222.754-1.56.503-.347 1.218-.52 2.145-.52h1.157V5.58c0-.381-.1-.676-.299-.884-.2-.208-.52-.312-.962-.312-.39 0-.706.087-.949.26a2.45 2.45 0 0 0-.598.598l-.988-.884c.252-.39.585-.702 1.001-.936.416-.243.967-.364 1.651-.364.919 0 1.616.208 2.093.624.477.416.715 1.014.715 1.794v3.198h.676V10h-.923Zm-2.756-1.053c.373 0 .69-.082.95-.247.26-.165.39-.407.39-.728v-.897h-1.067c-.867 0-1.3.277-1.3.832v.221c0 .277.087.485.26.624.182.13.438.195.767.195ZM26.188.38h1.664v3.965h.065c.138-.364.355-.667.65-.91.303-.251.72-.377 1.248-.377.702 0 1.24.23 1.612.689.372.46.559 1.114.559 1.963V10h-1.664V5.879c0-.485-.087-.85-.26-1.092-.174-.243-.46-.364-.858-.364-.174 0-.343.026-.507.078a1.314 1.314 0 0 0-.43.208c-.12.087-.22.2-.298.338a.893.893 0 0 0-.117.468V10h-1.664V.38ZM23.445 10c-.573 0-1.01-.147-1.314-.442-.294-.303-.442-.732-.442-1.287V4.54h-1V3.214h.52c.25 0 .42-.056.506-.169.096-.121.143-.299.143-.533V1.355h1.495v1.859h1.391V4.54h-1.39v4.134h1.287V10h-1.196ZM16.171 10V3.214h1.664v1.404h.065c.044-.182.109-.355.195-.52a1.687 1.687 0 0 1 .884-.767c.208-.078.447-.117.715-.117h.364v1.573h-.52c-.563 0-.988.082-1.274.247-.286.165-.429.433-.429.806V10h-1.664ZM13.902 10c-.364 0-.655-.104-.871-.312-.209-.217-.338-.503-.39-.858h-.079c-.112.442-.342.776-.688 1.001-.347.217-.776.325-1.288.325-.693 0-1.226-.182-1.599-.546-.372-.364-.559-.85-.559-1.456 0-.702.252-1.222.754-1.56.503-.347 1.218-.52 2.146-.52h1.157V5.58c0-.381-.1-.676-.3-.884-.199-.208-.52-.312-.962-.312-.39 0-.706.087-.949.26a2.45 2.45 0 0 0-.598.598l-.988-.884c.252-.39.585-.702 1.001-.936.416-.243.967-.364 1.652-.364.918 0 1.616.208 2.093.624.476.416.715 1.014.715 1.794v3.198h.676V10h-.923Zm-2.756-1.053c.372 0 .688-.082.948-.247.26-.165.39-.407.39-.728v-.897h-1.066c-.866 0-1.3.277-1.3.832v.221c0 .277.087.485.26.624.182.13.438.195.768.195ZM3.887 10.156c-.78 0-1.443-.139-1.989-.416a4.628 4.628 0 0 1-1.39-1.092L1.663 7.53a3.34 3.34 0 0 0 1.04.832c.39.19.82.286 1.287.286.529 0 .927-.113 1.196-.338.269-.234.403-.546.403-.936 0-.303-.087-.55-.26-.741-.173-.19-.498-.33-.975-.416l-.858-.13C1.686 5.801.78 4.921.78 3.448c0-.407.074-.776.221-1.105.156-.33.377-.611.663-.845A2.964 2.964 0 0 1 2.691.965C3.098.835 3.558.77 4.07.77c.685 0 1.283.113 1.794.338.511.225.95.559 1.313 1.001l-1.17 1.105a2.694 2.694 0 0 0-.819-.676c-.32-.173-.724-.26-1.209-.26-.494 0-.867.095-1.118.286-.243.182-.364.442-.364.78 0 .347.1.602.3.767.198.165.52.286.961.364l.845.156c.919.165 1.595.46 2.028.884.442.416.663 1.001.663 1.755 0 .433-.078.828-.234 1.183-.147.347-.368.65-.663.91a3.004 3.004 0 0 1-1.066.585c-.416.139-.897.208-1.443.208Z" fill="#212529"/></svg>