<svg width="16" height="16" fill="none" xmlns="http://www.w3.org/2000/svg"><g clip-path="url('#clip0_1_559')"><path d="m3.546 9.669-.557 2.08-2.036.042A7.964 7.964 0 0 1 0 8a7.96 7.96 0 0 1 .894-3.68l1.813.333.794 1.801a4.756 4.756 0 0 0 .045 3.215Z" fill="#FBBB00"/><path d="M15.86 6.506a8.006 8.006 0 0 1-.035 3.164 7.998 7.998 0 0 1-2.817 4.569l-2.283-.117-.323-2.017a4.768 4.768 0 0 0 2.052-2.435H8.176V6.506H15.86Z" fill="#518EF8"/><path d="M13.008 14.238A7.966 7.966 0 0 1 8 16 7.999 7.999 0 0 1 .954 11.79L3.546 9.67a4.757 4.757 0 0 0 6.856 2.436l2.606 2.133Z" fill="#28B446"/><path d="m13.106 1.842-2.591 2.121A4.758 4.758 0 0 0 3.5 6.454L.895 4.322A7.998 7.998 0 0 1 8 0c1.941 0 3.72.691 5.106 1.842Z" fill="#F14336"/></g><defs><clipPath id="clip0_1_559"><path fill="#fff" d="M0 0h16v16H0z"/></clipPath></defs></svg>