<svg width="174" height="16" fill="none" xmlns="http://www.w3.org/2000/svg"><path d="M168.161 12v-1.696h1.472V2.528h-1.472V.832h5.072v1.696h-1.488v7.776h1.488V12h-5.072ZM161.395 12v-1.696h1.472V2.528h-1.472V.832h5.072v1.696h-1.488v7.776h1.488V12h-5.072ZM151.256 8.144V6.112h4.576v2.032h-4.576ZM141.45 12V3.648h2.048v1.728h.08c.053-.224.133-.437.24-.64a2.055 2.055 0 0 1 1.088-.944c.256-.096.549-.144.88-.144h.448v1.936h-.64c-.694 0-1.216.101-1.568.304-.352.203-.528.533-.528.992V12h-2.048ZM135.904 12.192c-.619 0-1.174-.101-1.664-.304a3.662 3.662 0 0 1-1.232-.88 4.098 4.098 0 0 1-.768-1.376 5.728 5.728 0 0 1-.272-1.824c0-.661.085-1.259.256-1.792a3.92 3.92 0 0 1 .768-1.36c.33-.384.736-.677 1.216-.88.48-.213 1.024-.32 1.632-.32.65 0 1.216.112 1.696.336.48.224.874.528 1.184.912.309.384.538.832.688 1.344.16.501.24 1.04.24 1.616v.672h-5.552v.208c0 .608.17 1.099.512 1.472.341.363.848.544 1.52.544.512 0 .928-.107 1.248-.32.33-.213.624-.485.88-.816l1.104 1.232c-.342.48-.811.859-1.408 1.136-.587.267-1.27.4-2.048.4Zm-.032-7.2c-.544 0-.976.181-1.296.544-.32.363-.48.832-.48 1.408v.128h3.424v-.144c0-.576-.144-1.04-.432-1.392-.278-.363-.683-.544-1.216-.544ZM122.934 3.648h2.048v1.376h.064c.149-.48.432-.859.848-1.136.416-.288.901-.432 1.456-.432 1.067 0 1.877.379 2.432 1.136.565.747.848 1.819.848 3.216 0 1.408-.283 2.49-.848 3.248-.555.757-1.365 1.136-2.432 1.136-.555 0-1.04-.144-1.456-.432a2.25 2.25 0 0 1-.848-1.152h-.064V15.2h-2.048V3.648Zm3.76 6.848c.533 0 .965-.176 1.296-.528.331-.352.496-.827.496-1.424v-1.44c0-.597-.165-1.072-.496-1.424-.331-.363-.763-.544-1.296-.544-.491 0-.901.123-1.232.368-.32.245-.48.57-.48.976v2.656c0 .437.16.773.48 1.008.331.235.741.352 1.232.352ZM117.23 12.192a4.12 4.12 0 0 1-1.616-.304 3.435 3.435 0 0 1-1.216-.88 4.132 4.132 0 0 1-.768-1.376 5.756 5.756 0 0 1-.272-1.824c0-.672.091-1.275.272-1.808.182-.533.438-.987.768-1.36a3.434 3.434 0 0 1 1.216-.88 4.118 4.118 0 0 1 1.616-.304c.598 0 1.136.101 1.616.304.48.203.886.496 1.216.88.342.373.603.827.784 1.36.182.533.272 1.136.272 1.808 0 .672-.09 1.28-.272 1.824a3.948 3.948 0 0 1-.784 1.376c-.33.384-.736.677-1.216.88a4.116 4.116 0 0 1-1.616.304Zm0-1.648c.544 0 .971-.165 1.28-.496.31-.33.464-.816.464-1.456V7.04c0-.63-.154-1.11-.464-1.44-.309-.33-.736-.496-1.28-.496-.533 0-.954.165-1.264.496-.309.33-.464.81-.464 1.44v1.552c0 .64.155 1.125.464 1.456.31.33.731.496 1.264.496ZM111.263 12c-.704 0-1.221-.176-1.552-.528-.33-.352-.496-.848-.496-1.488V.16h2.048v10.208h1.104V12h-1.104ZM103.669 12.192c-.618 0-1.173-.101-1.664-.304a3.672 3.672 0 0 1-1.232-.88 4.132 4.132 0 0 1-.768-1.376 5.76 5.76 0 0 1-.272-1.824c0-.661.086-1.259.256-1.792.182-.533.438-.987.768-1.36a3.25 3.25 0 0 1 1.216-.88c.48-.213 1.024-.32 1.632-.32.651 0 1.216.112 1.696.336.48.224.875.528 1.184.912.31.384.539.832.688 1.344.16.501.24 1.04.24 1.616v.672h-5.552v.208c0 .608.171 1.099.512 1.472.342.363.848.544 1.52.544.512 0 .928-.107 1.248-.32a3.53 3.53 0 0 0 .88-.816l1.104 1.232c-.341.48-.81.859-1.408 1.136-.586.267-1.269.4-2.048.4Zm-.032-7.2c-.544 0-.976.181-1.296.544-.32.363-.48.832-.48 1.408v.128h3.424v-.144c0-.576-.144-1.04-.432-1.392-.277-.363-.682-.544-1.216-.544ZM93.82 12l-2.784-8.352h2.016l1.168 3.6.816 2.976h.112l.816-2.976 1.136-3.6h1.952L96.252 12H93.82ZM86.623 12.192c-.62 0-1.174-.101-1.665-.304a3.666 3.666 0 0 1-1.231-.88 4.111 4.111 0 0 1-.769-1.376 5.748 5.748 0 0 1-.272-1.824c0-.661.086-1.259.256-1.792.182-.533.438-.987.769-1.36.33-.384.736-.677 1.216-.88.48-.213 1.023-.32 1.631-.32.651 0 1.216.112 1.696.336.48.224.875.528 1.184.912.31.384.54.832.688 1.344.16.501.24 1.04.24 1.616v.672h-5.552v.208c0 .608.171 1.099.513 1.472.34.363.847.544 1.52.544.512 0 .928-.107 1.248-.32.33-.213.624-.485.88-.816l1.104 1.232c-.342.48-.811.859-1.408 1.136-.587.267-1.27.4-2.049.4Zm-.032-7.2c-.544 0-.976.181-1.296.544-.32.363-.48.832-.48 1.408v.128h3.424v-.144c0-.576-.145-1.04-.433-1.392-.277-.363-.682-.544-1.215-.544ZM72.343.832h4.064c.726 0 1.382.117 1.968.352a3.91 3.91 0 0 1 1.52 1.056c.427.459.752 1.04.976 1.744.235.693.352 1.504.352 2.432 0 .928-.117 1.744-.352 2.448-.224.693-.55 1.275-.976 1.744a3.989 3.989 0 0 1-1.52 1.04c-.586.235-1.242.352-1.968.352h-4.064V.832Zm4.064 9.296c.79 0 1.414-.23 1.872-.688.47-.47.704-1.184.704-2.144v-1.76c0-.96-.234-1.67-.704-2.128-.458-.47-1.082-.704-1.872-.704h-1.952v7.424h1.952ZM62.888 12.192c-.618 0-1.173-.101-1.664-.304a3.666 3.666 0 0 1-1.232-.88 4.111 4.111 0 0 1-.768-1.376 5.748 5.748 0 0 1-.272-1.824c0-.661.086-1.259.256-1.792.181-.533.438-.987.768-1.36.33-.384.736-.677 1.216-.88.48-.213 1.024-.32 1.632-.32.65 0 1.216.112 1.696.336.48.224.875.528 1.184.912.31.384.539.832.688 1.344.16.501.24 1.04.24 1.616v.672H61.08v.208c0 .608.17 1.099.512 1.472.342.363.848.544 1.52.544.512 0 .928-.107 1.248-.32.33-.213.624-.485.88-.816l1.104 1.232c-.341.48-.81.859-1.408 1.136-.587.267-1.27.4-2.048.4Zm-.032-7.2c-.544 0-.976.181-1.296.544-.32.363-.48.832-.48 1.408v.128h3.424v-.144c0-.576-.144-1.04-.432-1.392-.277-.363-.683-.544-1.216-.544ZM53.31 12V3.648h2.047v1.728h.08a2.72 2.72 0 0 1 .24-.64 2.074 2.074 0 0 1 1.088-.944c.256-.096.55-.144.88-.144h.448v1.936h-.64c-.693 0-1.216.101-1.568.304-.352.203-.528.533-.528.992V12H53.31ZM50.516 12c-.448 0-.806-.128-1.072-.384-.257-.267-.416-.619-.48-1.056h-.096c-.14.544-.422.955-.849 1.232-.426.267-.954.4-1.584.4-.853 0-1.509-.224-1.968-.672-.458-.448-.688-1.045-.688-1.792 0-.864.31-1.504.928-1.92.62-.427 1.5-.64 2.64-.64h1.425V6.56c0-.47-.123-.832-.368-1.088-.246-.256-.64-.384-1.185-.384-.48 0-.869.107-1.168.32a3.016 3.016 0 0 0-.736.736L44.1 5.056c.309-.48.72-.864 1.231-1.152.512-.299 1.19-.448 2.032-.448 1.131 0 1.99.256 2.577.768.586.512.88 1.248.88 2.208v3.936h.831V12h-1.136Zm-3.392-1.296c.458 0 .847-.101 1.167-.304.32-.203.48-.501.48-.896V8.4H47.46c-1.066 0-1.6.341-1.6 1.024v.272c0 .341.107.597.32.768.224.16.54.24.944.24ZM30.65 3.648h1.967l.848 3.44.656 2.864h.064l.768-2.864.976-3.44h1.856l1.008 3.44.784 2.864h.064l.656-2.864.832-3.44h1.904L40.745 12h-2.208l-1.072-3.68-.624-2.272h-.048l-.608 2.272L35.13 12h-2.176L30.65 3.648ZM28.089 12c-.704 0-1.243-.181-1.616-.544-.363-.373-.544-.901-.544-1.584V5.28h-1.232V3.648h.64c.31 0 .517-.07.624-.208.117-.15.176-.368.176-.656V1.36h1.84v2.288h1.712V5.28h-1.712v5.088h1.584V12h-1.472ZM20.303 5.264h-1.232V3.648h1.232v-1.2c0-.736.192-1.301.576-1.696.395-.395.97-.592 1.728-.592h1.456v1.632h-1.712v1.856h1.712v1.616h-1.712V12h-2.048V5.264ZM14.277 12.192a4.118 4.118 0 0 1-1.616-.304 3.425 3.425 0 0 1-1.216-.88 4.108 4.108 0 0 1-.768-1.376 5.745 5.745 0 0 1-.272-1.824c0-.672.09-1.275.272-1.808a3.93 3.93 0 0 1 .768-1.36 3.425 3.425 0 0 1 1.216-.88 4.117 4.117 0 0 1 1.616-.304c.598 0 1.136.101 1.616.304.48.203.886.496 1.216.88.342.373.603.827.784 1.36.182.533.272 1.136.272 1.808 0 .672-.09 1.28-.272 1.824a3.965 3.965 0 0 1-.784 1.376c-.33.384-.736.677-1.216.88a4.118 4.118 0 0 1-1.616.304Zm0-1.648c.544 0 .97-.165 1.28-.496.31-.33.464-.816.464-1.456V7.04c0-.63-.154-1.11-.464-1.44-.31-.33-.736-.496-1.28-.496-.533 0-.954.165-1.264.496-.31.33-.464.81-.464 1.44v1.552c0 .64.155 1.125.464 1.456.31.33.73.496 1.264.496ZM4.784 12.192c-.96 0-1.776-.17-2.448-.512a5.695 5.695 0 0 1-1.712-1.344L2.048 8.96c.384.448.81.79 1.28 1.024.48.235 1.008.352 1.584.352.65 0 1.141-.139 1.472-.416.33-.288.496-.672.496-1.152 0-.373-.107-.677-.32-.912-.213-.235-.613-.405-1.2-.512l-1.056-.16C2.074 6.832.96 5.749.96 3.936c0-.501.09-.955.272-1.36.192-.405.464-.752.816-1.04A3.648 3.648 0 0 1 3.312.88 5.567 5.567 0 0 1 5.008.64c.843 0 1.579.139 2.208.416.63.277 1.168.688 1.616 1.232l-1.44 1.36a3.316 3.316 0 0 0-1.008-.832c-.395-.213-.89-.32-1.488-.32-.608 0-1.067.117-1.376.352-.299.224-.448.544-.448.96 0 .427.123.741.368.944.245.203.64.352 1.184.448l1.04.192c1.13.203 1.963.565 2.496 1.088.544.512.816 1.232.816 2.16 0 .533-.096 1.019-.288 1.456-.181.427-.453.8-.816 1.12-.352.31-.79.55-1.312.72-.512.17-1.104.256-1.776.256Z" fill="#000"/></svg>