<svg width="261" height="58" fill="none" xmlns="http://www.w3.org/2000/svg"><path d="M111.104 54c-.704 0-1.242-.181-1.616-.544-.362-.373-.544-.901-.544-1.584V47.28h-1.232v-1.632h.64c.31 0 .518-.07.624-.208.118-.15.176-.368.176-.656V43.36h1.84v2.288h1.712v1.632h-1.712v5.088h1.584V54h-1.472ZM99.09 54v-8.352h2.048v1.392h.08c.171-.448.438-.821.8-1.12.374-.31.886-.464 1.536-.464.864 0 1.526.283 1.984.848.459.565.688 1.37.688 2.416V54h-2.048v-5.072c0-.597-.106-1.045-.32-1.344-.213-.299-.565-.448-1.056-.448-.213 0-.421.032-.624.096a1.618 1.618 0 0 0-.528.256 1.267 1.267 0 0 0-.368.416 1.1 1.1 0 0 0-.144.576V54H99.09ZM93.544 54.192c-.618 0-1.173-.101-1.664-.304a3.664 3.664 0 0 1-1.232-.88 4.108 4.108 0 0 1-.768-1.376 5.748 5.748 0 0 1-.272-1.824c0-.661.086-1.259.256-1.792a3.93 3.93 0 0 1 .768-1.36c.331-.384.736-.677 1.216-.88.48-.213 1.024-.32 1.632-.32.651 0 1.216.112 1.696.336.48.224.875.528 1.184.912.31.384.54.832.688 1.344.16.501.24 1.04.24 1.616v.672h-5.552v.208c0 .608.171 1.099.512 1.472.342.363.848.544 1.52.544.512 0 .928-.107 1.248-.32.331-.213.624-.485.88-.816L97 52.656c-.34.48-.81.859-1.408 1.136-.586.267-1.269.4-2.048.4Zm-.032-7.2c-.544 0-.976.181-1.296.544-.32.363-.48.832-.48 1.408v.128h3.424v-.144c0-.576-.144-1.04-.432-1.392-.277-.363-.682-.544-1.216-.544ZM75.965 54v-8.352h2.048v1.392h.08c.16-.437.416-.81.768-1.12.352-.31.843-.464 1.472-.464.576 0 1.072.139 1.488.416.416.277.726.699.928 1.264h.032c.15-.47.443-.864.88-1.184.448-.33 1.008-.496 1.68-.496.822 0 1.451.283 1.888.848.448.565.672 1.37.672 2.416V54h-2.048v-5.072c0-1.195-.448-1.792-1.344-1.792-.202 0-.4.032-.592.096a1.466 1.466 0 0 0-.496.256c-.138.107-.25.245-.336.416a1.21 1.21 0 0 0-.128.576V54H80.91v-5.072c0-1.195-.448-1.792-1.344-1.792-.192 0-.384.032-.576.096a1.466 1.466 0 0 0-.496.256 1.353 1.353 0 0 0-.352.416 1.21 1.21 0 0 0-.128.576V54h-2.048ZM66.56 54v-8.352h2.047v1.392h.08c.17-.448.437-.821.8-1.12.373-.31.885-.464 1.536-.464.864 0 1.525.283 1.984.848.459.565.688 1.37.688 2.416V54h-2.048v-5.072c0-.597-.107-1.045-.32-1.344-.213-.299-.565-.448-1.056-.448a2.06 2.06 0 0 0-.624.096 1.618 1.618 0 0 0-.528.256c-.15.107-.272.245-.368.416a1.1 1.1 0 0 0-.144.576V54H66.56ZM60.278 54v-8.352h2.048v1.728h.08c.053-.224.133-.437.24-.64a2.076 2.076 0 0 1 1.088-.944c.256-.096.55-.144.88-.144h.448v1.936h-.64c-.694 0-1.216.101-1.568.304-.352.203-.528.533-.528.992V54h-2.048ZM54.732 54.192c-.619 0-1.173-.101-1.664-.304a3.664 3.664 0 0 1-1.232-.88 4.108 4.108 0 0 1-.768-1.376 5.748 5.748 0 0 1-.272-1.824c0-.661.085-1.259.256-1.792a3.93 3.93 0 0 1 .768-1.36c.33-.384.736-.677 1.216-.88.48-.213 1.024-.32 1.632-.32.65 0 1.216.112 1.696.336.48.224.875.528 1.184.912.31.384.539.832.688 1.344.16.501.24 1.04.24 1.616v.672h-5.552v.208c0 .608.17 1.099.512 1.472.341.363.848.544 1.52.544.512 0 .928-.107 1.248-.32.33-.213.624-.485.88-.816l1.104 1.232c-.341.48-.81.859-1.408 1.136-.587.267-1.27.4-2.048.4Zm-.032-7.2c-.544 0-.976.181-1.296.544-.32.363-.48.832-.48 1.408v.128h3.424v-.144c0-.576-.144-1.04-.432-1.392-.277-.363-.683-.544-1.216-.544ZM44.882 54l-2.784-8.352h2.016l1.168 3.6.816 2.976h.112l.816-2.976 1.136-3.6h1.952L47.314 54h-2.432ZM37.512 54.192a4.117 4.117 0 0 1-1.616-.304 3.427 3.427 0 0 1-1.216-.88 4.112 4.112 0 0 1-.768-1.376 5.748 5.748 0 0 1-.272-1.824c0-.672.09-1.275.272-1.808.181-.533.437-.987.768-1.36a3.427 3.427 0 0 1 1.216-.88 4.117 4.117 0 0 1 1.616-.304c.597 0 1.136.101 1.616.304.48.203.885.496 1.216.88.341.373.602.827.784 1.36.181.533.272 1.136.272 1.808 0 .672-.091 1.28-.272 1.824a3.962 3.962 0 0 1-.784 1.376c-.331.384-.736.677-1.216.88a4.116 4.116 0 0 1-1.616.304Zm0-1.648c.544 0 .97-.165 1.28-.496.309-.33.464-.816.464-1.456V49.04c0-.63-.155-1.11-.464-1.44-.31-.33-.736-.496-1.28-.496-.534 0-.955.165-1.264.496-.31.33-.464.81-.464 1.44v1.552c0 .64.154 1.125.464 1.456.309.33.73.496 1.264.496ZM30.057 52.272h-.064c-.096.544-.4 1.003-.912 1.376-.501.363-1.173.544-2.016.544a4.571 4.571 0 0 1-1.84-.368 4.114 4.114 0 0 1-1.456-1.088c-.405-.49-.725-1.093-.96-1.808-.235-.715-.352-1.541-.352-2.48 0-.939.117-1.765.352-2.48.245-.725.587-1.333 1.024-1.824a4.32 4.32 0 0 1 1.568-1.12c.608-.256 1.285-.384 2.032-.384 1.003 0 1.856.219 2.56.656.704.437 1.259 1.067 1.664 1.888l-1.712 1.008a2.98 2.98 0 0 0-.912-1.2c-.395-.32-.928-.48-1.6-.48-.832 0-1.499.256-2 .768-.49.501-.736 1.248-.736 2.24v1.792c0 .981.25 1.728.752 2.24.501.512 1.173.768 2.016.768.33 0 .64-.037.928-.112.288-.085.539-.208.752-.368.213-.16.384-.357.512-.592s.192-.512.192-.832v-.72h-2.192V47.92h4.224V54h-1.824v-1.728ZM15.757 45.648h1.92l-3.36 9.84c-.107.299-.23.555-.368.768a1.793 1.793 0 0 1-.464.544c-.181.139-.4.24-.656.304a3.72 3.72 0 0 1-.896.096h-1.232v-1.632h1.504l.384-1.168-2.992-8.752h2.032l1.456 4.416.544 2.112h.096l.576-2.112 1.456-4.416ZM1.184 42.16h2.048v4.864h.064c.15-.48.432-.859.848-1.136.416-.288.901-.432 1.456-.432 1.067 0 1.877.379 2.432 1.136.565.747.848 1.819.848 3.216 0 1.408-.283 2.49-.848 3.248-.555.757-1.365 1.136-2.432 1.136-.555 0-1.04-.144-1.456-.432a2.249 2.249 0 0 1-.848-1.152h-.064V54H1.184V42.16Zm3.76 10.336c.533 0 .965-.176 1.296-.528.33-.352.496-.827.496-1.424v-1.44c0-.597-.165-1.072-.496-1.424-.33-.363-.763-.544-1.296-.544-.49 0-.901.123-1.232.368-.32.245-.48.57-.48.976v2.656c0 .437.16.773.48 1.008.33.235.741.352 1.232.352ZM258.071 31.608h-.08c-.149.48-.432.864-.848 1.152-.416.288-.901.432-1.456.432-1.056 0-1.867-.379-2.432-1.136-.555-.757-.832-1.84-.832-3.248 0-1.397.277-2.47.832-3.216.565-.757 1.376-1.136 2.432-1.136.555 0 1.04.144 1.456.432.416.277.699.656.848 1.136h.08V21.16h2.048V33h-2.048v-1.392Zm-1.728-.112c.491 0 .901-.117 1.232-.352.331-.235.496-.57.496-1.008V27.48c0-.405-.165-.73-.496-.976-.331-.245-.741-.368-1.232-.368-.533 0-.965.181-1.296.544-.32.352-.48.827-.48 1.424v1.44c0 .597.16 1.072.48 1.424.331.352.763.528 1.296.528ZM247.341 33.192c-.618 0-1.173-.101-1.664-.304a3.67 3.67 0 0 1-1.232-.88 4.133 4.133 0 0 1-.768-1.376 5.756 5.756 0 0 1-.272-1.824c0-.661.086-1.259.256-1.792.182-.533.438-.987.768-1.36a3.25 3.25 0 0 1 1.216-.88c.48-.213 1.024-.32 1.632-.32.651 0 1.216.112 1.696.336.48.224.875.528 1.184.912.31.384.539.832.688 1.344.16.501.24 1.04.24 1.616v.672h-5.552v.208c0 .608.171 1.099.512 1.472.342.363.848.544 1.52.544.512 0 .928-.107 1.248-.32.331-.213.624-.485.88-.816l1.104 1.232c-.341.48-.81.859-1.408 1.136-.586.267-1.269.4-2.048.4Zm-.032-7.2c-.544 0-.976.181-1.296.544-.32.363-.48.832-.48 1.408v.128h3.424v-.144c0-.576-.144-1.04-.432-1.392-.277-.363-.682-.544-1.216-.544ZM234.559 21.16h2.048v4.88h.08c.171-.448.437-.821.8-1.12.373-.31.885-.464 1.536-.464.864 0 1.525.283 1.984.848.459.565.688 1.37.688 2.416V33h-2.048v-5.072c0-.597-.107-1.045-.32-1.344-.213-.299-.565-.448-1.056-.448-.213 0-.421.032-.624.096a1.616 1.616 0 0 0-.528.256 1.266 1.266 0 0 0-.368.416 1.1 1.1 0 0 0-.144.576V33h-2.048V21.16ZM229.652 33.192c-.619 0-1.168-.101-1.648-.304a3.25 3.25 0 0 1-1.216-.88 4.057 4.057 0 0 1-.736-1.376 6.068 6.068 0 0 1-.256-1.824c0-.672.085-1.275.256-1.808.171-.533.416-.987.736-1.36a3.25 3.25 0 0 1 1.216-.88c.48-.203 1.029-.304 1.648-.304.843 0 1.536.187 2.08.56.555.373.955.89 1.2 1.552l-1.68.752a1.672 1.672 0 0 0-.544-.864c-.256-.235-.608-.352-1.056-.352-.576 0-1.008.181-1.296.544-.277.363-.416.837-.416 1.424v1.52c0 .587.139 1.061.416 1.424.288.352.72.528 1.296.528.491 0 .869-.123 1.136-.368.267-.256.475-.57.624-.944l1.568.752c-.277.736-.699 1.29-1.264 1.664-.565.363-1.253.544-2.064.544ZM216.95 33v-8.352h2.048v1.392h.08c.17-.448.437-.821.8-1.12.373-.31.885-.464 1.536-.464.864 0 1.525.283 1.984.848.458.565.688 1.37.688 2.416V33h-2.048v-5.072c0-.597-.107-1.045-.32-1.344-.214-.299-.566-.448-1.056-.448-.214 0-.422.032-.624.096a1.618 1.618 0 0 0-.528.256c-.15.107-.272.245-.368.416a1.1 1.1 0 0 0-.144.576V33h-2.048ZM212.535 31.608h-.08a2.674 2.674 0 0 1-.304.608 2.02 2.02 0 0 1-.464.496 2 2 0 0 1-.672.352 2.835 2.835 0 0 1-.896.128c-.864 0-1.525-.283-1.984-.848-.458-.565-.688-1.37-.688-2.416v-5.28h2.048v5.072c0 .576.112 1.019.336 1.328.224.299.582.448 1.072.448.203 0 .4-.027.592-.08.203-.053.379-.133.528-.24.15-.117.272-.256.368-.416.096-.17.144-.368.144-.592v-5.52h2.048V33h-2.048v-1.392ZM204.75 33c-.448 0-.805-.128-1.072-.384-.256-.267-.416-.619-.48-1.056h-.096c-.139.544-.421.955-.848 1.232-.427.267-.955.4-1.584.4-.853 0-1.509-.224-1.968-.672-.459-.448-.688-1.045-.688-1.792 0-.864.309-1.504.928-1.92.619-.427 1.499-.64 2.64-.64h1.424v-.608c0-.47-.123-.832-.368-1.088-.245-.256-.64-.384-1.184-.384-.48 0-.869.107-1.168.32a3.021 3.021 0 0 0-.736.736l-1.216-1.088c.309-.48.72-.864 1.232-1.152.512-.299 1.189-.448 2.032-.448 1.131 0 1.989.256 2.576.768s.88 1.248.88 2.208v3.936h.832V33h-1.136Zm-3.392-1.296c.459 0 .848-.101 1.168-.304.32-.203.48-.501.48-.896V29.4h-1.312c-1.067 0-1.6.341-1.6 1.024v.272c0 .341.107.597.32.768.224.16.539.24.944.24ZM195.951 33c-.704 0-1.222-.176-1.552-.528-.331-.352-.496-.848-.496-1.488V21.16h2.048v10.208h1.104V33h-1.104ZM184.576 33.192c-.619 0-1.174-.101-1.664-.304a3.66 3.66 0 0 1-1.232-.88 4.098 4.098 0 0 1-.768-1.376 5.728 5.728 0 0 1-.272-1.824c0-.661.085-1.259.256-1.792a3.92 3.92 0 0 1 .768-1.36c.33-.384.736-.677 1.216-.88.48-.213 1.024-.32 1.632-.32.65 0 1.216.112 1.696.336.48.224.874.528 1.184.912.309.384.538.832.688 1.344.16.501.24 1.04.24 1.616v.672h-5.552v.208c0 .608.17 1.099.512 1.472.341.363.848.544 1.52.544.512 0 .928-.107 1.248-.32.33-.213.624-.485.88-.816l1.104 1.232c-.342.48-.811.859-1.408 1.136-.587.267-1.27.4-2.048.4Zm-.032-7.2c-.544 0-.976.181-1.296.544-.32.363-.48.832-.48 1.408v.128h3.424v-.144c0-.576-.144-1.04-.432-1.392-.278-.363-.683-.544-1.216-.544ZM166.997 33v-8.352h2.048v1.392h.08c.16-.437.416-.81.768-1.12.352-.31.842-.464 1.472-.464.576 0 1.072.139 1.488.416.416.277.725.699.928 1.264h.032c.149-.47.442-.864.88-1.184.448-.33 1.008-.496 1.68-.496.821 0 1.45.283 1.888.848.448.565.672 1.37.672 2.416V33h-2.048v-5.072c0-1.195-.448-1.792-1.344-1.792-.203 0-.4.032-.592.096a1.456 1.456 0 0 0-.496.256 1.174 1.174 0 0 0-.336.416c-.086.16-.128.352-.128.576V33h-2.048v-5.072c0-1.195-.448-1.792-1.344-1.792-.192 0-.384.032-.576.096a1.456 1.456 0 0 0-.496.256 1.347 1.347 0 0 0-.352.416c-.086.16-.128.352-.128.576V33h-2.048ZM161.451 33.192c-.619 0-1.174-.101-1.664-.304a3.66 3.66 0 0 1-1.232-.88 4.098 4.098 0 0 1-.768-1.376 5.728 5.728 0 0 1-.272-1.824c0-.661.085-1.259.256-1.792a3.92 3.92 0 0 1 .768-1.36c.33-.384.736-.677 1.216-.88.48-.213 1.024-.32 1.632-.32.65 0 1.216.112 1.696.336.48.224.874.528 1.184.912.309.384.538.832.688 1.344.16.501.24 1.04.24 1.616v.672h-5.552v.208c0 .608.17 1.099.512 1.472.341.363.848.544 1.52.544.512 0 .928-.107 1.248-.32.33-.213.624-.485.88-.816l1.104 1.232c-.342.48-.811.859-1.408 1.136-.587.267-1.27.4-2.048.4Zm-.032-7.2c-.544 0-.976.181-1.296.544-.32.363-.48.832-.48 1.408v.128h3.424v-.144c0-.576-.144-1.04-.432-1.392-.278-.363-.683-.544-1.216-.544ZM148.668 21.16h2.048v4.88h.08c.171-.448.438-.821.8-1.12.374-.31.886-.464 1.536-.464.864 0 1.526.283 1.984.848.459.565.688 1.37.688 2.416V33h-2.048v-5.072c0-.597-.106-1.045-.32-1.344-.213-.299-.565-.448-1.056-.448-.213 0-.421.032-.624.096a1.616 1.616 0 0 0-.528.256 1.266 1.266 0 0 0-.368.416 1.1 1.1 0 0 0-.144.576V33h-2.048V21.16ZM143.761 33.192c-.618 0-1.168-.101-1.648-.304a3.25 3.25 0 0 1-1.216-.88 4.057 4.057 0 0 1-.736-1.376 6.1 6.1 0 0 1-.256-1.824c0-.672.086-1.275.256-1.808.171-.533.416-.987.736-1.36a3.25 3.25 0 0 1 1.216-.88c.48-.203 1.03-.304 1.648-.304.843 0 1.536.187 2.08.56.555.373.955.89 1.2 1.552l-1.68.752a1.672 1.672 0 0 0-.544-.864c-.256-.235-.608-.352-1.056-.352-.576 0-1.008.181-1.296.544-.277.363-.416.837-.416 1.424v1.52c0 .587.139 1.061.416 1.424.288.352.72.528 1.296.528.491 0 .87-.123 1.136-.368.267-.256.475-.57.624-.944l1.568.752c-.277.736-.698 1.29-1.264 1.664-.565.363-1.253.544-2.064.544ZM134.284 33.192c-.96 0-1.776-.17-2.448-.512a5.7 5.7 0 0 1-1.712-1.344l1.424-1.376c.384.448.811.79 1.28 1.024.48.235 1.008.352 1.584.352.651 0 1.141-.139 1.472-.416.331-.288.496-.672.496-1.152 0-.373-.107-.677-.32-.912-.213-.235-.613-.405-1.2-.512l-1.056-.16c-2.229-.352-3.344-1.435-3.344-3.248a3.3 3.3 0 0 1 .272-1.36c.192-.405.464-.752.816-1.04a3.644 3.644 0 0 1 1.264-.656 5.567 5.567 0 0 1 1.696-.24c.843 0 1.579.139 2.208.416a4.337 4.337 0 0 1 1.616 1.232l-1.44 1.36a3.308 3.308 0 0 0-1.008-.832c-.395-.213-.891-.32-1.488-.32-.608 0-1.067.117-1.376.352-.299.224-.448.544-.448.96 0 .427.123.741.368.944.245.203.64.352 1.184.448l1.04.192c1.131.203 1.963.565 2.496 1.088.544.512.816 1.232.816 2.16 0 .533-.096 1.019-.288 1.456-.181.427-.453.8-.816 1.12-.352.31-.789.55-1.312.72-.512.17-1.104.256-1.776.256ZM117.497 33v-8.352h2.048v1.392h.08c.17-.448.437-.821.8-1.12.373-.31.885-.464 1.536-.464.864 0 1.525.283 1.984.848.458.565.688 1.37.688 2.416V33h-2.048v-5.072c0-.597-.107-1.045-.32-1.344-.214-.299-.566-.448-1.056-.448-.214 0-.422.032-.624.096a1.618 1.618 0 0 0-.528.256c-.15.107-.272.245-.368.416a1.1 1.1 0 0 0-.144.576V33h-2.048ZM111.793 33.192a4.118 4.118 0 0 1-1.616-.304 3.426 3.426 0 0 1-1.216-.88 4.098 4.098 0 0 1-.768-1.376 5.756 5.756 0 0 1-.272-1.824c0-.672.091-1.275.272-1.808a3.92 3.92 0 0 1 .768-1.36 3.426 3.426 0 0 1 1.216-.88 4.118 4.118 0 0 1 1.616-.304c.597 0 1.136.101 1.616.304.48.203.885.496 1.216.88.341.373.603.827.784 1.36.181.533.272 1.136.272 1.808 0 .672-.091 1.28-.272 1.824a3.964 3.964 0 0 1-.784 1.376 3.25 3.25 0 0 1-1.216.88 4.118 4.118 0 0 1-1.616.304Zm0-1.648c.544 0 .971-.165 1.28-.496.309-.33.464-.816.464-1.456V28.04c0-.63-.155-1.11-.464-1.44-.309-.33-.736-.496-1.28-.496-.533 0-.955.165-1.264.496-.309.33-.464.81-.464 1.44v1.552c0 .64.155 1.125.464 1.456.309.33.731.496 1.264.496ZM105.083 23.432c-.427 0-.736-.096-.928-.288-.181-.192-.272-.437-.272-.736v-.32c0-.299.091-.544.272-.736.192-.192.501-.288.928-.288.416 0 .72.096.912.288a.997.997 0 0 1 .288.736v.32a.997.997 0 0 1-.288.736c-.192.192-.496.288-.912.288Zm-1.024 1.216h2.048V33h-2.048v-8.352ZM98.81 33.192c-.8 0-1.471-.133-2.015-.4a4.748 4.748 0 0 1-1.44-1.136l1.248-1.216c.31.352.645.63 1.008.832.373.203.8.304 1.28.304.49 0 .842-.085 1.056-.256a.836.836 0 0 0 .336-.704c0-.245-.08-.437-.24-.576-.15-.15-.41-.25-.784-.304l-.832-.112c-.907-.117-1.6-.373-2.08-.768-.47-.405-.704-.992-.704-1.76 0-.405.074-.768.224-1.088.15-.33.362-.608.64-.832.277-.235.608-.41.992-.528a4.237 4.237 0 0 1 1.312-.192c.405 0 .762.032 1.072.096.32.053.608.139.864.256.256.107.49.245.704.416a5.9 5.9 0 0 1 .624.544l-1.2 1.2a3.18 3.18 0 0 0-.88-.64 2.468 2.468 0 0 0-1.12-.256c-.448 0-.774.08-.976.24a.774.774 0 0 0-.288.624c0 .277.08.49.24.64.17.139.453.24.848.304l.848.112c1.802.256 2.704 1.077 2.704 2.464 0 .405-.086.779-.256 1.12-.16.33-.39.619-.688.864a3.5 3.5 0 0 1-1.088.56 4.785 4.785 0 0 1-1.408.192ZM86.668 33v-8.352h2.048v1.392h.08c.171-.448.438-.821.8-1.12.374-.31.886-.464 1.536-.464.864 0 1.526.283 1.984.848.46.565.689 1.37.689 2.416V33h-2.049v-5.072c0-.597-.106-1.045-.32-1.344-.213-.299-.565-.448-1.056-.448a2.06 2.06 0 0 0-.623.096 1.618 1.618 0 0 0-.529.256c-.149.107-.271.245-.367.416a1.1 1.1 0 0 0-.145.576V33H86.67ZM81.123 33.192c-.62 0-1.174-.101-1.665-.304a3.665 3.665 0 0 1-1.231-.88 4.112 4.112 0 0 1-.769-1.376 5.748 5.748 0 0 1-.272-1.824c0-.661.086-1.259.256-1.792.182-.533.438-.987.769-1.36.33-.384.736-.677 1.216-.88.48-.213 1.023-.32 1.631-.32.651 0 1.216.112 1.696.336.48.224.875.528 1.184.912.31.384.54.832.688 1.344.16.501.24 1.04.24 1.616v.672h-5.552v.208c0 .608.171 1.099.513 1.472.34.363.847.544 1.52.544.512 0 .928-.107 1.248-.32.33-.213.624-.485.88-.816l1.104 1.232c-.342.48-.811.859-1.408 1.136-.587.267-1.27.4-2.049.4Zm-.032-7.2c-.544 0-.976.181-1.296.544-.32.363-.48.832-.48 1.408v.128h3.424v-.144c0-.576-.145-1.04-.433-1.392-.277-.363-.682-.544-1.215-.544ZM67.937 33V21.832h5.024c.512 0 .97.085 1.376.256.416.16.768.395 1.056.704.288.299.507.661.656 1.088.15.427.224.896.224 1.408 0 .523-.075.997-.224 1.424-.15.416-.368.779-.656 1.088-.288.299-.64.533-1.056.704-.405.16-.864.24-1.376.24h-2.912V33h-2.112Zm2.112-6.08h2.72c.405 0 .725-.107.96-.32.235-.224.352-.539.352-.944v-.736c0-.405-.117-.715-.352-.928-.235-.213-.555-.32-.96-.32h-2.72v3.248ZM61.373 33c-.704 0-1.222-.176-1.552-.528-.331-.352-.496-.848-.496-1.488V21.16h2.048v10.208h1.104V33h-1.104ZM56.531 33c-.448 0-.805-.128-1.072-.384-.256-.267-.416-.619-.48-1.056h-.096c-.139.544-.421.955-.848 1.232-.426.267-.954.4-1.584.4-.853 0-1.51-.224-1.968-.672-.458-.448-.688-1.045-.688-1.792 0-.864.31-1.504.928-1.92.619-.427 1.499-.64 2.64-.64h1.424v-.608c0-.47-.123-.832-.368-1.088-.245-.256-.64-.384-1.184-.384-.48 0-.87.107-1.168.32a3.015 3.015 0 0 0-.736.736l-1.216-1.088c.31-.48.72-.864 1.232-1.152.512-.299 1.19-.448 2.032-.448 1.13 0 1.99.256 2.576.768.587.512.88 1.248.88 2.208v3.936h.832V33h-1.136Zm-3.392-1.296c.459 0 .848-.101 1.168-.304.32-.203.48-.501.48-.896V29.4h-1.312c-1.067 0-1.6.341-1.6 1.024v.272c0 .341.107.597.32.768.224.16.539.24.944.24ZM40.981 33v-8.352h2.048v1.392h.08c.17-.448.437-.821.8-1.12.373-.31.885-.464 1.536-.464.864 0 1.525.283 1.984.848.459.565.688 1.37.688 2.416V33h-2.048v-5.072c0-.597-.107-1.045-.32-1.344-.213-.299-.565-.448-1.056-.448a2.06 2.06 0 0 0-.624.096 1.618 1.618 0 0 0-.528.256c-.15.107-.272.245-.368.416a1.1 1.1 0 0 0-.144.576V33h-2.048ZM35.277 33.192a4.116 4.116 0 0 1-1.616-.304 3.425 3.425 0 0 1-1.216-.88 4.108 4.108 0 0 1-.768-1.376 5.745 5.745 0 0 1-.272-1.824c0-.672.09-1.275.272-1.808a3.93 3.93 0 0 1 .768-1.36 3.425 3.425 0 0 1 1.216-.88 4.116 4.116 0 0 1 1.616-.304c.598 0 1.136.101 1.616.304.48.203.886.496 1.216.88.342.373.603.827.784 1.36.182.533.272 1.136.272 1.808 0 .672-.09 1.28-.272 1.824a3.966 3.966 0 0 1-.784 1.376c-.33.384-.736.677-1.216.88a4.117 4.117 0 0 1-1.616.304Zm0-1.648c.544 0 .97-.165 1.28-.496.31-.33.464-.816.464-1.456V28.04c0-.63-.154-1.11-.464-1.44-.31-.33-.736-.496-1.28-.496-.533 0-.954.165-1.264.496-.31.33-.464.81-.464 1.44v1.552c0 .64.155 1.125.464 1.456.31.33.73.496 1.264.496ZM28.567 23.432c-.426 0-.736-.096-.928-.288-.18-.192-.272-.437-.272-.736v-.32c0-.299.091-.544.272-.736.192-.192.502-.288.928-.288.416 0 .72.096.912.288a.997.997 0 0 1 .288.736v.32a.997.997 0 0 1-.288.736c-.192.192-.496.288-.912.288Zm-1.024 1.216h2.048V33h-2.048v-8.352ZM24.167 33c-.704 0-1.243-.181-1.616-.544-.363-.373-.544-.901-.544-1.584V26.28h-1.232v-1.632h.64c.31 0 .517-.07.624-.208.117-.15.176-.368.176-.656V22.36h1.84v2.288h1.712v1.632h-1.712v5.088h1.584V33h-1.472ZM18.828 33c-.448 0-.805-.128-1.072-.384-.256-.267-.416-.619-.48-1.056h-.096c-.139.544-.421.955-.848 1.232-.427.267-.955.4-1.584.4-.853 0-1.51-.224-1.968-.672-.459-.448-.688-1.045-.688-1.792 0-.864.31-1.504.928-1.92.619-.427 1.499-.64 2.64-.64h1.424v-.608c0-.47-.123-.832-.368-1.088-.245-.256-.64-.384-1.184-.384-.48 0-.87.107-1.168.32a3.016 3.016 0 0 0-.736.736l-1.216-1.088c.31-.48.72-.864 1.232-1.152.512-.299 1.19-.448 2.032-.448 1.13 0 1.99.256 2.576.768.587.512.88 1.248.88 2.208v3.936h.832V33h-1.136Zm-3.392-1.296c.459 0 .848-.101 1.168-.304.32-.203.48-.501.48-.896V29.4h-1.312c-1.067 0-1.6.341-1.6 1.024v.272c0 .341.107.597.32.768.224.16.539.24.944.24ZM4.512 27.272l-1.152-2.32h-.048V33h-2V21.832h2.32l3.36 5.728 1.152 2.32h.048v-8.048h2V33h-2.32l-3.36-5.728ZM247.668 12V3.648h2.048v1.728h.08c.054-.224.134-.437.24-.64.118-.213.267-.4.448-.56.182-.16.395-.288.64-.384.256-.096.55-.144.88-.144h.448v1.936h-.64c-.693 0-1.216.101-1.568.304-.352.203-.528.533-.528.992V12h-2.048ZM242.123 12.192c-.619 0-1.174-.101-1.664-.304a3.66 3.66 0 0 1-1.232-.88 4.098 4.098 0 0 1-.768-1.376 5.728 5.728 0 0 1-.272-1.824c0-.661.085-1.259.256-1.792a3.92 3.92 0 0 1 .768-1.36c.33-.384.736-.677 1.216-.88.48-.213 1.024-.32 1.632-.32.65 0 1.216.112 1.696.336.48.224.874.528 1.184.912.309.384.538.832.688 1.344.16.501.24 1.04.24 1.616v.672h-5.552v.208c0 .608.17 1.099.512 1.472.341.363.848.544 1.52.544.512 0 .928-.107 1.248-.32.33-.213.624-.485.88-.816l1.104 1.232c-.342.48-.811.859-1.408 1.136-.587.267-1.27.4-2.048.4Zm-.032-7.2c-.544 0-.976.181-1.296.544-.32.363-.48.832-.48 1.408v.128h3.424v-.144c0-.576-.144-1.04-.432-1.392-.278-.363-.683-.544-1.216-.544ZM234.337 10.608h-.08a2.14 2.14 0 0 1-.848 1.152c-.416.288-.902.432-1.456.432-1.056 0-1.867-.379-2.432-1.136-.555-.757-.832-1.84-.832-3.248 0-1.397.277-2.47.832-3.216.565-.757 1.376-1.136 2.432-1.136.554 0 1.04.144 1.456.432.416.277.698.656.848 1.136h.08V.16h2.048V12h-2.048v-1.392Zm-1.728-.112c.49 0 .901-.117 1.232-.352.33-.235.496-.57.496-1.008V6.48c0-.405-.166-.73-.496-.976-.331-.245-.742-.368-1.232-.368-.534 0-.966.181-1.296.544-.32.352-.48.827-.48 1.424v1.44c0 .597.16 1.072.48 1.424.33.352.762.528 1.296.528ZM219.747 12V3.648h2.048V5.04h.08c.17-.448.437-.821.8-1.12.373-.31.885-.464 1.536-.464.864 0 1.525.283 1.984.848.458.565.688 1.37.688 2.416V12h-2.048V6.928c0-.597-.107-1.045-.32-1.344-.214-.299-.566-.448-1.056-.448-.214 0-.422.032-.624.096a1.618 1.618 0 0 0-.528.256c-.15.107-.272.245-.368.416a1.1 1.1 0 0 0-.144.576V12h-2.048ZM215.332 10.608h-.08a2.716 2.716 0 0 1-.304.608 2.02 2.02 0 0 1-.464.496 2 2 0 0 1-.672.352 2.839 2.839 0 0 1-.896.128c-.864 0-1.525-.283-1.984-.848-.459-.565-.688-1.37-.688-2.416v-5.28h2.048V8.72c0 .576.112 1.019.336 1.328.224.299.581.448 1.072.448.203 0 .4-.027.592-.08.203-.053.379-.133.528-.24.149-.117.272-.256.368-.416.096-.17.144-.368.144-.592v-5.52h2.048V12h-2.048v-1.392ZM203.183 12c-.704 0-1.243-.181-1.616-.544-.363-.373-.544-.901-.544-1.584V5.28h-1.232V3.648h.64c.309 0 .517-.07.624-.208.117-.15.176-.368.176-.656V1.36h1.84v2.288h1.712V5.28h-1.712v5.088h1.584V12h-1.472ZM191.168 12V3.648h2.048V5.04h.08c.171-.448.438-.821.8-1.12.374-.31.886-.464 1.536-.464.864 0 1.526.283 1.984.848.459.565.688 1.37.688 2.416V12h-2.048V6.928c0-.597-.106-1.045-.32-1.344-.213-.299-.565-.448-1.056-.448-.213 0-.421.032-.624.096a1.618 1.618 0 0 0-.528.256 1.268 1.268 0 0 0-.368.416 1.1 1.1 0 0 0-.144.576V12h-2.048ZM185.623 12.192c-.619 0-1.174-.101-1.664-.304a3.66 3.66 0 0 1-1.232-.88 4.098 4.098 0 0 1-.768-1.376 5.728 5.728 0 0 1-.272-1.824c0-.661.085-1.259.256-1.792a3.92 3.92 0 0 1 .768-1.36c.33-.384.736-.677 1.216-.88.48-.213 1.024-.32 1.632-.32.65 0 1.216.112 1.696.336.48.224.874.528 1.184.912.309.384.538.832.688 1.344.16.501.24 1.04.24 1.616v.672h-5.552v.208c0 .608.17 1.099.512 1.472.341.363.848.544 1.52.544.512 0 .928-.107 1.248-.32.33-.213.624-.485.88-.816l1.104 1.232c-.342.48-.811.859-1.408 1.136-.587.267-1.27.4-2.048.4Zm-.032-7.2c-.544 0-.976.181-1.296.544-.32.363-.48.832-.48 1.408v.128h3.424v-.144c0-.576-.144-1.04-.432-1.392-.278-.363-.683-.544-1.216-.544ZM168.043 12V3.648h2.048V5.04h.08c.16-.437.416-.81.768-1.12.352-.31.843-.464 1.472-.464.576 0 1.072.139 1.488.416.416.277.726.699.928 1.264h.032c.15-.47.443-.864.88-1.184.448-.33 1.008-.496 1.68-.496.822 0 1.451.283 1.888.848.448.565.672 1.37.672 2.416V12h-2.048V6.928c0-1.195-.448-1.792-1.344-1.792-.202 0-.4.032-.592.096a1.474 1.474 0 0 0-.496.256c-.138.107-.25.245-.336.416-.085.16-.128.352-.128.576V12h-2.048V6.928c0-1.195-.448-1.792-1.344-1.792-.192 0-.384.032-.576.096a1.474 1.474 0 0 0-.496.256 1.361 1.361 0 0 0-.352.416c-.085.16-.128.352-.128.576V12h-2.048ZM164.667 12c-.704 0-1.243-.181-1.616-.544-.363-.373-.544-.901-.544-1.584V5.28h-1.232V3.648h.64c.309 0 .517-.07.624-.208.117-.15.176-.368.176-.656V1.36h1.84v2.288h1.712V5.28h-1.712v5.088h1.584V12h-1.472ZM156.936 12.192c-.8 0-1.472-.133-2.016-.4a4.748 4.748 0 0 1-1.44-1.136l1.248-1.216c.309.352.645.63 1.008.832.373.203.8.304 1.28.304.49 0 .842-.085 1.056-.256a.836.836 0 0 0 .336-.704c0-.245-.08-.437-.24-.576-.15-.15-.411-.25-.784-.304l-.832-.112c-.907-.117-1.6-.373-2.08-.768-.47-.405-.704-.992-.704-1.76 0-.405.074-.768.224-1.088.149-.33.362-.608.64-.832.277-.235.608-.41.992-.528a4.233 4.233 0 0 1 1.312-.192c.405 0 .762.032 1.072.096.32.053.608.139.864.256.256.107.49.245.704.416.213.16.421.341.624.544l-1.2 1.2a3.183 3.183 0 0 0-.88-.64 2.472 2.472 0 0 0-1.12-.256c-.448 0-.774.08-.976.24a.774.774 0 0 0-.288.624c0 .277.08.49.24.64.17.139.453.24.848.304l.848.112c1.802.256 2.704 1.077 2.704 2.464 0 .405-.086.779-.256 1.12-.16.33-.39.619-.688.864a3.5 3.5 0 0 1-1.088.56 4.785 4.785 0 0 1-1.408.192ZM148.654 12.192c-.619 0-1.174-.101-1.664-.304a3.66 3.66 0 0 1-1.232-.88 4.098 4.098 0 0 1-.768-1.376 5.728 5.728 0 0 1-.272-1.824c0-.661.085-1.259.256-1.792a3.92 3.92 0 0 1 .768-1.36c.33-.384.736-.677 1.216-.88.48-.213 1.024-.32 1.632-.32.65 0 1.216.112 1.696.336.48.224.874.528 1.184.912.309.384.538.832.688 1.344.16.501.24 1.04.24 1.616v.672h-5.552v.208c0 .608.17 1.099.512 1.472.341.363.848.544 1.52.544.512 0 .928-.107 1.248-.32.33-.213.624-.485.88-.816l1.104 1.232c-.342.48-.811.859-1.408 1.136-.587.267-1.27.4-2.048.4Zm-.032-7.2c-.544 0-.976.181-1.296.544-.32.363-.48.832-.48 1.408v.128h3.424v-.144c0-.576-.144-1.04-.432-1.392-.278-.363-.683-.544-1.216-.544ZM138.804 12l-2.784-8.352h2.016l1.168 3.6.816 2.976h.112l.816-2.976 1.136-3.6h1.952l-2.8 8.352h-2.432ZM127.731 12V3.648h2.048V5.04h.08c.171-.448.437-.821.8-1.12.373-.31.885-.464 1.536-.464.864 0 1.525.283 1.984.848.459.565.688 1.37.688 2.416V12h-2.048V6.928c0-.597-.107-1.045-.32-1.344-.213-.299-.565-.448-1.056-.448-.213 0-.421.032-.624.096a1.618 1.618 0 0 0-.528.256 1.268 1.268 0 0 0-.368.416 1.1 1.1 0 0 0-.144.576V12h-2.048ZM120.629 12v-1.696h1.472V2.528h-1.472V.832h5.072v1.696h-1.488v7.776h1.488V12h-5.072ZM110.903 12V3.648h2.048v1.728h.08c.053-.224.133-.437.24-.64a2.074 2.074 0 0 1 1.088-.944c.256-.096.549-.144.88-.144h.448v1.936h-.64c-.693 0-1.216.101-1.568.304-.352.203-.528.533-.528.992V12h-2.048ZM105.199 12.192a4.118 4.118 0 0 1-1.616-.304 3.426 3.426 0 0 1-1.216-.88 4.098 4.098 0 0 1-.768-1.376 5.756 5.756 0 0 1-.272-1.824c0-.672.091-1.275.272-1.808a3.92 3.92 0 0 1 .768-1.36 3.425 3.425 0 0 1 1.216-.88 4.118 4.118 0 0 1 1.616-.304c.597 0 1.136.101 1.616.304.48.203.885.496 1.216.88.341.373.603.827.784 1.36.181.533.272 1.136.272 1.808 0 .672-.091 1.28-.272 1.824a3.964 3.964 0 0 1-.784 1.376 3.25 3.25 0 0 1-1.216.88 4.118 4.118 0 0 1-1.616.304Zm0-1.648c.544 0 .971-.165 1.28-.496.309-.33.464-.816.464-1.456V7.04c0-.63-.155-1.11-.464-1.44-.309-.33-.736-.496-1.28-.496-.533 0-.955.165-1.264.496-.309.33-.464.81-.464 1.44v1.552c0 .64.155 1.125.464 1.456.309.33.731.496 1.264.496ZM96.772 5.264H95.54V3.648h1.232v-1.2c0-.736.192-1.301.576-1.696.395-.395.97-.592 1.728-.592h1.456v1.632H98.82v1.856h1.712v1.616H98.82V12h-2.048V5.264ZM87.326 12.192c-.8 0-1.472-.133-2.016-.4a4.748 4.748 0 0 1-1.44-1.136l1.248-1.216c.31.352.646.63 1.008.832.374.203.8.304 1.28.304.491 0 .843-.085 1.056-.256a.836.836 0 0 0 .336-.704c0-.245-.08-.437-.24-.576-.149-.15-.41-.25-.784-.304l-.832-.112c-.906-.117-1.6-.373-2.08-.768-.469-.405-.704-.992-.704-1.76 0-.405.075-.768.224-1.088.15-.33.363-.608.64-.832.278-.235.608-.41.992-.528a4.236 4.236 0 0 1 1.312-.192c.406 0 .763.032 1.072.096.32.053.608.139.864.256.256.107.491.245.704.416.214.16.422.341.624.544l-1.2 1.2a3.17 3.17 0 0 0-.88-.64 2.47 2.47 0 0 0-1.12-.256c-.448 0-.773.08-.976.24a.774.774 0 0 0-.288.624c0 .277.08.49.24.64.171.139.454.24.848.304l.848.112c1.803.256 2.704 1.077 2.704 2.464a2.546 2.546 0 0 1-.944 1.984 3.49 3.49 0 0 1-1.088.56 4.782 4.782 0 0 1-1.408.192ZM81.214 12c-.704 0-1.243-.181-1.616-.544-.363-.373-.544-.901-.544-1.584V5.28h-1.232V3.648h.64c.31 0 .517-.07.624-.208.117-.15.176-.368.176-.656V1.36h1.84v2.288h1.712V5.28h-1.712v5.088h1.584V12h-1.472ZM69.037 5.264h-1.232V3.648h1.232v-1.2c0-.736.192-1.301.576-1.696.395-.395.971-.592 1.728-.592h1.456v1.632h-1.712v1.856h5.152V12H74.19V5.264h-3.104V12h-2.048V5.264Zm6.176-2.832c-.426 0-.736-.096-.928-.288-.18-.192-.272-.437-.272-.736v-.32c0-.299.091-.544.272-.736.192-.192.502-.288.928-.288.416 0 .72.096.912.288a.997.997 0 0 1 .288.736v.32a.997.997 0 0 1-.288.736c-.192.192-.496.288-.912.288ZM63.076 12.192c-.619 0-1.174-.101-1.664-.304a3.665 3.665 0 0 1-1.232-.88 4.112 4.112 0 0 1-.768-1.376 5.748 5.748 0 0 1-.272-1.824c0-.661.085-1.259.256-1.792.181-.533.437-.987.768-1.36.33-.384.736-.677 1.216-.88.48-.213 1.024-.32 1.632-.32.65 0 1.216.112 1.696.336.48.224.874.528 1.184.912.309.384.538.832.688 1.344.16.501.24 1.04.24 1.616v.672h-5.552v.208c0 .608.17 1.099.512 1.472.341.363.848.544 1.52.544.512 0 .928-.107 1.248-.32.33-.213.624-.485.88-.816l1.104 1.232c-.342.48-.811.859-1.408 1.136-.587.267-1.27.4-2.048.4Zm-.032-7.2c-.544 0-.976.181-1.296.544-.32.363-.48.832-.48 1.408v.128h3.424v-.144c0-.576-.144-1.04-.432-1.392-.278-.363-.683-.544-1.216-.544ZM50.294 12V3.648h2.048V5.04h.08c.17-.448.437-.821.8-1.12.373-.31.885-.464 1.535-.464.864 0 1.526.283 1.985.848.458.565.688 1.37.688 2.416V12h-2.048V6.928c0-.597-.107-1.045-.32-1.344-.214-.299-.566-.448-1.056-.448a2.06 2.06 0 0 0-.624.096 1.618 1.618 0 0 0-.529.256c-.149.107-.272.245-.367.416a1.1 1.1 0 0 0-.144.576V12h-2.048ZM44.748 12.192c-.62 0-1.174-.101-1.664-.304a3.665 3.665 0 0 1-1.233-.88 4.112 4.112 0 0 1-.767-1.376 5.748 5.748 0 0 1-.273-1.824c0-.661.086-1.259.257-1.792.18-.533.437-.987.768-1.36.33-.384.736-.677 1.215-.88.48-.213 1.024-.32 1.633-.32.65 0 1.216.112 1.696.336.48.224.874.528 1.183.912.31.384.54.832.688 1.344.16.501.24 1.04.24 1.616v.672H42.94v.208c0 .608.17 1.099.512 1.472.34.363.848.544 1.52.544.511 0 .928-.107 1.247-.32.331-.213.624-.485.88-.816l1.105 1.232c-.342.48-.811.859-1.409 1.136-.586.267-1.269.4-2.047.4Zm-.032-7.2c-.544 0-.977.181-1.297.544-.32.363-.48.832-.48 1.408v.128h3.425v-.144c0-.576-.145-1.04-.432-1.392-.278-.363-.683-.544-1.217-.544ZM30.89.832h5.168c.459 0 .87.07 1.232.208.373.139.688.33.944.576a2.3 2.3 0 0 1 .576.912c.139.352.208.741.208 1.168 0 .427-.059.79-.176 1.088a1.966 1.966 0 0 1-.448.72 1.743 1.743 0 0 1-.64.432c-.234.096-.48.15-.736.16v.096a2.4 2.4 0 0 1 .784.144c.288.096.55.25.784.464.245.203.448.47.608.8.16.32.24.72.24 1.2 0 .448-.075.87-.224 1.264-.139.384-.336.72-.592 1.008a2.9 2.9 0 0 1-.912.688 2.75 2.75 0 0 1-1.152.24H30.89V.832Zm2.112 9.376h2.944c.406 0 .72-.101.944-.304.224-.213.336-.517.336-.912v-.544c0-.395-.112-.699-.336-.912-.224-.213-.538-.32-.944-.32h-2.944v2.992Zm0-4.72h2.608c.384 0 .683-.101.896-.304.213-.213.32-.507.32-.88v-.496c0-.373-.107-.661-.32-.864-.213-.213-.512-.32-.896-.32h-2.608v2.864ZM17.398 12l2.848-4.24-2.784-4.112h2.336l1.728 2.768h.064l1.712-2.768h2.176l-2.832 4.144L25.494 12h-2.336l-1.76-2.88h-.064L19.574 12h-2.176ZM15.484 12c-.448 0-.805-.128-1.072-.384-.256-.267-.416-.619-.48-1.056h-.096c-.138.544-.421.955-.848 1.232-.426.267-.954.4-1.584.4-.853 0-1.509-.224-1.968-.672-.458-.448-.688-1.045-.688-1.792 0-.864.31-1.504.928-1.92.619-.427 1.499-.64 2.64-.64h1.424V6.56c0-.47-.122-.832-.368-1.088-.245-.256-.64-.384-1.184-.384-.48 0-.869.107-1.168.32a3.016 3.016 0 0 0-.736.736L9.068 5.056c.31-.48.72-.864 1.232-1.152.512-.299 1.19-.448 2.032-.448 1.131 0 1.99.256 2.576.768.587.512.88 1.248.88 2.208v3.936h.832V12h-1.136Zm-3.392-1.296c.459 0 .848-.101 1.168-.304.32-.203.48-.501.48-.896V8.4h-1.312c-1.066 0-1.6.341-1.6 1.024v.272c0 .341.107.597.32.768.224.16.539.24.944.24ZM5.696 2.704V12H3.584V2.704H.416V.832h8.448v1.872H5.696Z" fill="#212529"/></svg>