<svg width="256" height="37" fill="none" xmlns="http://www.w3.org/2000/svg"><path d="m195.97 29.64-.656-4.656v-3.152h2.176v3.152l-.624 4.656h-.896Zm.432 3.552c-.459 0-.79-.107-.992-.32-.203-.213-.304-.485-.304-.816v-.32c0-.33.101-.603.304-.816.202-.213.533-.32.992-.32.448 0 .773.107.976.32.202.213.304.485.304.816v.32c0 .33-.102.603-.304.816-.203.213-.528.32-.976.32ZM189.857 33.192c-.8 0-1.472-.133-2.016-.4a4.748 4.748 0 0 1-1.44-1.136l1.248-1.216c.31.352.646.63 1.008.832.374.203.8.304 1.28.304.491 0 .843-.085 1.056-.256a.836.836 0 0 0 .336-.704c0-.245-.08-.437-.24-.576-.149-.15-.41-.25-.784-.304l-.832-.112c-.906-.117-1.6-.373-2.08-.768-.469-.405-.704-.992-.704-1.76 0-.405.075-.768.224-1.088.15-.33.363-.608.64-.832.278-.235.608-.41.992-.528a4.238 4.238 0 0 1 1.312-.192c.406 0 .763.032 1.072.096.32.053.608.139.864.256.256.107.491.245.704.416.214.16.422.341.624.544l-1.2 1.2a3.154 3.154 0 0 0-.88-.64 2.467 2.467 0 0 0-1.12-.256c-.448 0-.773.08-.976.24a.774.774 0 0 0-.288.624c0 .277.08.49.24.64.171.139.454.24.848.304l.848.112c1.803.256 2.704 1.077 2.704 2.464a2.54 2.54 0 0 1-.944 1.984 3.475 3.475 0 0 1-1.088.56 4.78 4.78 0 0 1-1.408.192ZM182.712 31.608h-.08a2.14 2.14 0 0 1-.848 1.152c-.416.288-.902.432-1.456.432-1.056 0-1.867-.379-2.432-1.136-.555-.757-.832-1.84-.832-3.248 0-1.397.277-2.47.832-3.216.565-.757 1.376-1.136 2.432-1.136.554 0 1.04.144 1.456.432.416.277.698.656.848 1.136h.08V21.16h2.048V33h-2.048v-1.392Zm-1.728-.112c.49 0 .901-.117 1.232-.352.33-.235.496-.57.496-1.008V27.48c0-.405-.166-.73-.496-.976-.331-.245-.742-.368-1.232-.368-.534 0-.966.181-1.296.544-.32.352-.48.827-.48 1.424v1.44c0 .597.16 1.072.48 1.424.33.352.762.528 1.296.528ZM168.121 33v-8.352h2.048v1.392h.08c.171-.448.438-.821.8-1.12.374-.31.886-.464 1.536-.464.864 0 1.526.283 1.984.848.459.565.688 1.37.688 2.416V33h-2.048v-5.072c0-.597-.106-1.045-.32-1.344-.213-.299-.565-.448-1.056-.448-.213 0-.421.032-.624.096a1.62 1.62 0 0 0-.528.256 1.268 1.268 0 0 0-.368.416 1.1 1.1 0 0 0-.144.576V33h-2.048ZM165.328 33c-.448 0-.806-.128-1.072-.384-.256-.267-.416-.619-.48-1.056h-.096c-.139.544-.422.955-.848 1.232-.427.267-.955.4-1.584.4-.854 0-1.51-.224-1.968-.672-.459-.448-.688-1.045-.688-1.792 0-.864.309-1.504.928-1.92.618-.427 1.498-.64 2.64-.64h1.424v-.608c0-.47-.123-.832-.368-1.088-.246-.256-.64-.384-1.184-.384-.48 0-.87.107-1.168.32a3.004 3.004 0 0 0-.736.736l-1.216-1.088c.309-.48.72-.864 1.232-1.152.512-.299 1.189-.448 2.032-.448 1.13 0 1.989.256 2.576.768.586.512.88 1.248.88 2.208v3.936h.832V33h-1.136Zm-3.392-1.296c.458 0 .848-.101 1.168-.304.32-.203.48-.501.48-.896V29.4h-1.312c-1.067 0-1.6.341-1.6 1.024v.272c0 .341.106.597.32.768.224.16.538.24.944.24ZM153.074 33v-8.352h2.048v1.728h.08a2.78 2.78 0 0 1 .24-.64c.118-.213.267-.4.448-.56.182-.16.395-.288.64-.384.256-.096.55-.144.88-.144h.448v1.936h-.64c-.693 0-1.216.101-1.568.304-.352.203-.528.533-.528.992V33h-2.048ZM142.593 21.832h5.168c.459 0 .87.07 1.232.208.374.139.688.33.944.576a2.3 2.3 0 0 1 .576.912c.139.352.208.741.208 1.168 0 .427-.058.79-.176 1.088a1.958 1.958 0 0 1-.448.72 1.736 1.736 0 0 1-.64.432c-.234.096-.48.15-.736.16v.096c.246 0 .507.048.784.144.288.096.55.25.784.464.246.203.448.47.608.8.16.32.24.72.24 1.2 0 .448-.074.87-.224 1.264-.138.384-.336.72-.592 1.008a2.9 2.9 0 0 1-.912.688 2.75 2.75 0 0 1-1.152.24h-5.664V21.832Zm2.112 9.376h2.944c.406 0 .72-.101.944-.304.224-.213.336-.517.336-.912v-.544c0-.395-.112-.699-.336-.912-.224-.213-.538-.32-.944-.32h-2.944v2.992Zm0-4.72h2.608c.384 0 .683-.101.896-.304.214-.213.32-.507.32-.88v-.496c0-.373-.106-.661-.32-.864-.213-.213-.512-.32-.896-.32h-2.608v2.864ZM139.672 33c-.448 0-.806-.128-1.072-.384-.256-.267-.416-.619-.48-1.056h-.096c-.139.544-.422.955-.848 1.232-.427.267-.955.4-1.584.4-.854 0-1.51-.224-1.968-.672-.459-.448-.688-1.045-.688-1.792 0-.864.309-1.504.928-1.92.618-.427 1.498-.64 2.64-.64h1.424v-.608c0-.47-.123-.832-.368-1.088-.246-.256-.64-.384-1.184-.384-.48 0-.87.107-1.168.32a3.004 3.004 0 0 0-.736.736l-1.216-1.088c.309-.48.72-.864 1.232-1.152.512-.299 1.189-.448 2.032-.448 1.13 0 1.989.256 2.576.768.586.512.88 1.248.88 2.208v3.936h.832V33h-1.136Zm-3.392-1.296c.458 0 .848-.101 1.168-.304.32-.203.48-.501.48-.896V29.4h-1.312c-1.067 0-1.6.341-1.6 1.024v.272c0 .341.106.597.32.768.224.16.538.24.944.24ZM130.872 33c-.704 0-1.221-.176-1.552-.528-.33-.352-.496-.848-.496-1.488V21.16h2.048v10.208h1.104V33h-1.104ZM124.41 31.608h-.08a2.674 2.674 0 0 1-.304.608 2.02 2.02 0 0 1-.464.496 2 2 0 0 1-.672.352 2.832 2.832 0 0 1-.896.128c-.864 0-1.525-.283-1.984-.848-.458-.565-.688-1.37-.688-2.416v-5.28h2.048v5.072c0 .576.112 1.019.336 1.328.224.299.582.448 1.072.448.203 0 .4-.027.592-.08.203-.053.379-.133.528-.24.15-.117.272-.256.368-.416.096-.17.144-.368.144-.592v-5.52h2.048V33h-2.048v-1.392ZM118.298 33.704c0 .437-.08.821-.24 1.152-.149.341-.4.624-.752.848-.352.224-.805.395-1.36.512-.555.117-1.232.176-2.032.176-.704 0-1.301-.048-1.792-.144-.491-.085-.896-.213-1.216-.384-.309-.16-.533-.363-.672-.608a1.657 1.657 0 0 1-.208-.832c0-.47.128-.837.384-1.104.267-.256.635-.421 1.104-.496v-.176a1.415 1.415 0 0 1-.8-.496 1.512 1.512 0 0 1-.272-.896c0-.213.043-.4.128-.56a1.34 1.34 0 0 1 .336-.432c.149-.117.315-.213.496-.288.181-.085.373-.15.576-.192v-.064c-.512-.235-.896-.56-1.152-.976-.245-.416-.368-.901-.368-1.456 0-.853.293-1.536.88-2.048.587-.523 1.445-.784 2.576-.784.256 0 .507.016.752.048.256.032.491.085.704.16v-.272c0-.81.395-1.216 1.184-1.216h1.296v1.568h-1.776v.224c.437.245.763.565.976.96.213.395.32.848.32 1.36 0 .843-.293 1.52-.88 2.032-.576.512-1.435.768-2.576.768-.491 0-.917-.048-1.28-.144-.16.075-.299.176-.416.304a.608.608 0 0 0-.176.448c0 .416.363.624 1.088.624h2.24c1.024 0 1.765.213 2.224.64.469.416.704.997.704 1.744Zm-1.92.24a.72.72 0 0 0-.32-.624c-.213-.15-.581-.224-1.104-.224h-2.848a1.02 1.02 0 0 0-.432.864c0 .32.133.57.4.752.267.181.72.272 1.36.272h1.024c.672 0 1.157-.085 1.456-.256a.84.84 0 0 0 .464-.784Zm-2.464-5.248c1.003 0 1.504-.427 1.504-1.28v-.272c0-.853-.501-1.28-1.504-1.28-1.003 0-1.504.427-1.504 1.28v.272c0 .853.501 1.28 1.504 1.28ZM105.216 33.192c-.618 0-1.173-.101-1.664-.304a3.67 3.67 0 0 1-1.232-.88 4.132 4.132 0 0 1-.768-1.376 5.756 5.756 0 0 1-.272-1.824c0-.661.086-1.259.256-1.792.182-.533.438-.987.768-1.36a3.25 3.25 0 0 1 1.216-.88c.48-.213 1.024-.32 1.632-.32.651 0 1.216.112 1.696.336.48.224.875.528 1.184.912.31.384.539.832.688 1.344.16.501.24 1.04.24 1.616v.672h-5.552v.208c0 .608.171 1.099.512 1.472.342.363.848.544 1.52.544.512 0 .928-.107 1.248-.32.331-.213.624-.485.88-.816l1.104 1.232c-.341.48-.81.859-1.408 1.136-.586.267-1.269.4-2.048.4Zm-.032-7.2c-.544 0-.976.181-1.296.544-.32.363-.48.832-.48 1.408v.128h3.424v-.144c0-.576-.144-1.04-.432-1.392-.277-.363-.682-.544-1.216-.544ZM93.69 33h-2.112V21.832h5.04c.512 0 .97.08 1.376.24.405.16.746.395 1.024.704.288.299.506.661.656 1.088.16.427.24.901.24 1.424 0 .768-.176 1.43-.528 1.984-.342.555-.859.95-1.552 1.184L100.122 33H97.77l-2.08-4.304h-2V33Zm2.72-6.08c.405 0 .725-.107.96-.32.234-.224.352-.539.352-.944v-.736c0-.405-.118-.715-.352-.928-.235-.213-.555-.32-.96-.32h-2.72v3.248h2.72ZM84.292 33c-.704 0-1.243-.181-1.616-.544-.363-.373-.544-.901-.544-1.584V26.28H80.9v-1.632h.64c.31 0 .517-.07.624-.208.117-.15.176-.368.176-.656V22.36h1.84v2.288h1.712v1.632H84.18v5.088h1.584V33h-1.472ZM76.138 33.192c-.619 0-1.173-.101-1.664-.304a3.664 3.664 0 0 1-1.232-.88 4.109 4.109 0 0 1-.768-1.376 5.745 5.745 0 0 1-.272-1.824c0-.661.085-1.259.256-1.792.181-.533.438-.987.768-1.36.33-.384.736-.677 1.216-.88.48-.213 1.024-.32 1.632-.32.65 0 1.216.112 1.696.336.48.224.875.528 1.184.912.31.384.539.832.688 1.344.16.501.24 1.04.24 1.616v.672H74.33v.208c0 .608.17 1.099.512 1.472.341.363.848.544 1.52.544.512 0 .928-.107 1.248-.32.33-.213.624-.485.88-.816l1.104 1.232c-.341.48-.81.859-1.408 1.136-.587.267-1.27.4-2.048.4Zm-.032-7.2c-.544 0-.976.181-1.296.544-.32.363-.48.832-.48 1.408v.128h3.424v-.144c0-.576-.144-1.04-.432-1.392-.277-.363-.683-.544-1.216-.544ZM67.216 33.192c-.618 0-1.173-.101-1.664-.304a3.662 3.662 0 0 1-1.232-.88 4.107 4.107 0 0 1-.768-1.376 5.745 5.745 0 0 1-.272-1.824c0-.661.086-1.259.256-1.792.182-.533.438-.987.768-1.36.33-.384.736-.677 1.216-.88.48-.213 1.024-.32 1.632-.32.65 0 1.216.112 1.696.336.48.224.875.528 1.184.912.31.384.539.832.688 1.344.16.501.24 1.04.24 1.616v.672h-5.552v.208c0 .608.17 1.099.512 1.472.342.363.848.544 1.52.544.512 0 .928-.107 1.248-.32.33-.213.624-.485.88-.816l1.104 1.232c-.341.48-.81.859-1.408 1.136-.586.267-1.27.4-2.048.4Zm-.032-7.2c-.544 0-.976.181-1.296.544-.32.363-.48.832-.48 1.408v.128h3.424v-.144c0-.576-.144-1.04-.432-1.392-.277-.363-.682-.544-1.216-.544ZM59.338 24.984h-.064l-.864 1.776-2.288 4.224-2.288-4.224-.864-1.776h-.064V33h-2V21.832h2.384l2.864 5.456h.064l2.832-5.456h2.288V33h-2v-8.016ZM40.546 29.384v-2.496c.853-.032 1.498-.192 1.936-.48.448-.299.672-.757.672-1.376v-.224c0-.448-.134-.795-.4-1.04-.267-.245-.624-.368-1.072-.368-.48 0-.87.144-1.168.432-.288.277-.49.64-.608 1.088l-1.712-.704c.096-.33.234-.65.416-.96.181-.31.416-.581.704-.816a3.164 3.164 0 0 1 1.04-.576c.405-.15.874-.224 1.408-.224.544 0 1.035.08 1.472.24.437.15.81.368 1.12.656.31.277.55.613.72 1.008.17.395.256.832.256 1.312 0 .47-.08.89-.24 1.264-.15.363-.358.683-.624.96-.267.267-.57.485-.912.656-.342.16-.694.272-1.056.336v1.312h-1.952Zm.992 3.808c-.448 0-.773-.107-.976-.32-.203-.213-.304-.485-.304-.816v-.32c0-.33.101-.603.304-.816.203-.213.528-.32.976-.32.459 0 .79.107.992.32.203.213.304.485.304.816v.32c0 .33-.102.603-.304.816-.203.213-.534.32-.992.32ZM33.857 33.192c-.8 0-1.472-.133-2.016-.4a4.748 4.748 0 0 1-1.44-1.136l1.248-1.216c.31.352.646.63 1.008.832.374.203.8.304 1.28.304.491 0 .843-.085 1.056-.256a.836.836 0 0 0 .336-.704c0-.245-.08-.437-.24-.576-.149-.15-.41-.25-.784-.304l-.832-.112c-.906-.117-1.6-.373-2.08-.768-.469-.405-.704-.992-.704-1.76 0-.405.075-.768.224-1.088.15-.33.363-.608.64-.832.278-.235.608-.41.992-.528a4.236 4.236 0 0 1 1.312-.192c.406 0 .763.032 1.072.096.32.053.608.139.864.256.256.107.491.245.704.416.214.16.422.341.624.544l-1.2 1.2a3.17 3.17 0 0 0-.88-.64 2.47 2.47 0 0 0-1.12-.256c-.448 0-.773.08-.976.24a.774.774 0 0 0-.288.624c0 .277.08.49.24.64.171.139.454.24.848.304l.848.112c1.803.256 2.704 1.077 2.704 2.464a2.546 2.546 0 0 1-.944 1.984 3.487 3.487 0 0 1-1.088.56 4.782 4.782 0 0 1-1.408.192ZM27.745 33c-.704 0-1.243-.181-1.616-.544-.363-.373-.544-.901-.544-1.584V26.28h-1.232v-1.632h.64c.31 0 .517-.07.624-.208.117-.15.176-.368.176-.656V22.36h1.84v2.288h1.712v1.632h-1.712v5.088h1.584V33h-1.472ZM15.73 33v-8.352h2.049v1.392h.08c.17-.448.437-.821.8-1.12.373-.31.885-.464 1.536-.464.864 0 1.525.283 1.984.848.458.565.688 1.37.688 2.416V33h-2.048v-5.072c0-.597-.107-1.045-.32-1.344-.214-.299-.566-.448-1.056-.448a2.06 2.06 0 0 0-.624.096 1.62 1.62 0 0 0-.528.256c-.15.107-.272.245-.368.416a1.1 1.1 0 0 0-.144.576V33H15.73ZM10.027 33.192a4.117 4.117 0 0 1-1.616-.304 3.425 3.425 0 0 1-1.216-.88 4.109 4.109 0 0 1-.768-1.376 5.747 5.747 0 0 1-.272-1.824c0-.672.09-1.275.272-1.808.182-.533.438-.987.768-1.36a3.426 3.426 0 0 1 1.216-.88 4.118 4.118 0 0 1 1.616-.304c.598 0 1.136.101 1.616.304.48.203.886.496 1.216.88a3.8 3.8 0 0 1 .784 1.36c.182.533.272 1.136.272 1.808 0 .672-.09 1.28-.272 1.824a3.965 3.965 0 0 1-.784 1.376c-.33.384-.736.677-1.216.88a4.117 4.117 0 0 1-1.616.304Zm0-1.648c.544 0 .97-.165 1.28-.496.31-.33.464-.816.464-1.456V28.04c0-.63-.154-1.11-.464-1.44-.31-.33-.736-.496-1.28-.496-.533 0-.954.165-1.264.496-.31.33-.464.81-.464 1.44v1.552c0 .64.155 1.125.464 1.456.31.33.73.496 1.264.496ZM1.6 26.264H.368v-1.616H1.6v-1.2c0-.736.192-1.301.576-1.696.395-.395.97-.592 1.728-.592H5.36v1.632H3.648v1.856H5.36v1.616H3.648V33H1.6v-6.736ZM251.09 12V3.648h2.048v1.728h.08c.053-.224.133-.437.24-.64a2.074 2.074 0 0 1 1.088-.944c.256-.096.549-.144.88-.144h.448v1.936h-.64c-.693 0-1.216.101-1.568.304-.352.203-.528.533-.528.992V12h-2.048ZM248.297 12c-.448 0-.806-.128-1.072-.384-.256-.267-.416-.619-.48-1.056h-.096c-.139.544-.422.955-.848 1.232-.427.267-.955.4-1.584.4-.854 0-1.51-.224-1.968-.672-.459-.448-.688-1.045-.688-1.792 0-.864.309-1.504.928-1.92.618-.427 1.498-.64 2.64-.64h1.424V6.56c0-.47-.123-.832-.368-1.088-.246-.256-.64-.384-1.184-.384-.48 0-.87.107-1.168.32a3.004 3.004 0 0 0-.736.736l-1.216-1.088c.309-.48.72-.864 1.232-1.152.512-.299 1.189-.448 2.032-.448 1.13 0 1.989.256 2.576.768.586.512.88 1.248.88 2.208v3.936h.832V12h-1.136Zm-3.392-1.296c.458 0 .848-.101 1.168-.304.32-.203.48-.501.48-.896V8.4h-1.312c-1.067 0-1.6.341-1.6 1.024v.272c0 .341.106.597.32.768.224.16.538.24.944.24ZM239.497 12c-.704 0-1.221-.176-1.552-.528-.33-.352-.496-.848-.496-1.488V.16h2.048v10.208h1.104V12h-1.104ZM233.035 10.608h-.08a2.672 2.672 0 0 1-.304.608 2.017 2.017 0 0 1-.464.496c-.181.15-.405.267-.672.352a2.832 2.832 0 0 1-.896.128c-.864 0-1.525-.283-1.984-.848-.458-.565-.688-1.37-.688-2.416v-5.28h2.048V8.72c0 .576.112 1.019.336 1.328.224.299.582.448 1.072.448.203 0 .4-.027.592-.08.203-.053.379-.133.528-.24.15-.117.272-.256.368-.416.096-.17.144-.368.144-.592v-5.52h2.048V12h-2.048v-1.392ZM226.923 12.704c0 .437-.08.821-.24 1.152-.149.341-.4.624-.752.848-.352.224-.805.395-1.36.512-.555.117-1.232.176-2.032.176-.704 0-1.301-.048-1.792-.144-.491-.085-.896-.213-1.216-.384-.309-.16-.533-.363-.672-.608a1.658 1.658 0 0 1-.208-.832c0-.47.128-.837.384-1.104.267-.256.635-.421 1.104-.496v-.176a1.416 1.416 0 0 1-.8-.496 1.513 1.513 0 0 1-.272-.896c0-.213.043-.4.128-.56.085-.17.197-.315.336-.432a2.08 2.08 0 0 1 .496-.288c.181-.085.373-.15.576-.192V8.72c-.512-.235-.896-.56-1.152-.976-.245-.416-.368-.901-.368-1.456 0-.853.293-1.536.88-2.048.587-.523 1.445-.784 2.576-.784.256 0 .507.016.752.048.256.032.491.085.704.16v-.272c0-.81.395-1.216 1.184-1.216h1.296v1.568h-1.776v.224c.437.245.763.565.976.96.213.395.32.848.32 1.36 0 .843-.293 1.52-.88 2.032-.576.512-1.435.768-2.576.768-.491 0-.917-.048-1.28-.144-.16.075-.299.176-.416.304a.608.608 0 0 0-.176.448c0 .416.363.624 1.088.624h2.24c1.024 0 1.765.213 2.224.64.469.416.704.997.704 1.744Zm-1.92.24a.72.72 0 0 0-.32-.624c-.213-.15-.581-.224-1.104-.224h-2.848a1.02 1.02 0 0 0-.432.864c0 .32.133.57.4.752.267.181.72.272 1.36.272h1.024c.672 0 1.157-.085 1.456-.256a.84.84 0 0 0 .464-.784Zm-2.464-5.248c1.003 0 1.504-.427 1.504-1.28v-.272c0-.853-.501-1.28-1.504-1.28-1.003 0-1.504.427-1.504 1.28v.272c0 .853.501 1.28 1.504 1.28ZM213.841 12.192c-.618 0-1.173-.101-1.664-.304a3.67 3.67 0 0 1-1.232-.88 4.132 4.132 0 0 1-.768-1.376 5.756 5.756 0 0 1-.272-1.824c0-.661.086-1.259.256-1.792.182-.533.438-.987.768-1.36a3.25 3.25 0 0 1 1.216-.88c.48-.213 1.024-.32 1.632-.32.651 0 1.216.112 1.696.336.48.224.875.528 1.184.912.31.384.539.832.688 1.344.16.501.24 1.04.24 1.616v.672h-5.552v.208c0 .608.171 1.099.512 1.472.342.363.848.544 1.52.544.512 0 .928-.107 1.248-.32.331-.213.624-.485.88-.816l1.104 1.232c-.341.48-.81.859-1.408 1.136-.586.267-1.269.4-2.048.4Zm-.032-7.2c-.544 0-.976.181-1.296.544-.32.363-.48.832-.48 1.408v.128h3.424v-.144c0-.576-.144-1.04-.432-1.392-.277-.363-.682-.544-1.216-.544ZM204.262 12V3.648h2.048v1.728h.08c.053-.224.133-.437.24-.64a2.074 2.074 0 0 1 1.088-.944c.256-.096.549-.144.88-.144h.448v1.936h-.64c-.693 0-1.216.101-1.568.304-.352.203-.528.533-.528.992V12h-2.048ZM196.071 10.608h-.08c-.149.48-.432.864-.848 1.152-.416.288-.901.432-1.456.432-1.056 0-1.867-.379-2.432-1.136-.555-.757-.832-1.84-.832-3.248 0-1.397.277-2.47.832-3.216.565-.757 1.376-1.136 2.432-1.136.555 0 1.04.144 1.456.432.416.277.699.656.848 1.136h.08V.16h2.048V12h-2.048v-1.392Zm-1.728-.112c.491 0 .901-.117 1.232-.352.331-.235.496-.57.496-1.008V6.48c0-.405-.165-.73-.496-.976-.331-.245-.741-.368-1.232-.368-.533 0-.965.181-1.296.544-.32.352-.48.827-.48 1.424v1.44c0 .597.16 1.072.48 1.424.331.352.763.528 1.296.528ZM188.093 12c-.448 0-.805-.128-1.072-.384-.256-.267-.416-.619-.48-1.056h-.096c-.138.544-.421.955-.848 1.232-.426.267-.954.4-1.584.4-.853 0-1.509-.224-1.968-.672-.458-.448-.688-1.045-.688-1.792 0-.864.31-1.504.928-1.92.619-.427 1.499-.64 2.64-.64h1.424V6.56c0-.47-.122-.832-.368-1.088-.245-.256-.64-.384-1.184-.384-.48 0-.869.107-1.168.32a3.021 3.021 0 0 0-.736.736l-1.216-1.088c.31-.48.72-.864 1.232-1.152.512-.299 1.19-.448 2.032-.448 1.131 0 1.99.256 2.576.768.587.512.88 1.248.88 2.208v3.936h.832V12h-1.136Zm-3.392-1.296c.459 0 .848-.101 1.168-.304.32-.203.48-.501.48-.896V8.4h-1.312c-1.066 0-1.6.341-1.6 1.024v.272c0 .341.107.597.32.768.224.16.539.24.944.24ZM172.543.16h2.048v4.88h.08c.171-.448.438-.821.8-1.12.374-.31.886-.464 1.536-.464.864 0 1.526.283 1.984.848.459.565.688 1.37.688 2.416V12h-2.048V6.928c0-.597-.106-1.045-.32-1.344-.213-.299-.565-.448-1.056-.448-.213 0-.421.032-.624.096a1.618 1.618 0 0 0-.528.256 1.268 1.268 0 0 0-.368.416 1.1 1.1 0 0 0-.144.576V12h-2.048V.16ZM163.514 12.192c-.8 0-1.472-.133-2.016-.4a4.748 4.748 0 0 1-1.44-1.136l1.248-1.216c.309.352.645.63 1.008.832.373.203.8.304 1.28.304.49 0 .842-.085 1.056-.256a.836.836 0 0 0 .336-.704c0-.245-.08-.437-.24-.576-.15-.15-.411-.25-.784-.304l-.832-.112c-.907-.117-1.6-.373-2.08-.768-.47-.405-.704-.992-.704-1.76 0-.405.074-.768.224-1.088.149-.33.362-.608.64-.832.277-.235.608-.41.992-.528a4.233 4.233 0 0 1 1.312-.192c.405 0 .762.032 1.072.096.32.053.608.139.864.256.256.107.49.245.704.416.213.16.421.341.624.544l-1.2 1.2a3.183 3.183 0 0 0-.88-.64 2.472 2.472 0 0 0-1.12-.256c-.448 0-.774.08-.976.24a.774.774 0 0 0-.288.624c0 .277.08.49.24.64.17.139.453.24.848.304l.848.112c1.802.256 2.704 1.077 2.704 2.464 0 .405-.086.779-.256 1.12-.16.33-.39.619-.688.864a3.497 3.497 0 0 1-1.088.56 4.785 4.785 0 0 1-1.408.192ZM156.368 10.608h-.08c-.149.48-.432.864-.848 1.152-.416.288-.901.432-1.456.432-1.056 0-1.867-.379-2.432-1.136-.555-.757-.832-1.84-.832-3.248 0-1.397.277-2.47.832-3.216.565-.757 1.376-1.136 2.432-1.136.555 0 1.04.144 1.456.432.416.277.699.656.848 1.136h.08V.16h2.048V12h-2.048v-1.392Zm-1.728-.112c.491 0 .901-.117 1.232-.352.331-.235.496-.57.496-1.008V6.48c0-.405-.165-.73-.496-.976-.331-.245-.741-.368-1.232-.368-.533 0-.965.181-1.296.544-.32.352-.48.827-.48 1.424v1.44c0 .597.16 1.072.48 1.424.331.352.763.528 1.296.528ZM141.778 12V3.648h2.048V5.04h.08c.17-.448.437-.821.8-1.12.373-.31.885-.464 1.536-.464.864 0 1.525.283 1.984.848.458.565.688 1.37.688 2.416V12h-2.048V6.928c0-.597-.107-1.045-.32-1.344-.214-.299-.566-.448-1.056-.448-.214 0-.422.032-.624.096a1.618 1.618 0 0 0-.528.256c-.15.107-.272.245-.368.416a1.1 1.1 0 0 0-.144.576V12h-2.048ZM138.984 12c-.448 0-.805-.128-1.072-.384-.256-.267-.416-.619-.48-1.056h-.096c-.139.544-.421.955-.848 1.232-.427.267-.955.4-1.584.4-.853 0-1.509-.224-1.968-.672-.459-.448-.688-1.045-.688-1.792 0-.864.309-1.504.928-1.92.619-.427 1.499-.64 2.64-.64h1.424V6.56c0-.47-.123-.832-.368-1.088-.245-.256-.64-.384-1.184-.384-.48 0-.869.107-1.168.32a3.021 3.021 0 0 0-.736.736l-1.216-1.088c.309-.48.72-.864 1.232-1.152.512-.299 1.189-.448 2.032-.448 1.131 0 1.989.256 2.576.768s.88 1.248.88 2.208v3.936h.832V12h-1.136Zm-3.392-1.296c.459 0 .848-.101 1.168-.304.32-.203.48-.501.48-.896V8.4h-1.312c-1.067 0-1.6.341-1.6 1.024v.272c0 .341.107.597.32.768.224.16.539.24.944.24ZM126.731 12V3.648h2.048v1.728h.08c.053-.224.133-.437.24-.64a2.055 2.055 0 0 1 1.088-.944c.256-.096.549-.144.88-.144h.448v1.936h-.64c-.694 0-1.216.101-1.568.304-.352.203-.528.533-.528.992V12h-2.048ZM117.137.16h2.048v4.864h.064c.149-.48.432-.859.848-1.136.416-.288.901-.432 1.456-.432 1.067 0 1.877.379 2.432 1.136.565.747.848 1.819.848 3.216 0 1.408-.283 2.49-.848 3.248-.555.757-1.365 1.136-2.432 1.136-.555 0-1.04-.144-1.456-.432a2.25 2.25 0 0 1-.848-1.152h-.064V12h-2.048V.16Zm3.76 10.336c.533 0 .965-.176 1.296-.528.331-.352.496-.827.496-1.424v-1.44c0-.597-.165-1.072-.496-1.424-.331-.363-.763-.544-1.296-.544-.491 0-.901.123-1.232.368-.32.245-.48.57-.48.976v2.656c0 .437.16.773.48 1.008.331.235.741.352 1.232.352ZM108.107 12.192c-.8 0-1.472-.133-2.016-.4a4.748 4.748 0 0 1-1.44-1.136l1.248-1.216c.31.352.646.63 1.008.832.374.203.8.304 1.28.304.491 0 .843-.085 1.056-.256a.836.836 0 0 0 .336-.704c0-.245-.08-.437-.24-.576-.149-.15-.41-.25-.784-.304l-.832-.112c-.906-.117-1.6-.373-2.08-.768-.469-.405-.704-.992-.704-1.76 0-.405.075-.768.224-1.088.15-.33.363-.608.64-.832.278-.235.608-.41.992-.528a4.238 4.238 0 0 1 1.312-.192c.406 0 .763.032 1.072.096.32.053.608.139.864.256.256.107.491.245.704.416.214.16.422.341.624.544l-1.2 1.2a3.153 3.153 0 0 0-.88-.64 2.466 2.466 0 0 0-1.12-.256c-.448 0-.773.08-.976.24a.774.774 0 0 0-.288.624c0 .277.08.49.24.64.171.139.454.24.848.304l.848.112c1.803.256 2.704 1.077 2.704 2.464a2.54 2.54 0 0 1-.944 1.984 3.475 3.475 0 0 1-1.088.56 4.78 4.78 0 0 1-1.408.192ZM100.957 10.608h-.08a2.714 2.714 0 0 1-.304.608 2.017 2.017 0 0 1-.464.496c-.181.15-.405.267-.672.352a2.834 2.834 0 0 1-.896.128c-.864 0-1.525-.283-1.984-.848-.459-.565-.688-1.37-.688-2.416v-5.28h2.048V8.72c0 .576.112 1.019.336 1.328.224.299.582.448 1.072.448.203 0 .4-.027.592-.08.203-.053.379-.133.528-.24.149-.117.272-.256.368-.416.096-.17.144-.368.144-.592v-5.52h2.048V12h-2.048v-1.392ZM90.262 12.192a4.117 4.117 0 0 1-1.616-.304 3.426 3.426 0 0 1-1.216-.88 4.109 4.109 0 0 1-.768-1.376 5.745 5.745 0 0 1-.272-1.824c0-.672.09-1.275.272-1.808.181-.533.437-.987.768-1.36a3.426 3.426 0 0 1 1.216-.88 4.117 4.117 0 0 1 1.616-.304c.597 0 1.136.101 1.616.304.48.203.885.496 1.216.88.341.373.602.827.784 1.36.181.533.272 1.136.272 1.808 0 .672-.091 1.28-.272 1.824a3.963 3.963 0 0 1-.784 1.376c-.331.384-.736.677-1.216.88a4.116 4.116 0 0 1-1.616.304Zm0-1.648c.544 0 .97-.165 1.28-.496.309-.33.464-.816.464-1.456V7.04c0-.63-.155-1.11-.464-1.44-.31-.33-.736-.496-1.28-.496-.534 0-.955.165-1.264.496-.31.33-.464.81-.464 1.44v1.552c0 .64.154 1.125.464 1.456.309.33.73.496 1.264.496ZM72.746 12V3.648h2.048V5.04h.08c.16-.437.416-.81.768-1.12.352-.31.843-.464 1.472-.464.576 0 1.072.139 1.488.416.416.277.726.699.928 1.264h.032c.15-.47.443-.864.88-1.184.448-.33 1.008-.496 1.68-.496.822 0 1.451.283 1.888.848.448.565.672 1.37.672 2.416V12h-2.048V6.928c0-1.195-.448-1.792-1.344-1.792-.202 0-.4.032-.592.096a1.466 1.466 0 0 0-.496.256c-.138.107-.25.245-.336.416a1.21 1.21 0 0 0-.128.576V12H77.69V6.928c0-1.195-.448-1.792-1.344-1.792-.192 0-.384.032-.576.096a1.466 1.466 0 0 0-.496.256 1.353 1.353 0 0 0-.352.416 1.21 1.21 0 0 0-.128.576V12h-2.048ZM69.953 12c-.448 0-.806-.128-1.072-.384-.256-.267-.416-.619-.48-1.056h-.096c-.139.544-.422.955-.848 1.232-.427.267-.955.4-1.584.4-.854 0-1.51-.224-1.968-.672-.459-.448-.688-1.045-.688-1.792 0-.864.31-1.504.928-1.92.618-.427 1.499-.64 2.64-.64h1.424V6.56c0-.47-.123-.832-.368-1.088-.245-.256-.64-.384-1.184-.384-.48 0-.87.107-1.168.32a3.016 3.016 0 0 0-.736.736l-1.216-1.088c.31-.48.72-.864 1.232-1.152.512-.299 1.19-.448 2.032-.448 1.13 0 1.99.256 2.576.768.587.512.88 1.248.88 2.208v3.936h.832V12h-1.136Zm-3.392-1.296c.458 0 .848-.101 1.168-.304.32-.203.48-.501.48-.896V8.4h-1.312c-1.067 0-1.6.341-1.6 1.024v.272c0 .341.106.597.32.768.224.16.538.24.944.24ZM58.631 5.264H57.4V3.648h1.232v-1.2c0-.736.192-1.301.576-1.696.395-.395.97-.592 1.728-.592h1.456v1.632H60.68v1.856h1.712v1.616H60.68V12h-2.048V5.264ZM49.256 5.264h-1.232V3.648h1.232v-1.2c0-.736.192-1.301.576-1.696.395-.395.97-.592 1.728-.592h1.456v1.632h-1.712v1.856h1.712v1.616h-1.712V12h-2.048V5.264ZM45.442 2.432c-.426 0-.736-.096-.928-.288-.181-.192-.272-.437-.272-.736v-.32c0-.299.09-.544.272-.736.192-.192.502-.288.928-.288.416 0 .72.096.912.288a.997.997 0 0 1 .288.736v.32a.997.997 0 0 1-.288.736c-.192.192-.496.288-.912.288Zm-1.024 1.216h2.048V12h-2.048V3.648ZM37.26 12c-.703 0-1.242-.181-1.615-.544-.363-.373-.544-.901-.544-1.584V5.28h-1.232V3.648h.64c.309 0 .517-.07.624-.208.117-.15.176-.368.176-.656V1.36h1.84v2.288h1.712V5.28h-1.712v5.088h1.584V12H37.26ZM31.922 12c-.448 0-.806-.128-1.073-.384-.256-.267-.416-.619-.48-1.056h-.096c-.138.544-.42.955-.848 1.232-.426.267-.954.4-1.584.4-.853 0-1.509-.224-1.968-.672-.458-.448-.688-1.045-.688-1.792 0-.864.31-1.504.928-1.92.62-.427 1.5-.64 2.64-.64h1.424V6.56c0-.47-.122-.832-.367-1.088-.246-.256-.64-.384-1.184-.384-.48 0-.87.107-1.169.32a3.016 3.016 0 0 0-.736.736l-1.215-1.088c.309-.48.72-.864 1.232-1.152.512-.299 1.189-.448 2.032-.448 1.13 0 1.989.256 2.576.768.586.512.88 1.248.88 2.208v3.936h.831V12h-1.136Zm-3.393-1.296c.46 0 .849-.101 1.169-.304.32-.203.48-.501.48-.896V8.4h-1.313c-1.066 0-1.6.341-1.6 1.024v.272c0 .341.107.597.32.768.224.16.54.24.944.24ZM16.371.16h2.048v4.88h.08c.171-.448.438-.821.8-1.12.374-.31.886-.464 1.536-.464.864 0 1.526.283 1.984.848.459.565.688 1.37.688 2.416V12H21.46V6.928c0-.597-.106-1.045-.32-1.344-.213-.299-.565-.448-1.056-.448a2.06 2.06 0 0 0-.624.096 1.618 1.618 0 0 0-.528.256c-.149.107-.272.245-.368.416a1.1 1.1 0 0 0-.144.576V12h-2.048V.16ZM3.008 12 .416.832h2.112l1.104 5.36.688 3.424h.048l.8-3.424 1.28-5.36h2.336l1.28 5.36.784 3.424h.048l.704-3.424 1.136-5.36h2.016L12.08 12H9.696L8.272 6.096l-.688-2.944h-.032l-.72 2.944L5.408 12h-2.4Z" fill="#212529"/></svg>